<?xml version="1.0" encoding="UTF-8" standalone="no"?>
<svg
   width="60px"
   height="60px"
   viewBox="0 0 580 606"
   version="1.1"
   id="svg3"
   sodipodi:docname="personal.svg"
   inkscape:version="1.1.2 (76b9e6a115, 2022-02-25)"
   xmlns:inkscape="http://www.inkscape.org/namespaces/inkscape"
   xmlns:sodipodi="http://sodipodi.sourceforge.net/DTD/sodipodi-0.dtd"
   xmlns="http://www.w3.org/2000/svg"
   xmlns:svg="http://www.w3.org/2000/svg">
  <defs
     id="defs7" />
  <sodipodi:namedview
     id="namedview5"
     pagecolor="#ffffff"
     bordercolor="#666666"
     borderopacity="1.0"
     inkscape:pageshadow="2"
     inkscape:pageopacity="0.0"
     inkscape:pagecheckerboard="0"
     inkscape:document-units="in"
     showgrid="false"
     inkscape:zoom="1.0729879"
     inkscape:cx="386.30443"
     inkscape:cy="577.3597"
     inkscape:window-width="1920"
     inkscape:window-height="1055"
     inkscape:window-x="1366"
     inkscape:window-y="0"
     inkscape:window-maximized="1"
     inkscape:current-layer="svg3" />
  <path
     id="Selection"
     fill="none"
     stroke="black"
     stroke-width="1"
     d="M 240.00,49.00            C 240.04,23.52 261.03,0.31 287.00,0.00              296.44,-0.11 303.20,0.20 312.00,4.32              333.66,14.46 344.25,38.04 339.55,61.00              338.24,67.41 335.58,73.58 331.91,79.00              330.45,81.15 326.03,85.71 326.04,87.96              326.06,90.53 332.98,96.06 335.00,97.92              335.00,97.92 358.00,118.28 358.00,118.28              361.15,121.10 364.08,125.91 368.00,127.00              368.66,132.35 371.49,135.92 373.30,141.00              375.55,147.28 376.92,156.33 377.00,163.00              377.00,163.00 377.00,204.00 377.00,204.00              377.00,213.29 377.53,224.11 374.64,233.00              370.02,247.21 356.40,260.24 341.00,261.00              341.00,261.00 341.00,369.00 341.00,369.00              341.00,369.00 354.00,369.00 354.00,369.00              354.00,369.00 354.00,285.00 354.00,285.00              354.00,282.91 353.88,279.94 354.60,278.00              356.30,273.37 370.57,261.21 375.00,257.09              377.52,254.74 381.17,252.24 382.40,248.99              382.40,248.99 384.59,231.00 384.59,231.00              386.32,220.23 389.92,208.76 394.81,199.00              415.28,158.08 456.11,137.05 499.00,127.58              499.00,127.58 521.00,123.62 521.00,123.62              533.56,122.60 528.52,136.02 526.58,143.00              523.42,154.34 518.24,168.37 513.22,179.00              510.42,184.93 504.75,192.98 504.00,199.00              500.02,200.29 493.72,211.20 490.57,215.00              480.41,227.22 472.40,234.68 459.00,243.31              444.33,252.76 430.17,257.72 413.00,260.41              413.00,260.41 398.00,261.99 398.00,261.99              394.88,262.06 390.81,261.62 388.00,263.02              385.58,264.23 382.18,267.79 380.00,269.72              371.85,276.88 366.02,279.62 366.00,291.00              366.00,291.00 366.00,332.00 366.00,332.00              366.00,332.00 392.61,323.16 392.61,323.16              394.67,321.54 399.92,312.11 402.15,309.00              408.20,300.59 415.99,292.05 424.00,285.46              445.10,268.10 470.04,260.14 497.00,258.96              497.00,258.96 507.00,258.18 507.00,258.18              529.95,259.81 539.40,260.81 562.00,266.63              566.53,267.79 577.70,270.15 579.16,275.05              580.40,279.23 575.08,285.01 572.56,288.00              564.77,297.25 550.74,310.28 541.00,317.63              520.87,332.81 498.16,345.33 473.00,349.57              461.98,351.42 455.93,351.02 445.00,351.00              433.54,350.98 420.74,347.88 410.00,343.95              410.00,343.95 393.00,337.15 393.00,337.15              393.00,337.15 366.00,344.00 366.00,344.00              366.00,344.00 366.00,369.00 366.00,369.00              366.00,369.00 423.00,369.00 423.00,369.00              432.69,369.14 432.99,372.36 433.00,381.00              433.00,381.00 433.00,412.00 433.00,412.00              433.00,415.59 433.61,421.91 431.40,424.77              427.86,429.36 416.03,428.43 411.00,427.00              411.00,427.00 411.00,577.00 411.00,577.00              410.79,594.74 399.77,605.97 382.00,606.00              382.00,606.00 199.00,606.00 199.00,606.00              177.19,605.97 169.03,592.15 169.00,572.00              169.00,572.00 169.00,428.00 169.00,428.00              164.02,428.00 151.89,429.27 149.02,424.72              148.00,423.10 148.04,420.86 148.00,419.00              148.00,419.00 148.00,385.00 148.00,385.00              148.00,381.45 147.33,374.00 149.60,371.31              151.87,368.62 155.82,369.01 159.00,369.00              159.00,369.00 214.00,369.00 214.00,369.00              214.00,369.00 214.00,344.00 214.00,344.00              214.00,344.00 187.00,337.15 187.00,337.15              187.00,337.15 170.00,343.95 170.00,343.95              159.26,347.88 146.46,350.98 135.00,351.00              124.07,351.02 118.02,351.42 107.00,349.57              81.84,345.33 59.13,332.81 39.00,317.63              29.26,310.28 15.23,297.25 7.44,288.00              4.92,285.01 -0.40,279.23 0.84,275.05              2.30,270.15 13.47,267.79 18.00,266.63              40.60,260.81 50.05,259.81 73.00,258.18              73.00,258.18 83.00,258.96 83.00,258.96              109.96,260.14 134.90,268.10 156.00,285.46              164.01,292.05 171.80,300.59 177.85,309.00              180.08,312.11 185.33,321.54 187.39,323.16              187.39,323.16 214.00,332.00 214.00,332.00              214.00,332.00 214.00,291.00 214.00,291.00              213.98,279.62 208.15,276.88 200.00,269.72              197.82,267.79 194.42,264.23 192.00,263.02              189.19,261.62 185.12,262.06 182.00,261.99              182.00,261.99 167.00,260.41 167.00,260.41              149.83,257.72 135.67,252.76 121.00,243.31              107.60,234.68 99.59,227.22 89.43,215.00              86.35,211.28 79.85,200.20 76.00,199.00              75.25,192.98 69.58,184.93 66.78,179.00              61.31,167.43 56.85,155.32 53.42,143.00              51.48,136.02 46.44,122.60 59.00,123.62              59.00,123.62 81.00,127.58 81.00,127.58              123.94,137.06 164.69,158.02 185.19,199.00              190.23,209.07 193.62,219.90 195.41,231.00              195.41,231.00 197.60,248.99 197.60,248.99              198.83,252.24 202.48,254.74 205.00,257.09              209.43,261.21 223.70,273.37 225.40,278.00              226.12,279.94 226.00,282.91 226.00,285.00              226.00,285.00 226.00,369.00 226.00,369.00              226.00,369.00 240.00,369.00 240.00,369.00              240.00,369.00 240.00,261.00 240.00,261.00              219.47,260.00 204.24,240.82 204.00,221.00              204.00,221.00 204.00,175.00 204.00,175.00              204.00,158.33 202.59,147.26 211.34,132.00              216.77,122.53 229.58,111.68 238.00,104.42              243.02,100.10 251.52,91.59 257.00,89.00              245.21,76.64 239.97,66.13 240.00,49.00 Z            M 279.00,86.96            C 286.32,89.14 290.59,89.10 298.00,87.86              326.59,83.06 337.66,48.20 320.47,26.00              310.94,13.69 297.73,10.83 283.00,12.30              243.79,19.94 240.74,75.55 279.00,86.96 Z            M 365.00,206.00            C 365.00,206.00 365.00,185.00 365.00,185.00              365.00,167.35 367.11,149.22 356.21,134.00              351.76,127.78 340.16,118.52 334.00,112.93              330.60,109.84 317.20,97.17 314.00,96.19              311.09,95.30 307.80,97.34 305.00,98.25              301.27,99.46 292.82,100.97 289.00,100.68              284.56,100.34 279.24,99.31 275.00,97.97              272.77,97.27 269.26,95.70 267.00,96.11              263.44,96.77 251.51,108.54 248.00,111.58              241.75,116.98 227.87,128.73 223.60,135.00              213.21,150.27 216.00,170.33 216.10,188.00              216.10,188.00 216.10,209.00 216.10,209.00              216.10,209.00 216.10,225.00 216.10,225.00              218.15,237.51 227.56,247.05 240.00,249.00              240.00,249.00 240.00,165.00 240.00,165.00              240.00,162.31 239.79,158.50 241.17,156.14              243.82,151.61 248.75,152.92 250.98,157.05              252.19,159.29 252.00,162.50 252.00,165.00              252.00,165.00 252.00,369.00 252.00,369.00              252.00,369.00 284.14,369.00 284.14,369.00              284.14,369.00 284.14,260.00 284.14,260.00              284.14,260.00 284.14,234.00 284.14,234.00              285.30,230.87 288.27,227.11 291.94,228.40              296.33,229.94 295.99,235.28 296.00,239.00              296.00,239.00 296.00,369.00 296.00,369.00              296.00,369.00 329.00,369.00 329.00,369.00              329.00,369.00 329.00,164.00 329.00,164.00              329.00,161.56 328.81,158.31 330.01,156.13              332.66,151.33 337.56,152.84 339.83,157.05              341.21,159.62 341.00,163.15 341.00,166.00              341.00,166.00 341.00,249.00 341.00,249.00              363.84,245.40 365.00,224.31 365.00,206.00 Z            M 180.42,220.00            C 168.88,179.72 133.63,154.87 95.00,143.58              86.21,141.01 74.05,137.42 65.00,137.00              65.73,145.74 70.48,156.72 73.80,165.00              86.26,196.06 109.56,227.13 141.00,240.57              149.43,244.18 170.24,250.86 179.00,249.00              173.73,245.01 171.61,242.38 167.00,238.09              167.00,238.09 138.00,211.58 138.00,211.58              134.91,208.89 121.34,196.93 120.40,194.00              119.18,190.20 123.20,186.19 127.00,187.40              130.03,188.37 141.06,199.18 144.00,201.91              144.00,201.91 184.00,238.00 184.00,238.00              183.70,231.44 182.21,226.24 180.42,220.00 Z            M 485.00,143.58            C 446.37,154.87 411.12,179.72 399.58,220.00              397.79,226.24 396.30,231.44 396.00,238.00              396.00,238.00 443.00,195.28 443.00,195.28              444.97,193.55 450.92,188.06 453.00,187.40              456.80,186.19 460.82,190.20 459.60,194.00              458.73,196.71 455.10,199.59 453.00,201.42              453.00,201.42 441.00,212.42 441.00,212.42              441.00,212.42 401.00,250.00 401.00,250.00              420.11,246.57 428.70,246.61 447.00,236.69              474.23,221.93 494.82,193.35 506.20,165.00              509.52,156.72 514.27,145.74 515.00,137.00              505.95,137.42 493.79,141.01 485.00,143.58 Z            M 80.00,203.00            C 80.00,203.00 79.00,204.00 79.00,204.00              79.00,204.00 79.00,203.00 79.00,203.00              79.00,203.00 80.00,203.00 80.00,203.00 Z            M 501.00,203.00            C 501.00,203.00 500.00,204.00 500.00,204.00              500.00,204.00 500.00,203.00 500.00,203.00              500.00,203.00 501.00,203.00 501.00,203.00 Z            M 151.00,296.87            C 124.72,274.33 91.66,267.96 58.00,271.17              58.00,271.17 32.00,275.42 32.00,275.42              32.00,275.42 17.00,279.00 17.00,279.00              20.85,287.16 36.67,300.57 44.00,306.40              65.27,323.32 95.20,338.96 123.00,339.00              123.00,339.00 136.00,339.00 136.00,339.00              144.45,338.90 161.89,335.35 169.00,331.00              169.00,331.00 140.00,322.28 140.00,322.28              140.00,322.28 106.00,312.12 106.00,312.12              101.55,310.94 86.73,307.59 91.78,300.23              95.51,294.79 106.84,300.05 112.00,301.66              112.00,301.66 169.00,318.00 169.00,318.00              164.98,310.19 157.64,302.57 151.00,296.87 Z            M 546.00,275.00            C 533.26,272.37 519.95,270.46 506.95,270.13              506.95,270.13 497.00,270.92 497.00,270.92              470.06,272.43 448.69,279.94 428.00,297.73              421.92,302.96 414.67,310.87 411.00,318.00              411.00,318.00 471.00,300.47 471.00,300.47              475.83,299.27 484.66,295.03 488.22,300.47              488.99,301.36 489.33,302.60 489.04,303.96              487.84,309.49 473.90,312.18 469.00,313.58              469.00,313.58 432.00,324.58 432.00,324.58              426.34,326.19 415.45,328.82 411.00,332.00              424.48,335.08 430.68,338.98 446.00,339.00              446.00,339.00 457.00,339.00 457.00,339.00              484.80,338.96 514.73,323.32 536.00,306.40              543.33,300.57 559.15,287.16 563.00,279.00              563.00,279.00 546.00,275.00 546.00,275.00 Z            M 160.00,381.00            C 160.00,381.00 160.00,416.00 160.00,416.00              160.00,416.00 421.00,416.00 421.00,416.00              421.00,416.00 421.00,381.00 421.00,381.00              421.00,381.00 160.00,381.00 160.00,381.00 Z            M 373.00,428.00            C 373.00,428.00 328.00,428.00 328.00,428.00              328.00,428.00 181.00,428.00 181.00,428.00              181.00,428.00 181.00,555.00 181.00,555.00              181.00,566.62 177.83,587.64 191.00,592.99              193.85,594.15 196.98,594.00 200.00,594.00              200.00,594.00 352.00,594.00 352.00,594.00              352.00,594.00 382.00,594.00 382.00,594.00              386.49,593.94 390.15,593.61 393.67,590.44              398.71,585.92 398.99,580.23 399.00,574.00              399.00,574.00 399.00,427.00 399.00,427.00              399.00,427.00 373.00,428.00 373.00,428.00 Z            M 205.00,460.00            C 205.00,460.00 205.00,529.00 205.00,529.00              204.98,533.57 204.74,540.07 198.05,538.53              192.49,537.24 193.01,530.40 193.00,526.00              193.00,526.00 193.00,462.00 193.00,462.00              193.00,454.86 190.74,443.85 198.05,439.84              207.79,439.21 205.00,453.39 205.00,460.00 Z"
     style="stroke-width:1.49999932;stroke-miterlimit:4;stroke-dasharray:none;fill:#3EE23E;stroke:#3EE23E;stroke-opacity:1" />
  <path
     style="fill:#3EE23E;stroke:#3EE23E;stroke-width:1.86395;stroke-linejoin:bevel;stroke-miterlimit:4;stroke-dasharray:none;paint-order:fill markers stroke;stroke-opacity:1"
     d="m 226.34225,330.31878 c -7.36981,-1.08248 -18.80672,-4.09298 -28.46493,-7.49271 -37.7206,-13.27783 -68.57149,-43.02285 -90.75507,-87.5019 -9.188965,-18.42426 -20.280452,-48.9414 -18.452266,-50.76959 1.822203,-1.8222 38.365156,7.84172 56.690256,14.99194 43.58403,17.00596 75.35587,46.31261 89.81093,82.84249 3.57263,9.02851 8.36487,26.70322 7.89593,29.12177 -0.25876,1.33461 -32.58253,-26.98157 -58.06968,-50.87003 -4.1007,-3.84348 -9.09145,-8.17632 -11.09056,-9.62853 -5.95307,-4.32446 -11.72929,-3.26709 -14.17884,2.5955 -2.57029,6.15158 -2.36002,6.38772 40.18103,45.12383 26.84316,24.44227 35.22224,32.60006 33.35345,32.4726 -0.91643,-0.0625 -4.03054,-0.46092 -6.92025,-0.88537 z"
     id="path1891"
     transform="scale(0.74999966)" />
  <path
     style="fill:#3EE23E;stroke:#3EE23E;stroke-width:1.86395;stroke-linejoin:bevel;stroke-miterlimit:4;stroke-dasharray:none;paint-order:fill markers stroke;stroke-opacity:1"
     d="m 337.15158,349.97517 -0.24192,-140.71067 -2.79593,-2.79231 c -4.24088,-4.23539 -7.90285,-4.59051 -11.76416,-1.14085 l -3.14747,2.81192 -0.25272,61.17783 -0.25272,61.17782 -2.07723,-0.59714 c -9.72025,-2.79426 -19.23038,-10.73041 -23.65399,-19.73913 l -2.65463,-5.40619 -0.70442,-41.47297 c -0.90023,-53.0011 -0.30311,-61.39616 5.26033,-73.95543 4.64838,-10.49355 7.45979,-13.47362 40.48474,-42.91355 15.04712,-13.41368 19.28716,-16.64183 21.8182,-16.61125 1.15909,0.014 5.8694,1.12805 10.46734,2.47566 14.94778,4.38104 26.71035,4.1395 42.03573,-0.86321 9.39258,-3.06605 7.5729,-4.11552 34.52629,19.91257 23.703,21.13047 29.70386,27.50548 33.8136,35.92184 6.76072,13.84532 7.08704,16.83008 7.03899,64.38366 -0.0469,46.40841 -0.42393,50.25529 -6.04773,61.70436 -3.97993,8.10244 -11.78933,14.31709 -20.6844,16.46046 l -2.54312,0.61279 -0.25282,-60.66324 -0.25281,-60.66325 -3.48123,-3.18996 c -3.83186,-3.51124 -6.62409,-3.98119 -9.92352,-1.67018 -4.98456,3.49132 -4.7688,-3.16404 -4.7688,147.10062 v 139.36048 h -20.48993 -20.48993 l -0.24655,-90.79967 c -0.24452,-90.04729 -0.26248,-90.82098 -2.16723,-93.37192 -4.0147,-5.37671 -9.95208,-4.78431 -14.12115,1.40894 l -2.13174,3.16675 v 89.79795 89.79795 h -20.02857 -20.02857 z"
     id="path1930"
     transform="scale(0.74999966)" />
  <path
     style="fill:#3EE23E;stroke:#3EE23E;stroke-width:1.86395;stroke-linejoin:bevel;stroke-miterlimit:4;stroke-dasharray:none;paint-order:fill markers stroke;stroke-opacity:1"
     d="m 374.97809,115.1742 c -12.81026,-3.47601 -22.07961,-9.77388 -28.68807,-19.491504 -5.49737,-8.0838 -8.02883,-15.503017 -8.64893,-25.348345 -0.93849,-14.900584 4.32291,-28.98101 14.61533,-39.113124 11.96475,-11.778408 28.4686,-16.314722 45.909,-12.618727 13.18961,2.795164 22.33726,8.910804 29.62362,19.804819 18.99672,28.402448 5.85868,66.765931 -26.07752,76.147151 -8.4027,2.46829 -19.01432,2.71429 -26.73343,0.61973 z"
     id="path1969"
     transform="scale(0.74999966)" />
  <path
     style="fill:#3EE23E;stroke:#3EE23E;stroke-width:1.86395;stroke-linejoin:bevel;stroke-miterlimit:4;stroke-dasharray:none;paint-order:fill markers stroke;stroke-opacity:1"
     d="M 147.754,449.13242 C 112.93898,443.7223 73.991443,422.40934 39.913254,390.11956 30.102358,380.82354 24.320362,373.4945 26.266482,372.82144 c 4.333511,-1.49875 18.682745,-4.49837 34.312018,-7.17271 16.655593,-2.84997 19.808273,-3.10957 37.745065,-3.10811 22.408205,0.002 33.507375,1.45313 50.530615,6.60723 22.65905,6.86045 41.87982,18.14521 58.27073,34.21149 6.08282,5.96234 14.6856,16.28913 14.6856,17.62861 0,0.42091 -56.11566,-15.53299 -80.95459,-23.01569 -12.49303,-3.76352 -18.51523,-2.70076 -20.60671,3.63652 -1.39783,4.23543 0.36193,7.75587 5.24331,10.48942 1.97245,1.10456 21.20065,7.2572 42.72931,13.67254 21.52867,6.41533 42.28846,12.6715 46.13286,13.9026 l 6.98983,2.23837 -8.85378,2.86137 c -4.86958,1.57376 -13.09773,3.53106 -18.28476,4.34957 -11.58096,1.82746 -34.72354,1.83232 -46.45198,0.01 z"
     id="path2008"
     transform="scale(0.74999966)" />
  <path
     style="fill:#3EE23E;stroke:#3EE23E;stroke-width:1.86395;stroke-linejoin:bevel;stroke-miterlimit:4;stroke-dasharray:none;paint-order:fill markers stroke;stroke-opacity:1"
     d="m 214.35469,531.22685 v -21.90146 h 172.88172 172.88172 v 21.90146 21.90145 H 387.23641 214.35469 Z"
     id="path2047"
     transform="scale(0.74999966)" />
  <path
     style="fill:#3EE23E;stroke:#3EE23E;stroke-width:1.86395;stroke-linejoin:bevel;stroke-miterlimit:4;stroke-dasharray:none;paint-order:fill markers stroke;stroke-opacity:1"
     d="m 257.48197,789.87753 c -4.27938,-1.01674 -7.36247,-3.26655 -10.05777,-7.33943 -4.74565,-7.17115 -4.77636,-7.9683 -4.35955,-113.14567 l 0.38688,-97.62459 134.3349,-0.005 c 73.88419,-0.003 138.43111,-0.27607 143.43762,-0.6076 l 9.10273,-0.60278 -0.24895,103.35806 -0.24895,103.35805 -2.22204,3.87812 c -2.76302,4.82231 -6.25454,7.46102 -11.46128,8.66187 -4.78257,1.10301 -254.03161,1.1693 -258.66359,0.0688 z m 14.82424,-72.7171 c 0.86181,-1.05405 1.82773,-4.10738 2.1465,-6.78518 0.31877,-2.67779 0.45243,-30.52585 0.29704,-61.88456 -0.27853,-56.20455 -0.31034,-57.05328 -2.23581,-59.64652 -1.12669,-1.51745 -3.39373,-2.99586 -5.35725,-3.49364 -2.97759,-0.75486 -3.70714,-0.57975 -5.8241,1.39796 -5.6558,5.28379 -5.42795,2.33215 -5.13369,66.50275 0.14792,32.25749 0.60102,59.51781 1.00687,60.57851 0.79827,2.08625 3.37445,4.61297 5.61172,5.50397 2.52949,1.0074 7.89246,-0.22094 9.48872,-2.17329 z"
     id="path2086"
     transform="scale(0.74999966)" />
  <path
     style="fill:#3EE23E;stroke:#3EE23E;stroke-width:1.86395;stroke-linejoin:bevel;stroke-miterlimit:4;stroke-dasharray:none;paint-order:fill markers stroke;stroke-opacity:1"
     d="m 581.19145,449.63923 c -5.72429,-0.8945 -25.19975,-6.14691 -27.55716,-7.43201 -1.54207,-0.84063 5.65082,-3.1627 47.49083,-15.33142 40.09724,-11.66185 44.94294,-13.29738 48.78846,-16.46718 2.81245,-2.31826 3.40224,-3.41074 3.40224,-6.30202 0,-4.63694 -3.12553,-7.60644 -8.66309,-8.2306 -3.38107,-0.3811 -11.89559,1.80951 -47.51132,12.22364 -23.86562,6.97837 -43.86647,12.68794 -44.44633,12.68794 -1.94589,0 4.89989,-8.77889 13.44497,-17.24157 14.81902,-14.67613 34.09752,-26.63606 53.15862,-32.97838 22.5936,-7.51771 54.9136,-10.36224 80.33527,-7.07042 16.8486,2.1817 46.29266,8.09963 48.00953,9.64937 0.9862,0.8902 -10.13649,13.6634 -18.01633,20.68981 -31.98967,28.52498 -65.71367,47.30935 -97.26963,54.1795 -9.61159,2.09257 -41.65691,3.10927 -51.16606,1.62334 z"
     id="path2125"
     transform="scale(0.74999966)" />
  <path
     style="fill:#3EE23E;stroke:#3EE23E;stroke-width:1.86395;stroke-linejoin:bevel;stroke-miterlimit:4;stroke-dasharray:none;paint-order:fill markers stroke;stroke-opacity:1"
     d="m 540.54662,330.21575 c 0,-0.2256 14.36409,-13.80191 31.92021,-30.16957 44.83297,-41.79802 41.70596,-38.57267 41.70596,-43.01763 0,-4.84511 -3.5033,-8.6567 -7.95655,-8.6567 -4.29603,0 -8.9868,3.81579 -44.70014,36.36221 -24.40465,22.24052 -30.81585,27.64116 -31.04878,26.15472 -0.47392,-3.02427 5.15583,-22.7325 9.12064,-31.92898 16.56201,-38.41591 51.72294,-67.63234 100.90452,-83.84503 19.95367,-6.57773 44.51056,-12.24789 44.51056,-10.27745 0,3.03492 -4.52409,17.22082 -9.32374,29.23589 -13.17473,32.98058 -28.17326,56.13206 -50.00299,77.1838 -19.88481,19.17613 -41.82457,31.19817 -66.02417,36.17838 -10.37834,2.13584 -19.10552,3.40588 -19.10552,2.78036 z"
     id="path2164"
     transform="scale(0.74999966)" />
  <path
     style="fill:#3EE23E;stroke:#3EE23E;stroke-width:1.86395;stroke-linejoin:bevel;stroke-miterlimit:4;stroke-dasharray:none;paint-order:fill markers stroke;stroke-opacity:1"
     d="m 254.87631,787.06207 c -4.55439,-2.25444 -8.48812,-8.00551 -9.49549,-13.88233 -0.76794,-4.47998 -0.88006,-199.24943 -0.11515,-200.01435 0.2399,-0.23989 64.15507,-0.54763 142.03371,-0.68386 l 141.59752,-0.2477 -0.29549,102.46924 -0.29549,102.46925 -2.50685,3.77612 c -1.46952,2.21359 -4.22492,4.64384 -6.65882,5.87308 l -4.15196,2.09695 -128.18235,-7.4e-4 c -126.09705,-7.2e-4 -128.24331,-0.0309 -131.92963,-1.85566 z M 270.7237,719.9581 c 5.23434,-1.99009 5.22997,-1.92975 4.94046,-68.31986 -0.28631,-65.6553 -0.12251,-63.63236 -5.3722,-66.34709 -4.48405,-2.31879 -7.67016,-1.79001 -11.208,1.86012 -3.13652,3.23606 -3.17569,3.38278 -4.04298,15.14462 -0.53988,7.32157 -0.55697,31.29883 -0.0445,62.51479 l 0.83124,50.63787 3.04362,2.71781 c 3.25229,2.90411 7.31234,3.51787 11.85241,1.79174 z"
     id="path2240"
     transform="scale(0.74999966)" />
  <path
     style="fill:#3EE23E;stroke:#3EE23E;stroke-width:1.86395;stroke-linejoin:bevel;stroke-miterlimit:4;stroke-dasharray:none;paint-order:fill markers stroke;stroke-opacity:1"
     d="m 215.28667,531.22685 v -20.96948 h 171.94974 171.94974 v 20.96948 20.96948 H 387.23641 215.28667 Z"
     id="path2279"
     transform="scale(0.74999966)" />
  <path
     style="fill:#3EE23E;stroke:#3EE23E;stroke-width:1.86395;stroke-linejoin:bevel;stroke-miterlimit:4;stroke-dasharray:none;paint-order:fill markers stroke;stroke-opacity:1"
     d="M 146.32038,447.42171 C 117.77382,442.38782 85.121204,426.04808 56.384604,402.41681 43.114417,391.5042 27.305132,375.4021 28.594871,374.11236 c 1.184134,-1.18414 28.655279,-6.74397 43.633341,-8.83087 15.399531,-2.14562 48.020438,-1.40095 61.159508,1.39615 29.8358,6.35158 53.40366,18.96765 73.97715,39.60059 7.14929,7.16996 10.67121,11.3158 9.763,11.49258 -0.78138,0.15209 -16.92788,-4.18665 -35.88111,-9.64164 -46.61364,-13.41605 -46.69509,-13.43694 -52.38029,-13.43694 -4.04129,0 -5.42899,0.43072 -7.24795,2.24968 -4.14347,4.14348 -4.17763,9.96254 -0.0825,14.05767 2.4547,2.45469 19.82117,8.28479 65.52226,21.99647 17.43319,5.23048 28.58281,9.01014 27.82689,9.43317 -0.69371,0.38822 -5.60529,1.81265 -10.91463,3.16541 -8.71768,2.22117 -11.64068,2.48865 -30.15684,2.75962 -14.10715,0.20644 -22.68405,-0.0845 -27.49331,-0.93254 z"
     id="path2318"
     transform="scale(0.74999966)" />
  <path
     style="fill:#3EE23E;stroke:#3EE23E;stroke-width:1.86395;stroke-linejoin:bevel;stroke-miterlimit:4;stroke-dasharray:none;paint-order:fill markers stroke;stroke-opacity:1"
     d="m 225.53842,328.79126 c -6.15899,-1.08048 -21.15036,-5.21467 -27.79962,-7.66633 -37.08306,-13.67296 -67.40341,-43.12633 -89.10004,-86.55232 -7.84848,-15.7088 -18.236998,-42.4075 -18.236998,-46.86946 0,-2.41023 1.197316,-2.30134 16.175578,1.47108 29.87435,7.52414 55.69014,18.04638 73.29421,29.87394 29.0221,19.49895 47.24167,42.88351 56.88598,73.01233 3.63841,11.36641 4.36804,15.02817 2.99353,15.02355 -0.8981,-0.003 -23.80326,-20.16327 -45.89986,-40.39927 -9.48287,-8.68439 -18.49974,-16.56563 -20.0375,-17.51387 -4.11094,-2.53495 -10.24218,-2.29132 -13.05214,0.51864 -2.57142,2.57142 -3.70267,6.11796 -2.92404,9.16704 0.94428,3.69777 5.8754,8.70444 34.02646,34.54774 42.36787,38.89466 40.1031,36.51472 33.67444,35.38693 z"
     id="path2357"
     transform="scale(0.74999966)" />
  <path
     style="fill:#3EE23E;stroke:#3EE23E;stroke-width:1.86395;stroke-linejoin:bevel;stroke-miterlimit:4;stroke-dasharray:none;paint-order:fill markers stroke;stroke-opacity:1"
     d="m 338.90581,486.25896 c -0.31772,-1.9222 -0.58229,-65.20124 -0.58793,-140.62007 l -0.0103,-137.12515 -3.73059,-3.37037 c -4.89108,-4.4188 -8.83101,-4.55849 -13.47855,-0.47789 l -3.29435,2.89248 -0.0691,56.52105 c -0.038,31.08658 -0.35254,58.31682 -0.69898,60.51167 l -0.6299,3.9906 -5.12588,-2.54864 c -6.49916,-3.23146 -13.98716,-10.66003 -17.26442,-17.12739 l -2.54134,-5.01509 -0.11587,-48.96163 c -0.12841,-54.2615 -0.1695,-53.80129 5.95249,-66.67185 3.05135,-6.415 4.96124,-8.8298 13.6513,-17.26023 12.66682,-12.28839 36.80894,-33.78499 41.92424,-37.33014 l 3.86133,-2.67608 9.18634,2.50598 c 7.73261,2.1094 11.10366,2.51007 21.30205,2.53186 10.61817,0.0227 13.20035,-0.29754 20.89097,-2.59074 l 8.77527,-2.61662 4.42172,3.08995 c 6.10905,4.26907 32.0977,27.39489 42.30126,37.64149 13.06084,13.11592 17.40596,21.85761 19.2388,38.70543 0.66181,6.08341 0.87321,23.27563 0.59326,48.24714 -0.36014,32.12551 -0.69677,39.72219 -1.95781,44.18321 -2.07395,7.33674 -4.68962,12.20947 -9.15364,17.05236 -3.68227,3.99478 -13.38795,9.51724 -14.59948,8.30699 -0.33664,-0.33628 -0.737,-27.38704 -0.88969,-60.11279 l -0.2776,-59.50136 -3.68598,-3.33006 c -3.91311,-3.53526 -7.26182,-4.20622 -11.4558,-2.29532 -5.03839,2.29565 -4.78676,-4.98702 -5.05992,146.4506 l -0.25344,140.49552 H 417.16592 398.2075 l -0.59267,-4.32397 c -0.32596,-2.37819 -0.61766,-41.69597 -0.64822,-87.37284 -0.0306,-45.67687 -0.39555,-85.12067 -0.8111,-87.65289 -0.93964,-5.72579 -4.19701,-8.90964 -9.11537,-8.90964 -2.70676,0 -4.04602,0.72721 -6.93786,3.76716 l -3.5836,3.76714 v 90.36253 90.36251 h -18.5176 -18.5176 z"
     id="path2396"
     transform="scale(0.74999966)" />
  <path
     style="fill:#3EE23E;stroke:#3EE23E;stroke-width:1.86395;stroke-linejoin:bevel;stroke-miterlimit:4;stroke-dasharray:none;paint-order:fill markers stroke;stroke-opacity:1"
     d="m 375.22142,113.68066 c -13.45398,-3.69406 -25.38076,-13.18129 -31.03224,-24.684801 -3.80147,-7.737841 -4.90118,-12.635703 -4.91574,-21.89352 -0.0217,-13.809731 4.34194,-24.533575 13.88348,-34.119278 9.47242,-9.516253 19.78196,-13.877534 32.80481,-13.877534 22.4135,0 38.54496,11.018549 46.37039,31.673165 3.1677,8.360928 3.28122,23.762268 0.23708,32.167254 -4.18439,11.553269 -13.38522,22.010104 -24.10097,27.390994 -8.91465,4.47648 -23.70405,5.96388 -33.24681,3.34372 z"
     id="path2435"
     transform="scale(0.74999966)" />
  <path
     style="fill:#3EE23E;stroke:#3EE23E;stroke-width:1.86395;stroke-linejoin:bevel;stroke-miterlimit:4;stroke-dasharray:none;paint-order:fill markers stroke;stroke-opacity:1"
     d="m 545.80702,326.87018 c 6.63215,-5.34371 67.35635,-63.09854 68.40726,-65.06219 2.16339,-4.04232 0.82865,-10.4208 -2.75666,-13.17351 -0.8133,-0.62443 -3.15628,-1.14426 -5.20663,-1.15517 -5.07461,-0.027 -8.45578,2.62742 -43.40374,34.07467 -15.8909,14.29912 -29.29287,26.13695 -29.78216,26.30629 -2.60118,0.90023 5.96633,-25.14328 12.15979,-36.96334 6.41542,-12.24365 14.81487,-23.2319 25.80265,-33.75531 23.46737,-22.47555 53.36011,-37.53982 94.86998,-47.80915 13.60494,-3.36579 17.24158,-3.84593 17.24158,-2.27637 0,0.7098 -1.61889,6.09388 -3.59752,11.96463 -13.87057,41.15489 -34.32244,73.72073 -60.36864,96.12591 -20.12797,17.31428 -38.80779,26.66029 -62.96502,31.50307 -11.73904,2.35332 -13.08335,2.38181 -10.40089,0.22047 z"
     id="path2474"
     transform="scale(0.74999966)" />
  <path
     style="fill:#3EE23E;stroke:#3EE23E;stroke-width:1.86395;stroke-linejoin:bevel;stroke-miterlimit:4;stroke-dasharray:none;paint-order:fill markers stroke;stroke-opacity:1"
     d="m 571.57964,446.05047 c -16.04287,-4.21266 -15.36274,-3.87732 -10.99552,-5.42144 2.05035,-0.72495 18.61624,-5.72453 36.81309,-11.11018 43.78356,-12.95845 49.45911,-14.88999 53.4723,-18.198 3.01861,-2.4882 3.37829,-3.25627 3.37829,-7.21425 0,-6.0163 -2.74755,-8.6525 -9.5456,-9.15875 -5.32999,-0.39692 -11.77419,1.23865 -61.12457,15.51371 -14.52069,4.20024 -26.885,7.47556 -27.47624,7.27848 -0.59124,-0.19708 3.95001,-5.38992 10.09166,-11.53964 24.7979,-24.83047 50.72508,-36.9848 88.32665,-41.40641 14.6882,-1.72721 43.17179,-0.63866 58.90864,2.25129 20.37577,3.74184 32.1532,6.39668 32.1532,7.24789 0,0.42911 -4.06485,5.0152 -9.033,10.19131 -28.28395,29.46785 -70.22544,54.4174 -104.20631,61.98875 -4.45853,0.99342 -13.4438,1.58956 -28.42118,1.88566 -21.8987,0.43294 -21.90278,0.43265 -32.34141,-2.30842 z"
     id="path2513"
     transform="scale(0.74999966)" />
</svg>
