<!--?xml version="1.0" standalone="no"?-->
              <svg id="sw-js-blob-svg" viewBox="0 0 100 100" xmlns="http://www.w3.org/2000/svg" version="1.1">
                    <defs> 
                        <linearGradient id="sw-gradient" x1="0" x2="1" y1="1" y2="0">
                            <stop id="stop1" stop-color="rgba(7.589, 2.438, 0, 1)" offset="0%"></stop>
                            <stop id="stop2" stop-color="rgba(5.312, 3.308, 0, 1)" offset="100%"></stop>
                        </linearGradient>
                    </defs>
                <path fill="url(#sw-gradient)" d="M26.2,-34.1C33.9,-30.4,40.2,-22.8,40.8,-14.7C41.4,-6.7,36.4,1.8,32,8.9C27.6,16,23.8,21.8,18.6,27.7C13.4,33.7,6.7,39.7,-0.5,40.4C-7.7,41.1,-15.4,36.4,-20.9,30.6C-26.4,24.7,-29.7,17.7,-31.2,10.7C-32.6,3.7,-32.2,-3.3,-30.2,-9.8C-28.1,-16.3,-24.3,-22.3,-19,-26.7C-13.7,-31.1,-6.8,-34,1.2,-35.6C9.2,-37.3,18.5,-37.7,26.2,-34.1Z" width="100%" height="100%" transform="translate(50 50)" style="transition: all 0.3s ease 0s;" stroke-width="0" stroke="url(#sw-gradient)"></path>
              </svg>