<!--?xml version="1.0" standalone="no"?-->
              <svg id="sw-js-blob-svg" viewBox="0 0 100 100" xmlns="http://www.w3.org/2000/svg" version="1.1">
                    <defs> 
                        <linearGradient id="sw-gradient" x1="0" x2="1" y1="1" y2="0">
                            <stop id="stop1" stop-color="rgba(7.589, 2.438, 0, 1)" offset="0%"></stop>
                            <stop id="stop2" stop-color="rgba(5.312, 3.308, 0, 1)" offset="100%"></stop>
                        </linearGradient>
                    </defs>
                <path fill="url(#sw-gradient)" d="M21.6,-26.5C29.5,-24,38.5,-19.7,40.6,-13.2C42.7,-6.7,37.9,2,33,8.8C28.1,15.5,23.1,20.2,17.6,24.5C12.1,28.9,6,32.8,-1.8,35.4C-9.7,37.9,-19.5,39,-25.7,34.9C-31.9,30.8,-34.7,21.5,-36.5,12.7C-38.2,3.8,-39,-4.6,-37,-12.4C-35,-20.2,-30.2,-27.6,-23.5,-30.5C-16.9,-33.3,-8.4,-31.8,-0.8,-30.7C6.8,-29.6,13.7,-28.9,21.6,-26.5Z" width="100%" height="100%" transform="translate(50 50)" style="transition: all 0.3s ease 0s;" stroke-width="0" stroke="url(#sw-gradient)"></path>
              </svg>