<svg xmlns="http://www.w3.org/2000/svg" version="1.1" xmlns:xlink="http://www.w3.org/1999/xlink" xmlns:svgjs="http://svgjs.com/svgjs" width="1900" height="1000" preserveAspectRatio="none" viewBox="0 0 1900 1000"><g mask="url(&quot;#SvgjsMask2788&quot;)" fill="none"><rect width="1900" height="1000" x="0" y="0" fill="url(#SvgjsLinearGradient2789)"></rect><path d="M0 72.78C11.45 28.47 21.58 12.53 64.61 0C146.58 -23.86 157.31 0 250 0C343.75 0 365.33 -35.28 437.5 0C490.33 25.83 455.62 122.22 500 122.22C563.26 122.22 569.27 40.82 652.78 0C694.27 -20.29 701.39 0 750 0C875 0 875 0 1000 0C1125 0 1125 0 1250 0C1375 0 1375 0 1500 0C1572.11 0 1576.73 -16.88 1644.23 0C1701.73 14.37 1695.73 62.5 1750 62.5C1814.09 62.5 1812.29 17.17 1880.95 0C1937.29 -14.08 1980.8 -40.32 2000 0C2040.32 84.68 2000 125 2000 250C2000 291.66 2030.16 313.81 2000 333.33C1905.16 394.69 1859.02 352.03 1750 411.76C1706.91 435.37 1695.78 454.36 1695.78 500C1695.78 556.17 1709.98 567.43 1750 615.38C1814.3 692.43 1821.47 691.86 1904.41 750C1946.47 779.48 1984.15 749.18 2000 790.63C2031.95 874.18 2056.97 952.29 2000 1000C1931.97 1056.97 1875 1000 1750 1000C1625 1000 1625 1000 1500 1000C1383.62 1000 1379.87 1008.5 1267.24 1000C1254.87 999.07 1258.83 981.13 1250 981.13C1240.78 981.13 1244.07 999.02 1231.13 1000C1119.07 1008.46 1115.57 1000 1000 1000C875 1000 875 1000 750 1000C625 1000 625 1000 500 1000C375 1000 375 1000 250 1000C125 1000 62.5 1062.5 0 1000C-62.5 937.5 0 875 0 750C0 625 0 625 0 500C0 375 0 375 0 250C0 161.39 -20.85 153.47 0 72.78" stroke="rgba(186, 187, 191, 1)" stroke-width="2"></path><path d="M500 571.43C444.09 571.43 421.88 663.58 421.88 750C421.88 815.36 448.22 875 500 875C576.57 875 678.57 820.32 678.57 750C678.57 668.53 572.44 571.43 500 571.43" stroke="rgba(186, 187, 191, 1)" stroke-width="2"></path><path d="M0 151.9C45.46 67.61 55.06 48.47 134.83 0C180.06 -27.48 192.42 0 250 0C308.24 0 366.48 -32.59 366.48 0C366.48 62.31 316.65 102.26 250 189.81C221.48 227.26 176.14 218.03 176.14 250C176.14 285.05 214.75 285.35 250 323.86C329.18 410.35 395.4 401.81 405 500C416.23 614.88 280.4 629.91 291.67 750C303.86 879.91 464.32 925.59 451.92 1000C443.49 1050.59 350.96 1000 250 1000C125 1000 68.18 1056.82 0 1000C-56.82 952.65 -11.2 892.44 0 791.67C2.69 767.44 27.78 766.84 27.78 750C27.78 739.76 1.58 751.71 0 737.5C-12.31 626.71 0 618.75 0 500C0 375 0 375 0 250C0 200.95 -21.96 192.61 0 151.9" stroke="rgba(186, 187, 191, 1)" stroke-width="2"></path><path d="M510.2 250C510.2 142.42 617.91 75.93 750 47.41C862.81 23.05 885.82 79.21 1000 144.23C1063.71 180.51 1049.31 201.2 1105.77 250C1174.31 309.23 1186.81 360.29 1250 360.29C1296.42 360.29 1325 308.27 1325 250C1325 171.6 1298.05 161.13 1250 86.96C1217.07 36.13 1163.04 25.47 1163.04 0C1163.04 -18.01 1206.52 0 1250 0C1305.55 0 1307.84 -11.84 1361.11 0C1432.84 15.94 1433.99 20.84 1500 55.56C1628.43 123.11 1626.53 127.73 1750 204.55C1782.78 224.95 1812.5 228.34 1812.5 250C1812.5 270.68 1772.06 260.5 1750 289.22C1676.05 385.5 1626.6 389.99 1620.48 500C1613.78 620.38 1669.51 626.49 1724.36 750C1734.27 772.32 1728.29 782.32 1750 791.67C1866.11 841.69 1916.76 799.39 2000 868.75C2041.76 903.55 2043.03 977.41 2000 1000C1918.03 1043.03 1875 1000 1750 1000C1625 1000 1625 1000 1500 1000C1437.5 1000 1425.35 1027.55 1375 1000C1300.35 959.16 1314.04 863.21 1250 863.21C1183.14 863.21 1192.06 956.85 1113.21 1000C1067.06 1025.25 1056.61 1000 1000 1000C880 1000 787.34 1057.9 760 1000C728.31 932.9 884.42 873.99 881.94 750C879.42 623.99 815.97 625 750 500C750 500 750 500 750 500C630.1 375 510.2 368.72 510.2 250" stroke="rgba(186, 187, 191, 1)" stroke-width="2"></path><path d="M0 231.01C11.47 231.01 34.09 233.34 34.09 250C34.09 305.33 8.68 375 0 375C-8.37 375 0 312.5 0 250C0 240.5 -5.58 231.01 0 231.01" stroke="rgba(186, 187, 191, 1)" stroke-width="2"></path><path d="M250 74.07C227.44 74.07 205.06 24.39 205.06 0C205.06 -12.65 227.53 0 250 0C272.73 0 295.45 -12.72 295.45 0C295.45 24.32 272.63 74.07 250 74.07" stroke="rgba(186, 187, 191, 1)" stroke-width="2"></path><path d="M637.76 250C637.76 199.64 690.41 155.17 750 155.17C822.92 155.17 902.78 198.83 902.78 250C902.78 304.76 821.92 367.02 750 367.02C689.41 367.02 637.76 305.57 637.76 250" stroke="rgba(186, 187, 191, 1)" stroke-width="2"></path><path d="M1450 250C1468.75 217.91 1470.84 194.44 1500 194.44C1542.13 194.44 1585.86 204.48 1592.59 250C1608.45 357.26 1552.36 374.07 1545.18 500C1538.11 624.07 1547.74 625.91 1564.1 750C1580.7 875.91 1633.42 913 1611.11 1000C1601.37 1038 1555.55 1000 1500 1000C1491.38 1000 1488.46 1006.27 1482.76 1000C1374.82 881.27 1318.05 890.45 1272.73 750C1237.38 640.45 1279.3 618.84 1321.43 500C1367.93 368.84 1379.47 370.69 1450 250" stroke="rgba(186, 187, 191, 1)" stroke-width="2"></path><path d="M125 500C125 476.22 192.61 465.91 250 465.91C270.11 465.91 280 480.76 280 500C280 530.42 276.15 565.22 250 565.22C198.65 565.22 125 525.88 125 500" stroke="rgba(186, 187, 191, 1)" stroke-width="2"></path><path d="M918.92 500C918.92 439.94 949.18 384.62 1000 384.62C1073.05 384.62 1166.67 437 1166.67 500C1166.67 569.69 1070.37 650 1000 650C946.49 650 918.92 572.63 918.92 500" stroke="rgba(186, 187, 191, 1)" stroke-width="2"></path><path d="M135.14 1000C135.14 962.72 197.71 875 250 875C296 875 331.73 959.61 331.73 1000C331.73 1022.11 290.87 1000 250 1000C192.57 1000 135.14 1025.22 135.14 1000" stroke="rgba(186, 187, 191, 1)" stroke-width="2"></path><path d="M1806.82 1000C1806.82 986.48 1923.65 946.88 2000 946.88C2020.24 946.88 2020.83 994.27 2000 1000C1924.24 1020.83 1806.82 1013.04 1806.82 1000" stroke="rgba(186, 187, 191, 1)" stroke-width="2"></path></g><defs><mask id="SvgjsMask2788"><rect width="1900" height="1000" fill="#ffffff"></rect></mask><linearGradient x1="11.84%" y1="-22.5%" x2="88.16%" y2="122.5%" gradientUnits="userSpaceOnUse" id="SvgjsLinearGradient2789"><stop stop-color="rgba(144, 142, 140, 1)" offset="0.15"></stop><stop stop-color="rgba(230, 230, 230, 1)" offset="0.64"></stop></linearGradient></defs></svg>