<svg xmlns="http://www.w3.org/2000/svg" 
version="1.1" xmlns:xlink="http://www.w3.org/1999/xlink" 
xmlns:svgjs="http://svgjs.com/svgjs" 
width="1440" height="560" 
preserveAspectRatio="none" viewBox="0 0 1440 560">
<g mask="url(&quot;#SvgjsMask1084&quot;)" fill="none">
<rect width="1440" height="560" x="0" y="0" fill="rgba(35, 34, 30, 1)"></rect>
<path d="M280 0C305.22 35.73 238.82 77.78 238.82 140C238.82 160.75 258.48 165.93 280 165.93C308.23 165.93 338.33 164.58 338.33 140C338.33 81.61 258.77 36.4 280 0C299.6 -33.6 350 0 420 0C490 0 490 0 560 0C630 0 630 0 700 0C770 0 770 0 840 0C894.71 0 899.25 -10.96 949.43 0C969.25 4.33 963.73 30.57 980 30.57C998.86 30.57 996.38 5.09 1019.7 0C1066.38 -10.19 1069.85 0 1120 0C1190 0 1190 0 1260 0C1330 0 1330 0 1400 0C1432.31 0 1434.12 -7.91 1464.62 0C1504.12 10.24 1523.17 5.04 1540 36.3C1560.86 75.04 1540 88.15 1540 140C1540 210 1540 210 1540 280C1540 350 1540 350 1540 420C1540 490 1575 525 1540 560C1505 595 1470 560 1400 560C1330 560 1330 560 1260 560C1190 560 1190 560 1120 560C1061.2 560 1059.56 565.72 1002.4 560C989.56 558.72 990.96 546 980 546C970.1 546 972.24 558.84 960.69 560C902.24 565.84 900.35 560 840 560C770 560 770 560 700 560C630 560 630 560 560 560C490 560 490 560 420 560C350 560 350 560 280 560C210 560 210 560 140 560C70 560 35 595 0 560C-35 525 0 490 0 420C0 350 0 350 0 280C0 210 0 210 0 140C0 70 -35 35 0 0C35 -35 70 0 140 0C210 0 255.81 -34.27 280 0" stroke="#4a4945" stroke-width="1"></path>
<path d="M1260 104.26C1231.68 104.26 1209.85 115.32 1209.85 140C1209.85 189.19 1221.96 252 1260 252C1314.23 252 1394.4 181.16 1394.4 140C1394.4 107.29 1323.95 104.26 1260 104.26" stroke="#4a4945" stroke-width="1"></path>
<path d="M980 256.1C951.11 256.1 916.77 264.98 916.77 280C916.77 296.53 953.28 319.2 980 319.2C996.29 319.2 1002.79 298.25 1002.79 280C1002.79 266.7 994.12 256.1 980 256.1" stroke="#4a4945" stroke-width="1"></path>
<path d="M280 400C262.78 400 245 407 245 420C245 437.27 263.13 460.53 280 460.53C296.03 460.53 310.8 437.58 310.8 420C310.8 407.32 295.68 400 280 400" stroke="#4a4945" stroke-width="1"></path>
<path d="M700 370C662.75 371.41 633.96 396.75 633.96 420C633.96 441.64 664.1 458.83 700 459.77C767.12 461.52 771.25 444.4 840 425.38C843.14 424.51 843.78 422.84 843.78 420C843.78 416.26 844.01 413.62 840 412.22C772.12 388.62 765.77 367.52 700 370" stroke="#4a4945" stroke-width="1"></path>
<path d="M1260 340C1229.15 340 1173.85 382.65 1173.85 420C1173.85 453.76 1227.47 482.22 1260 482.22C1279.88 482.22 1278.67 451.4 1278.67 420C1278.67 380.29 1281.56 340 1260 340" stroke="#4a4945" stroke-width="1"></path>
<path d="M106.4 0C136.53 15.72 123.33 36.46 140 73.04C155.23 106.46 144.9 115.4 170.2 140C214.9 183.45 222.11 205.72 280 209.14C347.01 213.09 350.72 183.48 420 154.74C434.06 148.91 443.48 153.81 446.67 140C461.38 76.44 423.29 40.17 455.81 0C479.96 -29.83 507.9 0 560 0C625.88 0 626.78 -2.77 691.76 0C696.78 0.21 696.09 5.96 700 5.96C703.32 5.96 701.99 0.18 706.22 0C771.99 -2.8 773.11 0 840 0C874.6 0 880.59 -14.47 909.2 0C950.59 20.93 942.31 70.8 980 70.8C1023.68 70.8 1022.44 25.03 1071.94 0C1092.44 -10.37 1095.97 0 1120 0C1190 0 1190 0 1260 0C1320.57 0 1381.15 -15.64 1381.15 0C1381.15 17.87 1318.57 30.34 1260 67.02C1206.8 100.34 1166.69 91.99 1157.61 140C1146.54 198.48 1229.53 217.76 1219.7 280C1210.72 336.87 1166.63 378.21 1120 378.21C1078.52 378.21 1083.74 327.38 1043.49 280C1013.74 244.98 1019.49 218.98 980 213.41C917.75 204.62 907.19 226.42 840 251.28C817.19 259.72 821.96 269.22 800 280C751.96 303.58 749.64 320 700 320C654.48 320 649.67 307.14 609.68 280C579.67 259.64 582.39 225 560 225C540.44 225 525.78 250.31 525.78 280C525.78 332.81 543.4 334.85 560 390C564.47 404.85 567.92 405.39 567.92 420C567.92 428.47 563.71 427.96 560 436.15C531.99 497.96 547.63 521.83 504.48 560C477.63 583.76 462.24 560 420 560C350 560 350 560 280 560C210 560 210 560 140 560C70 560 35 595 0 560C-35 525 0 490 0 420C0 350 0 350 0 280C0 210 0 210 0 140C0 70 -30.23 39.77 0 0C22.97 -30.23 66.53 -20.8 106.4 0" stroke="#4a4945" stroke-width="1"></path>
<path d="M1456.95 140C1482.55 98.56 1513.86 79.51 1540 79.51C1555.39 79.51 1540 109.75 1540 140C1540 210 1540 210 1540 280C1540 350 1540 350 1540 420C1540 463.08 1560.73 475.05 1540 506.15C1514.07 545.05 1495.51 541.21 1446.67 560C1425.51 568.14 1423.34 560 1400 560C1382.5 560 1371.2 573.78 1365 560C1339.7 503.78 1328.19 486.95 1337 420C1345.69 353.95 1365.64 354.78 1400 294C1405.21 284.78 1412.51 289.84 1416.15 280C1440.98 212.84 1420.62 198.81 1456.95 140" stroke="#4a4945" stroke-width="1"></path>
<path d="M140 221.05C128.29 221.05 116.17 250.19 116.17 280C116.17 314.67 128.3 350 140 350C151.65 350 162.86 314.69 162.86 280C162.86 250.21 151.64 221.05 140 221.05" stroke="#4a4945" stroke-width="1"></path>
<path d="M280 354.55C223.65 354.55 165.45 377.46 165.45 420C165.45 476.5 224.8 552.63 280 552.63C332.47 552.63 380.8 477.53 380.8 420C380.8 378.49 331.33 354.55 280 354.55" stroke="#4a4945" stroke-width="1"></path>
<path d="M938.38 420C938.38 403.46 958.56 389.2 980 389.2C1004.21 389.2 1029.68 403.3 1029.68 420C1029.68 437.95 1004 458.5 980 458.5C958.35 458.5 938.38 438.11 938.38 420" stroke="#4a4945" stroke-width="1"></path>
<path d="M612.79 560C612.79 543.41 653.39 499.55 700 499.55C766.99 499.55 840 544.24 840 560C840 574.47 770 560 700 560C656.39 560 612.79 573.63 612.79 560" stroke="#4a4945" stroke-width="1"></path>
<path d="M36.4 0C69.42 56.13 81.02 69.63 82.35 140C83.67 209.63 69.37 213.59 41.7 280C28.2 312.41 11.52 337.65 0 337.65C-9.33 337.65 0 308.83 0 280C0 210 0 210 0 140C0 70 -14.44 55.56 0 0C3.76 -14.44 28.24 -13.87 36.4 0" stroke="#4a4945" stroke-width="1"></path>
<path d="M560 65.33C547.3 65.33 537.21 24.57 537.21 0C537.21 -8.09 548.61 0 560 0C574.41 0 588.82 -9.39 588.82 0C588.82 23.27 573.11 65.33 560 65.33" stroke="#4a4945" stroke-width="1"></path>
<path d="M600 140C600 102.54 653.98 115.45 700 80.43C745.98 45.45 736.75 27.14 784 0C806.75 -13.07 812 0 840 0C854.49 0 858.07 -8.65 868.97 0C928.07 46.87 916.5 69.06 980 111.03C1022.41 139.06 1080.8 125.11 1080.8 140C1080.8 154.96 1031.64 166.11 980 170.73C911.24 176.88 903.98 142.97 840 161.54C763.98 183.6 763.13 257.67 700 252C643.13 246.9 600 188.32 600 140" stroke="#4a4945" stroke-width="1"></path>
<path d="M1260 29.79C1198.43 29.79 1132.73 7.55 1132.73 0C1132.73 -7.35 1196.36 0 1260 0C1286.93 0 1313.85 -6.95 1313.85 0C1313.85 7.94 1288.99 29.79 1260 29.79" stroke="#4a4945" stroke-width="1"></path>
<path d="M1516.27 140C1516.27 126.75 1532.53 122.72 1540 122.72C1544.4 122.72 1540 131.36 1540 140C1540 198.34 1545.87 256.67 1540 256.67C1534.01 256.67 1516.27 193.73 1516.27 140" stroke="#4a4945" stroke-width="1"></path>
<path d="M234.29 280C234.29 265.92 254.37 256.93 280 252.35C347.22 240.35 355.87 236.28 420 246.84C439.87 250.11 448 261.43 448 280C448 309.51 447.19 338.29 420 343C363.19 352.84 347.48 331.98 280 309.09C254.62 300.48 234.29 294.29 234.29 280" stroke="#4a4945" stroke-width="1"></path>
<path d="M1084.19 280C1084.19 229.94 1099.74 173.79 1120 173.79C1140.98 173.79 1166.67 231.37 1166.67 280C1166.67 307.46 1141.83 325.97 1120 325.97C1100.59 325.97 1084.19 306.03 1084.19 280" stroke="#4a4945" stroke-width="1"></path>
<path d="M1395.33 420C1395.33 415.2 1395.81 410.67 1400 410.67C1410.87 410.67 1425.45 414.62 1425.45 420C1425.45 425.65 1410.2 432.73 1400 432.73C1395.14 432.73 1395.33 426.23 1395.33 420" stroke="#4a4945" stroke-width="1"></path>
<path d="M81.95 560C81.95 538.64 110.76 490 140 490C169.54 490 199.5 538.76 199.5 560C199.5 573.76 169.75 560 140 560C110.97 560 81.95 573.64 81.95 560" stroke="#4a4945" stroke-width="1"></path>
<path d="M377.58 560C377.58 538.31 402.46 493.33 420 493.33C435.74 493.33 444.14 535.13 444.14 560C444.14 568.47 432.07 560 420 560C398.79 560 377.58 571.64 377.58 560" stroke="#4a4945" stroke-width="1"></path>
<path d="M670.16 560C670.16 554.32 684.05 539.32 700 539.32C722.92 539.32 747.89 554.61 747.89 560C747.89 564.95 723.95 560 700 560C685.08 560 670.16 564.66 670.16 560" stroke="#4a4945" stroke-width="1"></path></g><defs><mask id="SvgjsMask1084"><rect width="1440" height="560" fill="#ffffff"></rect></mask>
</defs>
</svg>