<svg xmlns="http://www.w3.org/2000/svg" version="1.1" xmlns:xlink="http://www.w3.org/1999/xlink" xmlns:svgjs="http://svgjs.com/svgjs" width="1900" height="1000" preserveAspectRatio="none" viewBox="0 0 1900 1000"><g mask="url(&quot;#SvgjsMask2799&quot;)" fill="none"><rect width="1900" height="1000" x="0" y="0" fill="rgba(255, 255, 255, 1)"></rect><path d="M0 0C64.36 -41.48 139.67 88.89 250 88.89C294.52 88.89 264.69 16 309.7 0C389.69 -28.44 404.85 0 500 0C625 0 625 0 750 0C875 0 875 0 1000 0C1073.17 0 1146.34 -33.74 1146.34 0C1146.34 51.97 1093.5 122.92 1000 171.43C895.33 225.74 866.02 173.41 750 205.65C724.65 212.69 717.26 228.59 717.26 250C717.26 269.1 726.77 283.62 750 286.67C868.14 302.2 896.29 237.93 1000 287.16C1120.98 344.59 1199.37 397.61 1199.37 500C1199.37 594.55 1114.46 617.35 1000 681.03C889.77 742.35 867.94 768.58 750 750C617.94 729.2 610.48 602.27 500 602.27C429.45 602.27 411.35 665.31 387.93 750C356.35 864.18 434.21 919.87 390 1000C365.24 1044.87 320 1000 250 1000C125 1000 62.5 1062.5 0 1000C-62.5 937.5 0 875 0 750C0 625 0 625 0 500C0 375 0 375 0 250C0 125 -60.64 39.08 0 0" stroke="rgba(208, 208, 213, 1)" stroke-width="2"></path><path d="M1305.56 250C1311.92 124.66 1273.49 74.88 1331.73 0C1370.71 -50.12 1415.86 0 1500 0C1585.78 0 1600.75 -29.82 1671.57 0C1725.75 22.81 1698.69 66.21 1750 105.26C1862.91 191.21 1875 177.63 2000 250C2000 250 2000 250 2000 250C2000 375 2000 375 2000 500C2000 625 2000 625 2000 750C2000 775 2002.21 775.12 2000 800C1991.1 900.12 2036.41 953.09 1977.78 1000C1911.41 1053.09 1863.89 1000 1750 1000C1625 1000 1625 1000 1500 1000C1375 1000 1375 1000 1250 1000C1125 1000 1125 1000 1000 1000C979.16 1000 958.33 1008.84 958.33 1000C958.33 987.29 971.81 962.08 1000 956.9C1117.65 935.29 1128.07 968.75 1250 946.43C1378.07 922.99 1400.57 932.34 1500 865.38C1546.41 834.12 1541.67 803.44 1541.67 750C1541.67 723.36 1520.96 727.49 1500 705.22C1403.3 602.49 1357.89 620.68 1306.34 500C1260.67 393.07 1299.23 374.66 1305.56 250" stroke="rgba(208, 208, 213, 1)" stroke-width="2"></path><path d="M0 94.7C80.73 87.52 147.66 251.83 250 227.78C349.15 204.48 310.64 84.14 402.99 0C435.64 -29.75 451.5 0 500 0C625 0 625 0 750 0C870.37 0 990.74 -25.07 990.74 0C990.74 27.35 853.1 30.75 750 104.84C679.16 155.75 642.86 179.91 642.86 250C642.86 312.49 680.08 346.19 750 370C858.65 407 891.33 333.47 1000 371.62C1076.46 398.47 1120.25 438.24 1120.25 500C1120.25 557.03 1072.26 579.47 1000 609.2C887.14 655.64 861.19 680.76 750 652.34C647.56 626.16 661.37 576.17 572.73 500C536.37 468.75 536.8 437.5 500 437.5C461.97 437.5 457.15 464.22 423.08 500C332.15 595.47 339.27 602.69 250 700C224.6 727.69 199.14 715.31 193.75 750C175.83 865.31 256.82 931.05 203.39 1000C159.95 1056.05 45.62 1056.07 0 1000C-56.07 931.07 0 875 0 750C0 653.13 -18.01 646.28 0 556.25C6.99 521.28 50 526.73 50 500C50 476.11 6.18 485.88 0 455C-18.82 360.88 0 352.5 0 250C0 172.35 -44.27 98.63 0 94.7" stroke="rgba(175, 175, 179, 1)" stroke-width="2"></path><path d="M1500 89.29C1475.78 89.29 1451.92 30.29 1451.92 0C1451.92 -14.36 1475.96 0 1500 0C1524.51 0 1549.02 -14.5 1549.02 0C1549.02 30.14 1524.33 89.29 1500 89.29" stroke="rgba(175, 175, 179, 1)" stroke-width="2"></path><path d="M1394.37 500C1394.37 426.16 1425.51 392.62 1500 343.75C1603.32 275.96 1625.77 264.08 1750 266.67C1875.77 269.29 1919.38 278.93 2000 354.17C2044.38 395.59 2000 427.09 2000 500C2000 574.15 2025.81 584.85 2000 648.31C1974.97 709.85 1927.22 686.9 1898.31 750C1846.66 862.75 1893.99 907.13 1838.89 1000C1819.83 1032.13 1794.45 1000 1750 1000C1675.93 1000 1624.38 1046.35 1601.85 1000C1563.62 921.35 1657.57 860.87 1628.47 750C1606.64 666.84 1564.45 680.77 1500 611.94C1447.4 555.77 1394.37 560.26 1394.37 500" stroke="rgba(208, 208, 213, 1)" stroke-width="2"></path><path d="M0 189.39C36.3 189.39 108.11 216.28 108.11 250C108.11 286.59 33.89 330 0 330C-20.16 330 0 290 0 250C0 219.69 -17.75 189.39 0 189.39" stroke="rgba(175, 175, 179, 1)" stroke-width="2"></path><path d="M369.32 250C368.13 141.47 431.79 123.36 496.27 0C497.13 -1.64 498.13 0 500 0C625 0 625 0 750 0C754.63 0 759.26 -0.96 759.26 0C759.26 1.05 753.05 0.03 750 4.03C657.65 125.03 659.73 127.39 568.45 250C534.73 295.3 541.42 339.84 500 339.84C441.85 339.84 369.99 311.39 369.32 250" stroke="rgba(208, 208, 213, 1)" stroke-width="2"></path><path d="M188.89 500C188.89 459.59 220.87 414.06 250 414.06C277.87 414.06 302.88 459.17 302.88 500C302.88 532.7 277.54 561.11 250 561.11C220.55 561.11 188.89 533.12 188.89 500" stroke="rgba(208, 208, 213, 1)" stroke-width="2"></path><path d="M686.36 500C686.36 475.44 712.38 458.6 750 453.33C869.2 436.64 882.67 437.27 1000 456.08C1028.24 460.61 1041.14 478.87 1041.14 500C1041.14 519.51 1026.42 532.4 1000 537.36C880.85 559.74 867.48 568.68 750 554.69C710.66 550 686.36 526.12 686.36 500" stroke="rgba(208, 208, 213, 1)" stroke-width="2"></path><path d="M1482.39 500C1482.39 487.69 1485.53 479.07 1500 473.96C1619.33 431.85 1624.11 409.5 1750 405.56C1874.11 401.68 1892.53 417.73 2000 458.33C2017.53 464.95 2000 479.17 2000 500C2000 521.18 2013.09 526.61 2000 542.37C1909.28 651.61 1877.36 634.68 1792.37 750C1752.36 804.29 1769.42 881.58 1750 881.58C1730.88 881.58 1752.91 804.62 1715.28 750C1627.91 623.16 1607.7 634.27 1500 518.66C1491.26 509.27 1482.39 510.04 1482.39 500" stroke="rgba(175, 175, 179, 1)" stroke-width="2"></path><path d="M0 712.5C10.98 712.5 29.17 725.42 37.5 750C77.9 869.17 111.06 909.36 97.46 1000C92.31 1034.36 13.67 1035.06 0 1000C-35.06 910.06 0 875 0 750C0 731.25 -7.77 712.5 0 712.5" stroke="rgba(175, 175, 179, 1)" stroke-width="2"></path></g><defs><mask id="SvgjsMask2799"><rect width="1900" height="1000" fill="#ffffff"></rect></mask></defs></svg>