<?xml version="1.0" encoding="UTF-8" standalone="no"?>
<!DOCTYPE svg PUBLIC "-//W3C//DTD SVG 20010904//EN"
              "http://www.w3.org/TR/2001/REC-SVG-20010904/DTD/svg10.dtd">

<svg xmlns="http://www.w3.org/2000/svg"
     width="5.73383in" height="5.73383in"
     viewBox="0 0 516 516">
  <path id="Selection"
        fill="#F8AD1D" stroke="black" stroke-width="1"
        d="M 121.00,477.58
           C 66.92,443.91 27.05,391.23 9.58,330.00
             4.79,313.23 0.03,289.35 0.00,272.00
             0.00,272.00 0.00,243.00 0.00,243.00
             0.04,215.53 10.76,177.11 21.86,152.00
             51.33,85.33 108.15,35.28 177.00,12.33
             193.90,6.70 223.36,0.21 241.00,0.00
             267.98,-0.31 287.24,-0.49 314.00,5.42
             386.46,21.43 446.76,66.65 483.57,131.00
             527.36,207.54 526.99,307.20 484.14,384.00
             461.60,424.39 429.60,456.84 390.00,480.60
             371.73,491.56 344.79,503.30 324.00,508.00
             324.00,508.00 321.09,472.00 321.09,472.00
             321.09,472.00 318.90,446.00 318.90,446.00
             318.90,446.00 318.90,438.00 318.90,438.00
             318.90,438.00 313.00,395.00 313.00,395.00
             313.00,395.00 312.00,380.00 312.00,380.00
             312.00,380.00 311.00,336.00 311.00,336.00
             311.00,336.00 310.01,322.00 310.01,322.00
             309.97,319.91 309.92,316.97 310.56,315.00
             311.51,312.07 315.10,307.72 316.98,305.00
             316.98,305.00 327.58,288.00 327.58,288.00
             330.31,283.16 333.31,275.89 337.18,272.15
             340.79,268.66 343.36,269.01 348.00,269.00
             348.00,269.00 371.00,268.00 371.00,268.00
             371.00,268.00 381.00,267.00 381.00,267.00
             381.00,267.00 390.00,267.00 390.00,267.00
             390.00,267.00 420.00,264.17 420.00,264.17
             424.87,263.68 435.96,263.32 439.61,260.28
             445.59,255.30 444.04,238.91 448.65,234.74
             451.24,232.39 454.85,233.47 462.00,230.21
             470.13,226.50 480.82,219.46 486.91,212.99
             494.17,205.27 494.40,200.79 483.00,199.09
             483.00,199.09 476.00,199.09 476.00,199.09
             476.00,199.09 470.00,199.09 470.00,199.09
             467.16,198.96 463.89,199.09 461.98,196.57
             460.52,194.64 459.72,186.50 454.01,188.40
             450.99,189.40 448.32,193.84 444.96,196.45
             440.95,199.56 432.97,202.15 428.00,203.57
             419.34,206.05 402.74,209.89 394.00,210.00
             373.45,210.24 361.15,201.86 343.00,195.48
             343.00,195.48 332.00,193.55 332.00,193.55
             332.00,193.55 317.00,187.20 317.00,187.20
             310.89,184.80 304.46,183.20 298.00,182.08
             294.71,181.51 287.88,180.39 285.42,178.28
             281.99,175.35 280.44,164.57 279.61,160.00
             276.45,142.44 274.85,129.88 267.57,113.00
             263.78,104.20 259.53,97.37 249.00,98.09
             244.47,98.40 237.58,99.92 234.34,103.22
             230.68,106.96 229.37,113.06 228.13,118.00
             225.67,127.77 222.30,144.13 222.01,154.00
             221.81,160.88 220.51,174.96 214.79,179.42
             212.67,181.06 208.19,181.78 205.00,183.38
             205.00,183.38 192.00,191.20 192.00,191.20
             186.55,193.71 183.97,192.94 178.00,196.47
             178.00,196.47 162.00,208.27 162.00,208.27
             162.00,208.27 140.00,222.69 140.00,222.69
             134.26,226.35 129.75,230.71 123.00,232.18
             111.74,234.63 87.42,233.98 75.00,234.00
             75.00,234.00 57.00,235.32 57.00,235.32
             53.09,235.98 50.15,237.72 46.00,237.87
             37.43,238.19 33.81,234.88 22.00,237.00
             25.58,244.55 34.06,248.75 42.00,250.48
             46.08,251.38 51.30,250.99 54.77,253.72
             59.54,257.47 57.93,268.38 58.00,274.00
             58.19,287.58 69.46,287.12 80.00,287.00
             80.00,287.00 102.00,285.17 102.00,285.17
             102.00,285.17 152.00,282.00 152.00,282.00
             154.45,282.00 158.52,281.76 160.57,283.17
             164.90,286.15 160.95,292.09 165.85,298.91
             168.26,302.26 171.16,303.37 173.35,306.18
             176.24,309.89 175.99,313.59 176.00,318.00
             176.00,318.00 173.09,356.00 173.09,356.00
             173.55,363.40 176.69,366.65 178.21,372.00
             178.21,372.00 179.83,385.00 179.83,385.00
             179.83,385.00 179.00,404.00 179.00,404.00
             179.00,404.00 179.00,426.00 179.00,426.00
             179.00,426.00 180.00,440.00 180.00,440.00
             180.00,440.00 182.04,471.00 182.04,471.00
             182.04,471.00 182.04,480.00 182.04,480.00
             182.04,480.00 184.00,506.00 184.00,506.00
             160.20,498.07 142.51,490.97 121.00,477.58 Z" />
</svg>
