<?xml version="1.0" encoding="UTF-8" standalone="no"?>
<svg
   width="13.651029in"
   height="6.2715611in"
   viewBox="0 0 983.00002 451.6089"
   version="1.1"
   id="svg3"
   sodipodi:docname="logo.svg"
   inkscape:version="1.1.2 (08b2f3d93c, 2022-04-05)"
   xmlns:inkscape="http://www.inkscape.org/namespaces/inkscape"
   xmlns:sodipodi="http://sodipodi.sourceforge.net/DTD/sodipodi-0.dtd"
   xmlns="http://www.w3.org/2000/svg"
   xmlns:svg="http://www.w3.org/2000/svg">
  <defs
     id="defs7">
    <linearGradient
       id="linearGradient2160"
       inkscape:swatch="solid">
      <stop
         style="stop-color:#f81d33;stop-opacity:1;"
         offset="0"
         id="stop2158" />
    </linearGradient>
  </defs>
  <sodipodi:namedview
     id="namedview5"
     pagecolor="#ffffff"
     bordercolor="#666666"
     borderopacity="1.0"
     inkscape:pageshadow="2"
     inkscape:pageopacity="0.0"
     inkscape:pagecheckerboard="0"
     inkscape:document-units="in"
     showgrid="false"
     inkscape:zoom="0.57875767"
     inkscape:cx="171.91997"
     inkscape:cy="231.53041"
     inkscape:window-width="1366"
     inkscape:window-height="720"
     inkscape:window-x="0"
     inkscape:window-y="23"
     inkscape:window-maximized="1"
     inkscape:current-layer="svg3"
     fit-margin-top="0"
     fit-margin-left="0"
     fit-margin-right="0"
     fit-margin-bottom="0" />
  <path
     id="Selection"
     fill="none"
     stroke="#000000"
     stroke-width="1"
     d="m 844.64,42.116707 c -1.25,3.71 -6.56,14.07 -11.46,12.66 -3.89,-1.11 -6.39,-10.09 -7.17,-13.66 -2.75,-12.75 1.59,-34.6 13.99,-40.99999996 7.12,12.55999996 9.32,28.14999996 4.64,41.99999996 z m -41.42,-23 c 6.55,13.93 7.27,28.81 -1.22,42 -14.37,-7.74 -18.52,-28.06 -15.33,-43 1.12,-5.27 2.71,-8.38 5.33,-13 5.88,2.92 8.52,8.26 11.22,14 z m 91.78,-12 c 0,0 0,11 0,11 -0.08,16.69 -9.05,35.17 -26,40 -7.77,-18.68 5.89,-47.18 26,-51 z m -111,59 c -3.01,0 -6.04,0.12 -9,-0.52 -12.65,-2.7 -24.69,-13.63 -29.53,-25.48 -1.55,-3.81 -2.69,-9.86 -3.47,-14 20.5,1.72 41.8,18.39 42,40 z m 150,-14.9 c 0,0 10,0.9 10,0.9 -1.25,6.16 -4.76,10.53 -9.04,15 -10.91,11.41 -24.06,17.87 -39.96,14 2.79,-17.77 22.06,-29.14 39,-29.9 z m -204,3.12 c 16.19,2.77 35.38,13.94 37,31.78 -22.28,3.99 -42.2,-10.51 -48,-31.78 3.67,-0.22 7.36,-0.36 11,0 z M 842.26,152.0967 c -1.89,2.98 -5.09,5.22 -8.26,6.67 -11.41,5.2 -22.99,0.95 -30.47,-8.65 -10.42,-13.39 -11.09,-39.57 5.47,-48.59 6.54,-3.549993 23.23,-3.419993 31,-3.409993 8.96,0.01 16.84,1.68 23.96,7.519993 16.8,13.77 21.48,50.55 9.65,68.47 -7.57,11.46 -25.43,16.85 -38.61,17.01 -19.79,0.23 -37.08,-4.44 -51.91,-18.29 -21.61,-20.18 -26.57,-55.01 -12.23,-80.709993 2.2,-3.94 5.06,-8.58 8.31,-11.7 14.36,-13.78 38,-15.52 56.83,-15.3 14.17,0.17 35.06,5.17 45.96,14.47 4.98,4.25 9.28,12.62 12.28,18.53 7.2,14.149993 14.12,28.699993 13.75,44.999993 -0.31,13.58 -5.99,23.62 -14.2,34 -1.85,2.33 -6.88,9.19 -10.45,7.7 -2.99,-1.26 -0.68,-6.61 0,-8.7 3.25,-10.12 4.78,-19.37 4.66,-30 -0.37,-31.59 -23.31,-53.239993 -54,-56.069993 -2.94,-0.28 -5,-0.83 -8,-0.61 -15.44,1.16 -33.08,3.66 -36.98,21.679993 -1.61,7.42 0.66,14.96 2.98,22 4.71,14.27 9.26,27.5 25,32.64 17.5,5.71 36.1,-9.43 34.64,-21.64 -1.75,-14.62 -20.21,-23.54 -27.04,-13.89 -4.08,5.75 1.02,15.57 10.4,11.88 0,0 9,-4.99 9,-4.99 0,4.48 0.69,11.17 -1.74,14.98 z M 723,93.126707 c 13.6,-0.3 30.24,4.49 36,17.989993 -3.99,1.69 -8.75,3.97 -13,4.68 -15.28,2.55 -36.03,-3.94 -43,-18.679993 7.31,-1.92 12.09,-3.81 20,-3.99 z m 231,1.89 c 5.44,1.33 9.19,3.36 14,6.099993 -2.83,5.68 -7.46,7.62 -13,10.22 -10.04,4.71 -24.52,6.57 -35,2.3 -2.84,-1.16 -5.39,-2.93 -8,-4.52 6.86,-14.489993 27.94,-17.539993 42,-14.099993 z M 737,133.1267 c 7.58,0.18 10.33,2.12 17,4.99 -6.8,15.94 -28.42,20.88 -44,17.48 -4.01,-0.87 -8.21,-2.87 -12,-4.48 5.79,-11.69 26.57,-18.27 39,-17.99 z m 196,1.66 c 13.56,-2.9 35.58,1.86 42,15.33 -15.24,5.29 -23.72,8.33 -40,3.84 -7.22,-1.99 -13.47,-5.44 -16,-12.84 5.1,-3.32 7.93,-5.04 14,-6.33 z m -192,25.79 c 6.8,-1.34 10.38,-0.67 17,0.54 -2.67,16.98 -21.81,28.33 -38,28.96 0,0 -12,-0.96 -12,-0.96 3.82,-13.09 19.76,-25.92 33,-28.54 z m 177,27.16 c -5.88,-4.72 -19.08,-19.4 -3,-19.62 18.12,-0.24 36.71,11.73 41,30 -14.42,0 -26.09,-0.81 -38,-10.38 z m -151,-5.83 c 3.34,-0.95 6.57,-0.79 10,-0.79 -0.07,21.87 -18.12,39.93 -40,40 1.33,-15.86 14.3,-34.75 30,-39.21 z m 124.47,23.21 c -1.29,-3.18 -4.26,-13.5 -0.87,-15.94 3.27,-2.35 12.5,2.61 15.4,4.49 14.36,9.3 19,23.22 19,39.45 -13.82,-3.25 -28.13,-14.79 -33.53,-28 z m -109.39,21 c 0,-11.79 5.12,-28.36 16.92,-33 11.97,19.31 4.26,48.57 -12,55 -2.9,-6.62 -4.92,-14.73 -4.92,-22 z m 103.92,8 c 0.08,7.45 -0.05,7.77 -1,15 -18.17,-6.95 -32.89,-33.06 -25,-52 15.75,4.5 25.81,21.1 26,37 z m -43.44,5 c -1.04,3.5 -5.24,13.8 -9.5,13.8 -3.76,0 -7.09,-9.74 -8.02,-12.8 -4.54,-14.87 -2.95,-30.45 7.96,-42 11.36,8.95 13.48,27.83 9.56,41 z M 110,213.2267 c 0,0 39,0 39,0 0,0 37,0 37,0 2.92,-0.09 6.29,-0.27 8.72,1.63 4.35,3.38 4.53,17.14 0.97,21.03 -3.26,3.55 -7.32,3.22 -11.69,3.23 0,0 -113,0 -113,0 -10.81,0.02 -31.08,1.51 -36.86,12 -2.159999,3.92 -2.13,8.66 -2.14,13 0,0 0,67 0,67 0.01,4.54 0.07,9.91 2.3,14 5.73,10.52 24.820001,12.98 35.7,13 0,0 113,0 113,0 4.16,0.05 8.52,0.38 11.67,3.42 4.58,4.28 4.64,16.74 0,20.93 -3.33,2.91 -7.61,2.64 -11.67,2.65 0,0 -122,0 -122,0 -18.01,-0.21 -45.759999,-8.22 -56.0399995,-24 -4.22,-6.49 -4.95,-11.5 -4.96,-19 0,0 0,-88 0,-88 0.13,-26.91 28.7799995,-37.22 50.9999995,-40.89 0,0 59,0 59,0 z m 148.65,134.8 c 6.26,8.35 21.62,10.07 31.35,10.09 0,0 76,0 76,0 0,0 39,0 39,0 3.7,0.05 8.76,0.35 11.77,2.72 3.54,2.78 3.32,7.22 3.22,11.28 -0.28,11.15 -4.98,12.98 -14.99,13 0,0 -83,0 -83,0 -19.31,0 -38.01,1.16 -57,-3.01 -22.05,-4.85 -41.96,-15.93 -42,-40.99 0,0 0,-83 0,-83 0.01,-5.19 0.08,-7.96 1.75,-13 2.04,-6.16 5.55,-10.53 10.25,-14.91 19.07,-17.74 47.74,-17.09 72,-17.09 0,0 19,0 19,0 3.85,0.01 7.67,-0.33 10.77,2.43 4.57,4.05 4.57,17.09 0,21.14 -3.1,2.76 -6.92,2.42 -10.77,2.43 -16.29,0.03 -34.14,-1.13 -50,2.42 -6.4,1.44 -15.3,4.61 -18.7,10.62 -3.45,6.1 -2.3,26.15 -2.3,33.96 0,0 150,0 150,0 4.14,0.01 8.43,-0.26 11.87,2.51 6.31,5.08 5.17,17.21 -0.97,21.98 -3.57,2.77 -7.65,2.5 -11.9,2.51 0,0 -149,0 -149,0 0,8.85 -1.47,28.07 3.65,34.91 z m 219.35,25.09 c -0.19,13.58 -8.64,12.05 -19,12 -3.34,-0.02 -6.83,0.1 -9.66,-2.01 -4.46,-3.32 -4.33,-10 -4.34,-14.99 0,0 0,-119 0,-119 0,0 0,-21 0,-21 0.05,-4.36 0.43,-10.41 4.22,-13.26 2.7,-2.03 6.57,-1.73 9.78,-1.61 0,0 7,0 7,0 1.59,-0.11 3.44,-0.1 4.98,0 6.24,1.74 6.94,6.33 7.02,11.87 0,0 0,61 0,61 0,0 154,0 154,0 0,0 0,-62 0,-62 0.18,-12.92 9.11,-11.05 19,-11 3.62,0.02 6.87,-0.15 9.77,2.43 3.58,3.17 3.22,7.24 3.23,11.57 0,0 0,119 0,119 0,0 0,27 0,27 -0.05,3.74 -0.14,6.85 -3.23,9.49 -3.75,3.21 -11.03,2.56 -15.77,2.51 -10.05,-0.13 -12.95,-3.04 -13,-13 0,0 0,-59 0,-59 0,0 -154,0 -154,0 0,0 0,60 0,60 z m 243,-55 c 0,0 0,53 0,53 -0.05,3.95 -0.28,8.49 -3.42,11.35 -4.46,4.08 -23,3.9 -27.15,-0.63 -2.76,-3.01 -2.42,-6.93 -2.43,-10.72 0,0 0,-122 0,-122 0,0 0,-17 0,-17 0.02,-9.66 2.58,-16.07 13,-18.72 2.15,-0.25 4.79,-0.34 7,0 12.09,0.29 17.02,7.36 24.28,15.72 0,0 17.3,20 17.3,20 0,0 61.27,71 61.27,71 6.61,7.52 20.1,24.84 27.15,30 2.9,-6.24 10.92,-14.48 15.58,-20 0,0 32,-38 32,-38 0,0 41.17,-49 41.17,-49 4.42,-5.3 17.79,-22.11 22.26,-25.36 9.14,-6.66 24.62,-6.84 31.27,3.36 2.73,4.2 2.71,9.19 2.72,14 0,0 0,115 0,115 0,0 0,21 0,21 -0.05,3.95 -0.28,8.49 -3.42,11.35 -2.95,2.7 -6.84,2.63 -10.58,2.65 0,0 -6,0 -6,0 -11.64,-0.14 -12.98,-4.47 -13,-15 0,0 0,-13 0,-13 0,0 0,-92 0,-92 0,0 -25.08,30 -25.08,30 0,0 -50.5,61 -50.5,61 0,0 -11.5,14 -11.5,14 -7.9,9.46 -13.71,15.92 -26.92,15.92 -13.82,0 -19.3,-7.17 -27.41,-16.92 0,0 -11,-13 -11,-13 0,0 -48.51,-58 -48.51,-58 0,0 -28.08,-33 -28.08,-33 0,0 0,53 0,53 z m -703,133 c -4.86,-0.06 -9.1599995,-0.55 -12.7699995,-4.22 -3.56,-3.61 -3.22,-7.13 -3.23,-11.78 0,0 0,-14 0,-14 0.01,-8.73 1.48,-13.27 10.9999995,-15.47 2.380001,-0.55 4.58,-0.52 7,-0.53 0,0 25,0 25,0 2.950001,0.06 6.71,0 6.71,4 0,1.16 -0.38,2.24 -1.31,2.98 -1.58,1.25 -5.42,1.02 -7.4,1.02 0,0 -22,0 -22,0 -2.58,0.04 -5.58,0 -7.69,1.74 -2.53,2.09 -2.29,5.3 -2.31,8.26 -0.04,6.61 -2.0899995,17.32 6,19.86 1.83,0.22 5.04,0.14 7,0 0,0 20,0 20,0 2.15,0.17 5.52,0.03 7.01,1.88 1.17,1.45 0.97,4.47 0.99,6.26 0,0 -34,0 -34,0 z m 143.02,-44.4 c 1.78,-2.24 6.13,-1.84 7.38,0.71 0.77,1.57 0.6,5.82 0.6,7.69 3.12,0 12.88,-1.08 14.16,2.28 2.42,6.41 -10.98,4.72 -14.16,4.72 0,0 0,20 0,20 -0.01,4.02 0.38,10.23 -5.86,8.67 -3.81,-0.96 -3.13,-5.63 -3.14,-8.67 0,0 0,-20 0,-20 0,0 -5,0 -5,0 0.17,-4.79 -0.03,-6.12 5,-7 0,-2.14 -0.3,-6.73 1.02,-8.4 z m 132.98,6.4 c 0.02,-2.9 -0.43,-6.77 3.14,-7.67 8.39,-2.1 5.86,13.91 5.86,18.67 0,0 37,0 37,0 0,-3.2 -0.41,-14.45 0.74,-16.71 1.28,-2.52 5.45,-2.95 7.24,-0.69 1.17,1.48 1.01,4.58 1.02,6.4 0,0 0,38 0,38 -1.95,-0.01 -5.72,0.26 -7.26,-0.99 -2.68,-2.17 -1.74,-14.38 -1.74,-18.01 0,0 -37,0 -37,0 0,3.48 0.92,15.99 -1.6,17.98 -1.59,1.26 -5.41,1.01 -7.4,1.02 0,0 0,-38 0,-38 z m 391.74,37.01 c -2.12,-1.71 -1.74,-6.51 -1.74,-9.01 0,0 0,-24 0,-24 0.01,-4.76 -0.46,-13.16 6.99,-11.53 3.72,0.82 6.34,4.74 8.62,7.53 0,0 13.97,17 13.97,17 1.54,1.89 5.32,7.17 7.49,7.8 3.27,0.96 6.76,-4.59 8.53,-6.8 0,0 19.49,-23.69 19.49,-23.69 8.36,-6.7 9.9,2.59 9.91,8.69 0,0 0,27 0,27 -0.01,1.81 0.15,4.93 -1.02,6.4 -1.1,1.38 -7.79,4.47 -7.98,-5.4 -0.12,-6.94 0.83,-16.56 -1,-23 -2.94,5.58 -13.55,18.56 -18,24 -2.98,3.63 -5.77,6.91 -11,5.68 -4.12,-0.97 -7.07,-5.52 -9.6,-8.68 0,0 -17.4,-22 -17.4,-22 0,0 0,31 0,31 -1.95,-0.01 -5.72,0.26 -7.26,-0.99 z M 928,415.1167 c 0,0 0,29 0,29 -0.08,3.86 -0.69,7.96 -5.86,6.67 -3.29,-0.83 -3.08,-3.93 -3.14,-6.67 0,0 0,-26 0,-26 0,-3.99 -0.8,-8.63 1.6,-11.98 7.77,-3.23 7.39,3.59 7.4,8.98 z m -848.149999,29.31 c 2.01,0.61 3.35,2.25 2.49,4.39 -1.05,2.64 -5.03,2.28 -7.34,2.3 -5.56,0.03 -12.32,0.07 -16.43,-4.39 C 55.03,442.8767 55.99,435.1467 56,430.1167 c 0,-2.8 -0.209999,-6.4 1.17,-8.9 4.55,-8.19 22.61,-6.11 30.83,-6.1 4.480001,0.01 9.07,-0.15 12.77,2.85 4.68,3.78 3.23,13.6 3.23,19.15 0,0 -39,0 -39,0 4.3,8.78 9.83,5.8 14.850001,7.31 z M 107,427.1167 c 0.06,-3.75 0.05,-6.58 3.23,-9.15 3.7,-3 8.29,-2.84 12.77,-2.85 8.37,-0.01 26.33,-2.38 30.69,6.04 1.49,2.88 1.31,6.78 1.31,9.96 0.01,3.29 0.41,15.43 -0.74,17.71 -1.28,2.52 -5.45,2.95 -7.24,0.69 -1.25,-1.59 -1.02,-5.41 -1.02,-7.4 -0.01,-3.51 0.58,-14.18 -1.02,-16.72 -1.33,-2.11 -3.67,-2.77 -5.98,-3.09 -4.55,-0.63 -19.23,-1.11 -22.26,2.32 -2.06,2.33 -1.74,6.55 -1.74,9.49 0,0 0,17 0,17 0,0 -8,0 -8,0 0,0 0,-24 0,-24 z m 82,1 c 0.06,-3.78 0.13,-6.8 3.23,-9.49 3.5,-3.05 10.26,-3.85 14.75,-3.45 2.53,0.22 5.66,1.38 4.36,4.64 -1.58,3.98 -8.77,0.59 -12.74,5.58 -1.89,2.37 -1.59,5.85 -1.6,8.72 0,0 0,17 0,17 0,0 -8,0 -8,0 0,0 0,-23 0,-23 z m 60,-13 c 4.14,0.05 8.45,0.34 11.67,3.42 4.89,4.82 4.78,23.42 0,28.36 -4.03,4.27 -9.24,4.21 -14.67,4.22 -7.56,0.01 -20.91,1.36 -26.77,-3.65 -3.14,-2.67 -3.17,-5.55 -3.23,-9.35 -0.14,-10.42 -2.14,-18.58 10,-22.47 5.39,-0.89 17.06,-0.6 23,-0.53 z m 106.28,31.78 c -4.68,-4.89 -4.81,-22.68 0,-27.51 4.07,-4.09 10.34,-4.26 15.72,-4.27 6.74,-0.01 20.62,-1.22 25.89,2.7 1.58,1.17 2.65,2.48 3.37,4.32 1.03,2.61 1.5,12.09 -0.86,13.96 -1.48,1.17 -4.58,1.01 -6.4,1.02 0,0 -32,0 -32,0 4.32,7.57 10.18,6.99 18,7 0,0 0,7 0,7 -7.31,0 -18.31,1.44 -23.72,-4.22 z m 69.29,-31.26 c 2.09,1.1 2.64,3.96 0.82,5.46 -2.27,1.87 -8.36,-0.01 -11.79,4.3 -2.41,3.02 -1.59,12.67 -1.6,16.72 -0.01,4.02 0.38,10.23 -5.86,8.67 -3.57,-0.9 -3.12,-4.77 -3.14,-7.67 -0.08,-11.49 -3.17,-24.02 11,-27.48 2.43,-0.39 8.42,-1.03 10.57,0 z m 40.43,0.55 c 0,0 17,-1.07 17,-1.07 4.5,0.06 9.24,0.52 12.28,4.34 3.6,4.53 2.73,15.88 2.72,21.66 0,2.26 0.25,6.63 -1.17,8.43 -1.77,2.23 -5.99,1.79 -7.23,-0.74 -1.01,-2.06 -0.55,-13.6 -0.6,-16.69 -0.25,-13.29 -14.42,-10.73 -17.69,-7.57 -2.67,2.59 -2.3,6.17 -2.31,9.57 -0.01,4.7 2.29,18.71 -5.86,16.67 -4.77,-1.2 -3.13,-13.65 -3.14,-17.67 -0.01,-2.69 0.32,-6.36 -1.6,-8.49 -3.4,-3.77 -13.68,-3.16 -16.8,0.77 -2.41,3.02 -1.59,12.67 -1.6,16.72 -0.01,3.47 0.71,8.4 -4.01,8.8 -1.43,0.13 -2.89,-0.2 -3.82,-1.37 -1.42,-1.8 -1.17,-6.17 -1.17,-8.43 -0.02,-9.97 -2.39,-21.37 9,-25.44 10.78,-1.89 23.15,0.82 26,0.51 z m 63.31,5.33 c -2.53,-1.25 -2.53,-4.55 0,-6.04 1.54,-0.52 5.86,-0.38 7.69,0 2.13,-0.33 3.88,-0.3 6,0 12.47,2.52 10.05,12.9 10,22.64 -0.02,3.48 0.19,6.88 -2.43,9.58 -3.44,3.55 -9.02,3.41 -13.57,3.42 -7.17,0.01 -23.12,1.1 -28.96,-2 -8.2,-4.35 -7.95,-17.35 -0.94,-21.59 8.4,-5.06 26.56,-0.47 36.9,-3.41 -8.55,-2.77 -12.72,-1.63 -14.69,-2.6 z m 27.69,5.6 c 0.06,-3.75 0.05,-6.58 3.23,-9.15 3.7,-3 8.29,-2.84 12.77,-2.85 8.37,-0.01 26.33,-2.38 30.69,6.04 1.49,2.88 1.31,6.78 1.31,9.96 0.01,3.29 0.41,15.43 -0.74,17.71 -1.28,2.52 -5.45,2.95 -7.24,0.69 -1.25,-1.59 -1.02,-5.41 -1.02,-7.4 -0.01,-3.51 0.58,-14.18 -1.02,-16.72 -1.33,-2.11 -3.67,-2.77 -5.98,-3.09 -4.55,-0.63 -19.23,-1.11 -22.26,2.32 -2.06,2.33 -1.74,6.55 -1.74,9.49 0,0 0,17 0,17 0,0 -8,0 -8,0 0,0 0,-24 0,-24 z m 89,-11.54 c 2.49,0.5 4.98,1.83 6.69,3.75 2.22,2.5 2.25,4.64 2.31,7.79 0.16,9.06 2.37,20.7 -9,23.47 -2.49,0.61 -5.43,0.53 -8,0.53 -7.77,0.01 -20.71,1.36 -26.86,-3.65 -5.5,-4.48 -5.65,-21.77 -1.44,-27.14 2.18,-2.79 5.07,-3.72 8.3,-4.75 4.16,-0.61 24.26,-0.93 28,0 z m 145.31,5.94 c -2.53,-1.25 -2.53,-4.55 0,-5.8 1.54,-0.76 5.86,-0.62 7.69,-0.6 2.5,0.03 4.54,0.08 7,0.68 11.23,2.74 9.12,13.29 9,22.32 -0.05,3.47 -0.13,6.74 -2.65,9.44 -3.47,3.73 -8.69,3.55 -13.35,3.56 -7.81,0.01 -23.58,1.32 -29.96,-2.53 -7,-4.23 -7.2,-16.88 0,-21.06 8.84,-5.12 26.42,-0.41 36.96,-3.41 -8.55,-2.77 -12.72,-1.63 -14.69,-2.6 z m 27.69,7.6 c 0,-2.78 -0.21,-6.42 1.17,-8.89 4.03,-7.21 22.31,-5.12 29.83,-5.11 4.25,0.01 9.26,-0.14 12.77,2.7 3.64,2.94 3.22,7.1 3.23,11.3 0,0 0,22 0,22 -1.83,-0.02 -4.91,0.16 -6.4,-1.02 -1.98,-1.57 -1.6,-5.68 -1.6,-7.98 -0.01,-3.51 0.58,-14.18 -1.02,-16.72 -2.31,-3.67 -8.2,-3.27 -11.98,-3.28 -4.58,-0.01 -14.25,-1.05 -16.98,3.28 -1.69,2.68 -0.95,14.89 -1.02,18.72 -0.04,1.95 0.1,4.63 -1.6,5.98 -1.49,1.18 -4.57,1 -6.4,1.02 0,0 0,-22 0,-22 z m 94.77,-10.58 c 1.46,1.33 2.28,2.69 2.8,4.58 0.66,2.4 0.66,17.6 0,20 -0.52,1.89 -1.34,3.25 -2.8,4.58 -3.83,3.52 -8.93,3.41 -13.77,3.42 -7.84,0.01 -20.63,1.37 -26.87,-3.65 -4.46,-3.58 -4.12,-8.19 -4.13,-13.35 -0.02,-10.19 -0.12,-15.15 11,-18.47 7.23,-1.18 28.42,-2.03 33.77,2.89 z m 51.23,-3.42 c 4.22,0.05 8.28,0.34 11.43,3.56 5.24,5.32 5.11,24.04 -0.57,29.02 -4,3.51 -8.9,3.41 -13.86,3.42 -7.56,0.01 -20.91,1.36 -26.77,-3.65 -3.14,-2.67 -3.17,-5.55 -3.23,-9.35 -0.15,-10.89 -2.62,-18.7 10,-22.47 5.38,-0.88 17.07,-0.6 23,-0.53 z m -870.309999,9.14 c -2.55,-1.85 -7.62,-2.1 -10.69,-2.14 -6.85,-0.08 -17.52,-1.62 -19,7 0,0 32,0 32,0 -0.37,-2.16 -0.34,-3.44 -2.31,-4.86 z m 131.979999,1.16 c -2.33,2.76 -2.46,13.35 0,15.98 2.61,2.64 8.88,2.7 12.33,2.72 4.01,0.02 11.38,0.26 14.69,-2.14 3.44,-2.49 3.28,-15.4 0,-18.01 -3.41,-2.7 -16.21,-2 -20.69,-1.55 -2.44,0.54 -4.7,0.92 -6.33,3 z m 164.76,-1.14 c -1.59,-1.31 -6.35,-1.93 -8.43,-2.07 -4.42,-0.31 -16.33,-0.8 -19.4,2.47 -1.34,1.42 -1.31,2.68 -1.6,4.44 0,0 31,0 31,0 -0.15,-1.83 0,-3.54 -1.57,-4.84 z m 226.17,0.56 c -2.34,2.38 -2.34,14.18 0,16.56 2.56,2.61 8.94,2.7 12.4,2.72 3.95,0.02 11.34,0.28 14.63,-2.14 3.38,-2.57 3.47,-15.34 0,-17.93 -3.47,-2.67 -16.1,-2.08 -20.63,-1.63 -2.15,0.43 -4.78,0.78 -6.4,2.42 z m 262,0 c -2.4,2.44 -2.4,14.12 0,16.56 2.56,2.61 8.94,2.7 12.4,2.72 3.99,0.02 10.48,0.34 13.85,-1.93 4.12,-2.77 4.65,-15.07 0.72,-18.14 -3.44,-2.68 -16.1,-2.08 -20.57,-1.63 -2.15,0.43 -4.78,0.78 -6.4,2.42 z m 62.07,0 c -2.33,2.5 -2.5,14.09 0,16.56 2.49,2.61 8.87,2.7 12.33,2.72 4.01,0.02 11.38,0.26 14.69,-2.14 3.45,-2.5 3.37,-15.37 0,-17.93 -3.53,-2.67 -16.16,-2.08 -20.69,-1.63 -2.14,0.43 -4.67,0.77 -6.33,2.42 z m -417.67,7.28 c -4.36,0.06 -12.32,0.21 -12.8,6 -0.13,1.49 0.21,2.86 1.37,3.86 3.31,2.84 15.86,2.16 20.43,2.14 3.28,-0.02 8.01,0.14 10.4,-2.51 2.03,-2.25 1.6,-6.62 1.6,-9.49 0,0 -21,0 -21,0 z m 262,0 c -2.88,0.04 -8.33,0.28 -10.69,1.98 -2.34,1.7 -3.08,5.87 -0.74,7.88 3.3,2.84 15.86,2.16 20.43,2.14 3.28,-0.02 7.89,0.18 10.26,-2.51 2.07,-2.34 1.73,-6.55 1.74,-9.49 0,0 -21,0 -21,0 z"
     style="fill:#00ff00;fill-opacity:1;stroke-width:0;stroke-miterlimit:4;stroke-dasharray:none" />
  <path
     style="fill:#f8ad1d;fill-opacity:1;stroke:#f8ad1d;stroke-width:0.900115;stroke-miterlimit:4;stroke-dasharray:none"
     d="m 13.463796,450.71525 c -3.425703,-0.4876 -6.055817,-1.81942 -8.3207614,-4.21342 -1.4482203,-1.53074 -2.0951301,-2.66971 -2.5853809,-4.55191 -0.4976018,-1.91042 -0.4997838,-24.18691 -0.00263,-26.78532 0.9286211,-4.85347 3.4391245,-7.3107 9.3184443,-9.12071 l 2.044699,-0.62948 17.379941,-5.4e-4 c 16.927124,-5.2e-4 17.403538,0.0113 18.285696,0.45384 1.276367,0.6403 1.934103,1.71526 1.934103,3.16099 0,1.64004 -0.57471,2.6184 -1.946655,3.31389 l -1.120392,0.56798 -15.903214,0.12266 c -14.064968,0.10848 -16.034725,0.16669 -17.040957,0.50364 -2.460334,0.82386 -3.944015,2.60755 -4.39243,5.28061 -0.383458,2.28582 -0.56225,13.34611 -0.253407,15.67601 0.553374,4.17464 2.006822,6.61272 4.848365,8.13287 l 0.935216,0.50031 13.404137,-0.0751 c 14.109787,-0.0791 17.569111,0.0708 19.268253,0.83499 1.813669,0.8157 2.323571,1.81806 2.567313,5.04684 l 0.153341,2.03131 -18.605276,-0.0277 C 23.199298,450.92181 14.213513,450.822 13.46379,450.71528 Z"
     id="path5963" />
  <path
     style="fill:#f8ad1d;fill-opacity:1;stroke:none;stroke-width:0.900115;stroke-miterlimit:4;stroke-dasharray:none;stroke-opacity:1"
     d="m 29.934981,450.73221 c -18.96395,-0.14351 -18.23846,-0.087 -21.2421482,-1.65385 -1.7301349,-0.9025 -4.6224491,-3.75411 -5.3048025,-5.23015 -0.7955459,-1.72088 -0.8990344,-2.74833 -1.0566678,-10.49065 -0.2003372,-9.83974 0.115373,-17.88893 0.7781811,-19.84011 1.2491305,-3.6772 3.5574057,-5.61958 8.6678354,-7.29385 l 2.17579,-0.71283 17.476038,0.0649 c 5.821437,0.0216 9.722117,0.0398 12.362497,0.0715 4.716809,0.0566 5.411658,0.1563 5.849763,0.3957 1.01971,0.55723 1.617388,1.67269 1.707575,2.81501 0.07371,0.93358 -0.191553,1.8851 -0.842436,2.56448 -1.317473,1.37514 -0.807509,1.33255 -18.421251,1.53885 l -16.13832,0.18903 -1.292566,0.6324 c -1.520098,0.74371 -2.725704,2.05869 -3.234433,3.52784 -0.524886,1.51582 -0.78817,5.28449 -0.792402,11.34253 -0.0041,5.7501 0.249412,7.77852 1.247325,9.98342 0.786615,1.73803 1.582537,2.67245 3.147173,3.69479 l 1.391328,0.90909 14.428382,0.007 c 7.93561,0.004 15.167698,0.10305 16.071308,0.22043 2.264194,0.29412 3.456694,0.81432 4.133224,2.24632 0.415627,0.87976 0.636509,2.10366 0.791513,3.83072 l 0.127439,1.41993 -2.438797,-0.0513 c -0.293893,-0.006 -0.946631,-0.0149 -1.886088,-0.0256 -3.348249,-0.0379 -10.338482,-0.0998 -17.70546,-0.15556 z"
     id="path6076"
     sodipodi:nodetypes="cssssscsssssscssssscssssccscc" />
  <path
     style="fill:#f8ad1d;fill-opacity:1;stroke:#f8ad1d;stroke-width:0.900115;stroke-miterlimit:4;stroke-dasharray:none"
     d="m 67.307533,450.63143 c -2.537305,-0.40247 -3.608877,-0.72661 -5.424095,-1.64074 -2.704794,-1.36211 -4.400386,-3.43485 -5.309232,-6.49014 -0.465345,-1.56436 -0.686518,-14.98089 -0.29286,-17.76538 0.718029,-5.07894 4.112229,-7.7769 11.480565,-9.12562 4.244021,-0.77682 25.276115,-0.59979 28.359753,0.23872 3.058592,0.83171 5.470476,2.59792 6.470216,4.73813 1.13493,2.42961 1.25202,3.30538 1.35054,10.10168 l 0.0931,6.41809 H 84.478762 c -10.75619,0 -19.556715,0.0633 -19.556715,0.14067 0,0.41644 1.790217,2.99103 2.740649,3.94147 1.967637,1.96764 3.113829,2.32612 9.424215,2.94748 2.494677,0.24564 3.53311,0.58271 4.469905,1.4509 1.119458,1.03749 1.130725,2.90103 0.02453,4.05566 -1.066922,1.11363 -2.314137,1.325 -7.669763,1.29985 -2.638418,-0.0124 -5.60219,-0.15186 -6.604033,-0.31077 z m 28.637836,-22.55601 c -0.360721,-2.54197 -1.868317,-4.20835 -4.559309,-5.03951 -2.528327,-0.78092 -5.149215,-0.99637 -12.378303,-1.01752 -6.564984,-0.0192 -7.022932,0.007 -8.711144,0.49601 -2.188525,0.63411 -2.868727,0.97793 -4.06048,2.05244 -0.961998,0.86736 -2.222347,3.17894 -2.222654,4.07655 l -1.8e-4,0.51117 h 16.042597 16.042605 z"
     id="path6115" />
  <path
     style="fill:#f8ad1d;fill-opacity:1;stroke:#f8ad1d;stroke-width:0.900115;stroke-miterlimit:4;stroke-dasharray:none"
     d="m 107.2278,436.82218 0.065,-14.1425 0.53148,-1.31697 c 1.15974,-2.87377 4.44897,-5.13016 8.34759,-5.72639 3.02815,-0.46311 19.24155,-0.86419 23.04096,-0.56998 4.71595,0.36517 7.32909,0.93624 9.89037,2.1614 2.90636,1.39023 4.6042,3.44084 5.36051,6.47429 0.44632,1.79015 0.45311,22.58306 0.008,24.08201 -0.56736,1.91002 -2.08992,3.02683 -4.1265,3.02683 -1.40665,0 -2.44935,-0.44483 -3.15981,-1.34804 -0.95699,-1.21662 -1.04684,-2.08287 -0.97809,-9.43044 0.0662,-7.08122 -0.14708,-11.46637 -0.65617,-13.48816 -0.20773,-0.82499 -0.56456,-1.4068 -1.33574,-2.17799 -1.94756,-1.94755 -4.94432,-2.51657 -13.29483,-2.5244 -8.05615,-0.008 -12.21731,0.77499 -14.09252,2.65021 -1.78456,1.78456 -1.78393,1.7795 -1.87105,14.9428 l -0.0763,11.52983 h -3.85881 -3.85883 z"
     id="path6154" />
  <path
     style="fill:#f8ad1d;fill-opacity:1;stroke:#f8ad1d;stroke-width:0.900115;stroke-miterlimit:4;stroke-dasharray:none"
     d="m 163.23785,450.6553 c -1.27287,-0.35619 -1.86056,-0.83976 -2.52312,-2.0761 -0.47897,-0.89379 -0.48805,-1.1192 -0.55102,-13.68813 l -0.0641,-12.77936 h -2.52537 -2.52536 l 0.15075,-1.96125 c 0.20204,-2.6285 0.5992,-3.4147 2.05847,-4.07485 0.63363,-0.28665 1.52303,-0.58837 1.97647,-0.67049 l 0.82441,-0.14931 0.0947,-3.33366 c 0.11398,-4.01199 0.47393,-5.05059 2.0619,-5.9492 1.94148,-1.09866 4.88563,-0.45454 5.90256,1.29137 0.46501,0.79834 0.85195,3.61217 0.85453,6.21422 l 0.001,1.70391 5.05498,0.004 c 4.79999,0.004 5.135,0.0323 6.64135,0.56797 1.23092,0.43768 1.7018,0.73706 2.1015,1.33604 1.15549,1.7316 0.39275,3.45305 -1.93658,4.37078 -1.18267,0.46596 -1.76219,0.51899 -6.57905,0.60202 l -5.28214,0.0911 -10e-4,10.94059 c -7.5e-4,6.01733 -0.10069,11.80136 -0.22164,12.85338 -0.24277,2.1117 -0.91478,3.72725 -1.82134,4.3786 -0.76802,0.55182 -2.38104,0.69534 -3.69196,0.3285 z"
     id="path6193" />
  <path
     style="fill:#f8ad1d;fill-opacity:1;stroke:#f8ad1d;stroke-width:0.900115;stroke-miterlimit:4;stroke-dasharray:none"
     d="m 189.19431,438.05665 c 0,-8.34123 0.0876,-13.38174 0.2475,-14.24696 0.71026,-3.84214 3.69923,-6.53313 8.72645,-7.85648 2.61263,-0.68773 8.56696,-0.87377 10.44958,-0.32648 2.49988,0.72674 3.42114,2.35382 2.46891,4.36048 -0.60171,1.26803 -1.99462,1.78078 -6.09472,2.2436 -3.20256,0.36149 -5.69989,1.69126 -6.8446,3.64456 -1.15663,1.97365 -1.22131,2.7315 -1.22516,14.35464 l -0.004,10.73467 h -3.86221 -3.86221 z"
     id="path6232" />
  <path
     style="fill:#f8ad1d;fill-opacity:1;stroke:#f8ad1d;stroke-width:0.900115;stroke-miterlimit:4;stroke-dasharray:none"
     d="m 231.45141,451.03942 c -3.70385,-0.2647 -7.52886,-1.1097 -9.70057,-2.14299 -1.96225,-0.93363 -3.76143,-2.64379 -4.62335,-4.39459 -0.63348,-1.2868 -0.72646,-1.75447 -0.93372,-4.69638 -0.12659,-1.79699 -0.18954,-5.77202 -0.13988,-8.83339 0.0997,-6.14684 0.30571,-7.24155 1.80576,-9.59594 1.49648,-2.34875 4.97681,-4.72155 8.09122,-5.51638 3.93705,-1.00478 25.50832,-1.00782 29.33914,-0.005 2.93885,0.76998 5.25274,2.32398 6.38735,4.2897 3.20935,5.5602 3.29782,18.8713 0.16452,24.74999 -0.80859,1.51708 -2.74385,3.40189 -4.42906,4.31362 -2.33592,1.26379 -4.12914,1.55195 -10.96695,1.76234 -6.05781,0.1864 -12.90453,0.21751 -14.99446,0.0682 z m 17.75914,-7.52141 c 2.03101,-0.55597 3.28282,-1.15485 3.98309,-1.90559 2.45983,-2.63709 2.84947,-11.74566 0.6884,-16.09288 -0.65459,-1.31679 -0.87213,-1.54578 -2.00854,-2.11434 -2.25884,-1.13013 -4.33612,-1.37851 -11.56173,-1.38248 -6.76256,-0.004 -8.67746,0.17079 -11.20022,1.02065 -3.94255,1.32814 -5.1933,3.79161 -5.23673,10.31419 -0.0239,3.57904 0.18938,5.02217 1.03105,6.97869 0.5881,1.36707 1.787,2.23114 4.04647,2.91636 2.51016,0.76125 3.96585,0.86405 11.35943,0.80221 6.45108,-0.054 7.32818,-0.10688 8.89878,-0.53681 z"
     id="path6271" />
  <path
     style="fill:#f8ad1d;fill-opacity:1;stroke:#f8ad1d;stroke-width:0.900115;stroke-miterlimit:4;stroke-dasharray:none"
     d="m 294.15678,430.14754 c 7.5e-4,-13.65652 0.0824,-21.16408 0.23592,-21.7169 0.64075,-2.30716 3.24166,-3.64422 5.40505,-2.7786 2.7045,1.08212 3.62588,4.61076 3.34871,12.82465 -0.0864,2.56155 -0.21338,4.8874 -0.2821,5.16855 l -0.12494,0.51116 h 18.62528 18.62528 l 0.11818,-7.21323 c 0.1351,-8.24614 0.28523,-9.22179 1.60513,-10.4314 1.43686,-1.31677 3.63146,-1.50935 5.18063,-0.45459 1.05397,0.7176 1.52617,1.47212 1.78473,2.85179 0.14357,0.76606 0.22935,8.86968 0.22935,21.66716 v 20.44341 l -2.78306,-0.10387 c -3.39093,-0.12655 -4.25308,-0.4603 -4.95968,-1.91995 -0.86308,-1.78288 -1.10122,-4.07843 -1.1097,-10.69681 l -0.008,-6.19089 -18.57268,2.2e-4 -18.57268,2.3e-4 -0.003,6.75858 c -0.005,11.09354 -0.37435,11.84014 -5.96067,12.04862 l -2.78306,0.10387 0.001,-20.872 z"
     id="path6310" />
  <path
     style="fill:#f8ad1d;fill-opacity:1;stroke:#f8ad1d;stroke-width:0.900115;stroke-miterlimit:4;stroke-dasharray:none"
     d="m 365.77001,450.94819 c -5.97379,-0.57726 -10.12598,-2.81699 -11.826,-6.37907 -2.69025,-5.63691 -2.7675,-16.92064 -0.1549,-22.62731 1.35819,-2.96667 4.12484,-4.94085 8.38362,-5.98224 3.77983,-0.92427 23.23044,-1.16643 27.98312,-0.34837 4.07084,0.70068 6.16252,1.62709 8.03862,3.56028 2.11839,2.18286 2.88392,5.21845 2.67937,10.62461 -0.17684,4.6739 -0.83407,6.17778 -3.00666,6.87984 -0.70262,0.22704 -4.9927,0.31172 -18.91346,0.37331 -9.90259,0.0438 -18.00317,0.15121 -18.00128,0.23868 0.008,0.38724 2.3,3.2215 3.20312,3.96155 2.586,2.11903 4.68074,2.69285 10.36798,2.84014 l 4.37338,0.11326 v 3.34599 3.34599 l -2.76194,0.14851 c -3.43617,0.18476 -7.89136,0.14385 -10.36497,-0.0952 z m 26.23254,-23.26093 c -0.16725,-1.79109 -0.80299,-3.10491 -1.80083,-3.7216 -0.41269,-0.25506 -1.51489,-0.6702 -2.44935,-0.92255 -3.07674,-0.83086 -5.51015,-1.04133 -11.9225,-1.03116 -5.40009,0.009 -6.40273,0.068 -8.37911,0.4971 -2.84931,0.61856 -4.52128,1.42632 -5.36599,2.59242 -0.59697,0.82409 -1.13577,2.53659 -1.13577,3.60989 0,0.43517 0.28263,0.4432 15.59529,0.4432 h 15.59528 z"
     id="path6349" />
  <path
     style="fill:#f8ad1d;fill-opacity:1;stroke:#f8ad1d;stroke-width:0.900115;stroke-miterlimit:4;stroke-dasharray:none"
     d="m 406.26841,450.64804 c -1.43123,-0.44848 -2.07086,-0.98276 -2.55782,-2.1365 -0.39861,-0.94445 -0.48307,-1.98788 -0.72854,-9.00157 -0.29803,-8.5157 -0.2214,-10.75983 0.46899,-13.73466 1.16203,-5.00715 4.61811,-8.4238 9.94775,-9.8343 2.22424,-0.58864 8.79359,-0.85856 10.34235,-0.42493 2.18065,0.61054 3.26834,2.94675 2.19305,4.71029 -0.64723,1.06149 -1.54394,1.41898 -4.51229,1.7989 -4.18249,0.53533 -5.55016,1.02302 -7.15906,2.55281 -2.08499,1.98247 -2.23678,2.85354 -2.40074,13.77763 l -0.13641,9.08755 -0.61535,1.31322 c -0.51111,1.09077 -0.78052,1.3882 -1.59032,1.75573 -1.11789,0.50736 -1.95442,0.5423 -3.25161,0.13583 z"
     id="path6388" />
  <path
     style="fill:#f8ad1d;fill-opacity:1;stroke:#f8ad1d;stroke-width:0.900115;stroke-miterlimit:4;stroke-dasharray:none"
     d="m 462.56487,450.75102 c -1.64047,-0.40527 -2.47699,-1.4289 -3.16729,-3.87574 -0.37526,-1.33012 -0.41058,-2.29998 -0.35568,-9.76911 0.0398,-5.41549 -0.0266,-8.7259 -0.19121,-9.54193 -0.74626,-3.69817 -3.68402,-5.47759 -9.03004,-5.46959 -4.95158,0.007 -8.47969,1.49892 -9.83642,4.15833 -0.9103,1.78435 -1.09302,3.84596 -1.10282,12.44351 -0.01,8.54703 -0.0894,9.33133 -1.08127,10.64518 -0.73237,0.97012 -1.75698,1.39582 -3.35956,1.39582 -1.36644,0 -2.20719,-0.32919 -2.99113,-1.17115 -1.2143,-1.30419 -1.42474,-3.29185 -1.43944,-13.59531 -0.0102,-7.13919 0.0391,-8.3049 0.42848,-10.14502 0.63995,-3.02392 1.59841,-4.87019 3.53074,-6.80125 2.104,-2.1026 4.18142,-3.14585 7.06381,-3.54736 3.22455,-0.44916 11.25456,-0.33538 16.73305,0.2371 5.80091,0.60618 7.02771,0.60737 16.03049,0.0156 10.54675,-0.69322 13.647,-0.47925 17.05039,1.17676 5.17426,2.51769 6.53412,7.85859 6.04146,23.72802 -0.20417,6.57667 -0.232,6.86368 -0.77095,7.95127 -0.95826,1.93373 -2.75446,2.68036 -4.90901,2.04052 -1.08521,-0.32227 -2.05584,-1.10991 -2.52315,-2.04749 -0.43758,-0.87796 -0.56678,-3.24304 -0.54504,-9.97776 0.0121,-3.73842 -0.076,-7.48778 -0.19573,-8.33193 -0.57842,-4.0784 -2.67779,-6.81736 -6.00725,-7.83744 -4.08724,-1.25227 -9.85956,-0.0455 -12.13213,2.53622 -1.72042,1.95449 -1.7355,2.05643 -1.74572,11.79709 -0.01,9.15369 -0.0755,9.85256 -1.12354,11.92082 -0.85242,1.68217 -2.59256,2.50418 -4.37104,2.06482 z"
     id="path6427" />
  <path
     style="fill:#f8ad1d;fill-opacity:1;stroke:#f8ad1d;stroke-width:0.900115;stroke-miterlimit:4;stroke-dasharray:none"
     d="m 517.36847,451.04027 c -4.34683,-0.26672 -8.1848,-1.03117 -10.13263,-2.01821 -3.7394,-1.89489 -6.13543,-6.07289 -6.1822,-10.77995 -0.0253,-2.54695 0.30031,-4.07654 1.33288,-6.26115 1.67874,-3.55172 4.67061,-5.44877 10.09739,-6.40244 1.8229,-0.32035 4.02943,-0.38238 14.19929,-0.39916 10.50127,-0.0173 12.30243,-0.0709 14.08535,-0.41883 1.1244,-0.21942 2.12847,-0.48306 2.23128,-0.58588 0.19483,-0.19482 -2.14465,-0.88563 -5.07078,-1.49732 -0.93715,-0.1959 -3.37478,-0.50311 -5.41695,-0.68268 -4.14295,-0.36428 -4.92533,-0.64797 -5.57752,-2.02236 -0.77809,-1.63971 -0.15666,-3.4653 1.45707,-4.28046 0.71259,-0.35997 1.41859,-0.39017 7.15192,-0.30598 5.75871,0.0846 6.51192,0.14063 7.95161,0.59196 4.72382,1.48093 7.2305,4.14729 8.16036,8.68019 0.40027,1.9513 0.46689,8.44878 0.15673,15.28802 -0.16025,3.53385 -0.22909,3.98241 -0.8097,5.27587 -0.76451,1.70316 -2.53991,3.47785 -4.26936,4.26765 -2.45961,1.12325 -3.55071,1.27715 -10.50808,1.48212 -6.23556,0.1837 -16.37939,0.22062 -18.85666,0.0686 z m 20.33339,-7.13729 c 0.84029,-0.12155 2.11317,-0.53148 2.95346,-0.95118 2.63435,-1.31576 3.40783,-3.16978 3.40783,-8.16853 v -2.70149 l -13.46093,0.0812 c -11.88936,0.0717 -13.62009,0.1268 -14.82407,0.4718 -2.08085,0.59627 -3.7763,1.56324 -4.58348,2.61411 -1.3722,1.78646 -1.48204,4.51536 -0.25132,6.24374 0.99473,1.39697 4.18012,2.33253 9.03779,2.65442 3.40318,0.22552 15.63946,0.057 17.72072,-0.24407 z"
     id="path6466" />
  <path
     style="fill:#f8ad1d;fill-opacity:1;stroke:#f8ad1d;stroke-width:0.900115;stroke-miterlimit:4;stroke-dasharray:none"
     d="m 556.15007,436.93578 0.0683,-14.02891 0.54808,-1.36225 c 1.04896,-2.60717 3.72863,-4.76796 7.07237,-5.70293 2.49433,-0.69745 22.70467,-1.13025 26.89848,-0.57602 6.68323,0.88322 10.8124,3.16226 12.13525,6.69789 0.86364,2.30826 0.97047,3.7679 0.99817,13.63699 0.0346,12.32572 -0.14389,13.45806 -2.31049,14.65758 -2.07825,1.15062 -4.62135,0.5449 -5.69809,-1.35717 l -0.56797,-1.00332 -0.14789,-9.76912 c -0.14452,-9.54642 -0.27401,-11.23691 -0.96123,-12.54907 -0.42622,-0.81381 -1.64215,-1.95179 -2.6034,-2.43649 -2.94121,-1.4831 -15.2546,-1.83022 -21.27749,-0.59983 -3.65884,0.74745 -5.06965,1.80858 -5.96681,4.48788 -0.31553,0.94233 -0.38124,2.74817 -0.45545,12.51743 l -0.0867,11.41624 h -3.85676 -3.85676 z"
     id="path6505" />
  <path
     style="fill:#f8ad1d;fill-opacity:1;stroke:#f8ad1d;stroke-width:0.900115;stroke-miterlimit:4;stroke-dasharray:none"
     d="m 622.55686,451.03831 c -6.29552,-0.53463 -10.45694,-1.87517 -12.70688,-4.09333 -3.63458,-3.58324 -5.08356,-13.93863 -3.0587,-21.85945 0.63726,-2.49278 1.39894,-3.96805 2.81544,-5.4531 1.46073,-1.53142 3.04628,-2.44351 5.91867,-3.40471 1.90852,-0.63866 2.36798,-0.69506 7.48585,-0.91891 9.4537,-0.41349 19.53124,-0.20492 22.29676,0.46148 3.90916,0.94197 7.2465,3.82848 8.11989,7.02299 0.47015,1.71962 0.87351,12.4783 0.58772,15.67602 -0.50227,5.61993 -2.26927,8.87101 -5.83759,10.74049 -2.65352,1.39019 -3.58758,1.54469 -10.6267,1.75764 -6.26064,0.1894 -13.21194,0.22226 -14.99446,0.0709 z m 17.64555,-7.5203 c 3.27701,-0.89705 4.23441,-1.64782 5.08316,-3.98609 1.71157,-4.71531 1.12614,-12.64673 -1.11555,-15.11363 -1.78644,-1.96592 -8.41152,-2.87761 -17.12473,-2.35658 -6.71519,0.40155 -9.7636,1.3125 -10.95654,3.27413 -1.90629,3.13464 -1.69593,13.63303 0.32121,16.03026 0.96905,1.15164 3.68386,2.16755 7.05566,2.64028 0.37486,0.0526 3.90197,0.0715 7.83802,0.0421 6.46348,-0.0483 7.32515,-0.0997 8.89877,-0.53044 z"
     id="path6544" />
  <path
     style="fill:#f8ad1d;fill-opacity:1;stroke:#f8ad1d;stroke-width:0.900115;stroke-miterlimit:4;stroke-dasharray:none"
     d="m 687.53285,450.75369 c -1.52073,-0.367 -2.36795,-1.17796 -2.98375,-2.85605 -0.38604,-1.05197 -0.42229,-2.26817 -0.49045,-16.45101 -0.0411,-8.54472 0.024,-16.6296 0.14724,-18.28869 0.3352,-4.51345 1.24542,-6.50735 3.33488,-7.30533 2.13927,-0.81699 5.05035,0.0122 7.37257,2.10012 1.02989,0.92596 6.75151,7.78988 16.80329,20.15799 7.58738,9.33583 8.16236,9.90105 10.07398,9.90306 0.63029,6.8e-4 1.45131,-0.18411 1.95115,-0.43911 1.07841,-0.55016 3.12298,-2.65757 5.30367,-5.46665 3.82662,-4.92936 20.05262,-24.47273 20.81749,-25.07355 1.27487,-1.00144 2.98943,-1.73004 4.07715,-1.73251 2.28644,-0.005 3.57301,1.58146 4.51145,5.5639 0.32419,1.37567 0.3878,3.74436 0.47091,17.54918 0.0997,16.55854 0,19.22636 -0.79742,20.58919 -0.54705,0.9392 -2.03502,1.73749 -3.51331,1.88483 -1.00227,0.0999 -1.32099,0.0326 -1.98385,-0.41925 -0.90897,-0.61955 -1.69679,-1.70461 -2.09554,-2.88623 -0.19803,-0.58683 -0.28901,-3.54561 -0.31819,-10.34554 -0.0225,-5.23801 -0.10697,-10.14529 -0.18783,-10.90506 -0.22038,-2.06954 -0.8386,-5.35828 -1.00565,-5.34952 -0.0808,0.004 -0.5751,0.74544 -1.09859,1.64712 -2.39671,4.1282 -15.02435,20.42553 -19.35608,24.98101 -2.74823,2.89021 -5.32941,3.82487 -8.39443,3.03965 -3.17712,-0.81394 -4.63572,-2.18451 -11.16935,-10.49527 -13.17092,-16.75335 -15.80369,-20.0652 -15.96001,-20.07657 -0.0937,-0.007 -0.1704,6.93959 -0.1704,15.43644 v 15.44884 l -2.32868,-0.0232 c -1.28078,-0.0128 -2.63539,-0.0973 -3.01025,-0.18774 z"
     id="path6583" />
  <path
     style="fill:#f8ad1d;fill-opacity:1;stroke:#f8ad1d;stroke-width:0.900115;stroke-miterlimit:4;stroke-dasharray:none"
     d="m 779.08989,451.04138 c -4.50785,-0.36762 -8.27964,-1.19511 -10.44816,-2.29222 -4.41267,-2.23248 -6.79437,-8.57457 -5.34639,-14.23625 1.31245,-5.13161 4.44132,-7.66244 11.02364,-8.91648 1.76145,-0.3356 3.72813,-0.39259 14.19924,-0.41149 10.62826,-0.0192 12.41139,-0.0722 14.19895,-0.42264 1.12439,-0.22039 2.12487,-0.48118 2.22321,-0.57954 0.20327,-0.20327 -2.26717,-0.95423 -4.91216,-1.4932 -0.97932,-0.19956 -3.41001,-0.50554 -5.40151,-0.67996 -3.98797,-0.34928 -4.69448,-0.59314 -5.59647,-1.93167 -0.95855,-1.42235 -0.40745,-3.19489 1.30629,-4.20163 0.75002,-0.44061 1.13677,-0.46592 6.92849,-0.45338 6.02777,0.013 6.16954,0.0241 8.17882,0.63855 5.49153,1.67933 7.87143,4.79047 8.51667,11.1333 0.31789,3.12572 -0.0743,14.25182 -0.56858,16.14208 -0.94137,3.59753 -3.39808,5.97928 -7.27893,7.05672 -1.00145,0.27805 -2.99566,0.42592 -7.71204,0.57187 -6.07765,0.18806 -17.39052,0.23256 -19.31107,0.0759 z m 21.04657,-7.23494 c 2.68977,-0.54217 4.25095,-1.69466 5.22922,-3.86042 0.43933,-0.97249 0.52627,-1.61811 0.60443,-4.48697 l 0.0912,-3.35103 -12.34973,0.002 c -13.13178,10e-4 -15.31314,0.13779 -17.94298,1.12172 -2.30587,0.86275 -3.65214,2.82974 -3.67802,5.3737 -0.036,3.57465 2.58386,5.04147 9.8955,5.53982 3.9542,0.26951 16.27438,0.04 18.15037,-0.33816 z"
     id="path6622" />
  <path
     style="fill:#f8ad1d;fill-opacity:1;stroke:#f8ad1d;stroke-width:0.900115;stroke-miterlimit:4;stroke-dasharray:none"
     d="m 818.05281,438.25855 c 0,-13.22591 0.11889,-15.38978 0.95232,-17.33135 0.83441,-1.94398 3.24949,-3.75966 6.10496,-4.58975 4.53658,-1.31881 9.29624,-1.57467 21.56848,-1.15943 10.02661,0.33925 10.9148,0.44842 13.2419,1.62765 1.39023,0.7045 2.98073,2.15492 3.6898,3.36494 1.18192,2.01682 1.23646,2.77812 1.24006,17.33314 v 13.46093 h -1.77631 c -3.47092,0 -5.18879,-1.02533 -5.69825,-3.4011 -0.15542,-0.72457 -0.24986,-4.2468 -0.24986,-9.31621 0,-8.74688 -0.18392,-11.12179 -0.98555,-12.72783 -0.59363,-1.18947 -2.09749,-2.30502 -3.86472,-2.86691 -1.66364,-0.52896 -14.00902,-0.94655 -17.52787,-0.59289 -4.30105,0.43227 -6.97364,1.60957 -7.89221,3.47659 -0.78385,1.59316 -0.91632,3.20117 -1.05636,12.81938 -0.12677,8.70332 -0.17635,9.61719 -0.56452,10.39836 -0.79578,1.60127 -2.25652,2.19506 -5.42455,2.20506 l -1.7607,0.005 z"
     id="path6661" />
  <path
     style="fill:#f8ad1d;fill-opacity:1;stroke:#f8ad1d;stroke-width:0.900115;stroke-miterlimit:4;stroke-dasharray:none"
     d="m 884.61911,451.04295 c -3.22302,-0.30886 -5.37647,-0.65701 -7.0329,-1.13701 -5.03975,-1.46047 -7.96872,-4.18284 -9.02838,-8.39146 -0.3284,-1.30426 -0.39478,-2.63995 -0.39448,-7.92974 4.5e-4,-7.01256 0.25278,-9.06233 1.40553,-11.41656 1.15267,-2.3541 3.62626,-4.26984 7.28583,-5.64271 2.20161,-0.82596 4.02449,-1.1193 9.01391,-1.45053 11.35788,-0.75402 21.94856,0.41132 25.7928,2.8381 1.30614,0.82455 2.87745,2.73859 3.40919,4.15286 0.70179,1.86659 0.97767,6.45851 0.82158,13.67713 -0.14019,6.48486 -0.33657,7.82426 -1.41798,9.66947 -0.7378,1.25904 -2.78451,3.13971 -4.19432,3.85412 -2.49939,1.26655 -3.9497,1.49563 -10.77993,1.70276 -6.24155,0.18927 -13.30888,0.22422 -14.88085,0.0736 z m 15.33526,-7.12703 c 2.21144,-0.31162 4.29663,-1.08575 5.34751,-1.98527 2.00433,-1.71564 3.06287,-5.51126 2.88885,-10.35856 -0.1648,-4.5904 -1.15695,-6.9775 -3.36898,-8.10599 -2.64432,-1.34906 -9.56943,-1.89151 -17.18088,-1.3458 -4.92243,0.35291 -8.16352,1.34225 -9.27186,2.83019 -1.94965,2.61754 -2.26619,11.33981 -0.5556,15.3108 0.40438,0.93882 0.76907,1.37774 1.565,1.88375 1.23031,0.7822 3.45239,1.49443 5.48163,1.75704 2.08819,0.27023 13.20251,0.28042 15.09433,0.0138 z"
     id="path6700" />
  <path
     style="fill:#f8ad1d;fill-opacity:1;stroke:#f8ad1d;stroke-width:0.900115;stroke-miterlimit:4;stroke-dasharray:none"
     d="m 922.13779,450.6255 c -1.58788,-0.49535 -2.54748,-1.61182 -2.83281,-3.29584 -0.0743,-0.43733 -0.14995,-9.02507 -0.16863,-19.08385 -0.0367,-19.84999 -0.0577,-19.4875 1.20893,-21.36667 0.58343,-0.86571 1.87067,-1.35926 3.60384,-1.38175 1.5794,-0.0205 2.40788,0.51992 3.11747,2.0336 l 0.60481,1.29018 0.063,18.83353 c 0.0562,16.81996 0.024,18.96906 -0.30537,20.10118 -0.48621,1.67248 -1.03326,2.39739 -2.1449,2.84218 -1.09034,0.43628 -1.81561,0.44261 -3.14643,0.0274 z"
     id="path6739" />
  <path
     style="fill:#f8ad1d;fill-opacity:1;stroke:#f8ad1d;stroke-width:0.900115;stroke-miterlimit:4;stroke-dasharray:none"
     d="m 946.52806,451.03831 c -4.62636,-0.39288 -7.09456,-0.95894 -9.79325,-2.24595 -2.49362,-1.18923 -4.09373,-2.77112 -4.86993,-4.81449 -0.57629,-1.51701 -0.88023,-5.82585 -0.94152,-13.34658 -0.0525,-6.46754 0.54802,-8.5693 3.19624,-11.18438 1.36825,-1.3511 4.48767,-3.01778 6.68778,-3.57325 3.41444,-0.86206 23.63995,-1.02858 28.20174,-0.2322 3.90335,0.68144 6.86398,2.9352 8.25953,6.28739 2.05054,4.92563 2.40616,12.99623 0.84393,19.15452 -1.30171,5.13164 -3.81844,7.84807 -8.52649,9.20315 -1.46096,0.4205 -2.60411,0.5173 -8.06361,0.68286 -6.24462,0.18937 -13.19981,0.22134 -14.99442,0.0689 z m 17.63896,-7.50155 c 3.54938,-0.91878 4.74616,-2.00472 5.58447,-5.06746 0.32006,-1.16948 0.40212,-2.32758 0.39432,-5.56612 -0.009,-3.84299 -0.0472,-4.20254 -0.6357,-5.96709 -0.80111,-2.40344 -1.56553,-3.20536 -3.697,-3.87843 -2.11287,-0.66722 -4.06837,-0.92117 -8.38,-1.0883 -4.43352,-0.17184 -10.32747,0.21134 -12.73948,0.82825 -2.64042,0.67529 -3.94401,1.49413 -4.66763,2.93184 -0.84993,1.68874 -1.22648,4.15954 -1.19707,7.85529 0.051,6.40684 1.13594,8.46909 5.08647,9.66768 2.51185,0.7621 3.96771,0.86437 11.35938,0.79796 6.2573,-0.0563 7.37457,-0.12076 8.89224,-0.51362 z"
     id="path6778" />
  <path
     style="fill:#f8ad1d;fill-opacity:1;stroke:#f8ad1d;stroke-width:0.900115;stroke-miterlimit:4;stroke-dasharray:none"
     d="m 882.27033,247.73473 c -6.24515,-3.16119 -12.13985,-8.61278 -16.57135,-15.32563 -3.17058,-4.80273 -5.82322,-11.05635 -6.98677,-16.47119 -0.69323,-3.22631 -0.87011,-9.44839 -0.35457,-12.47281 0.47181,-2.76824 1.41994,-5.80024 1.86744,-5.97195 0.3914,-0.1502 2.86477,0.76533 5.19659,1.92352 5.56302,2.76313 11.35991,8.43745 14.84973,14.53571 4.22889,7.38995 6.01135,15.36139 5.60022,25.04519 -0.21663,5.10277 -0.80148,9.63259 -1.25251,9.70151 -0.18745,0.0286 -1.24441,-0.40532 -2.34878,-0.96435 z"
     id="path6817" />
  <path
     style="fill:#f8ad1d;fill-opacity:1;stroke:#f8ad1d;stroke-width:0.900115;stroke-miterlimit:4;stroke-dasharray:none"
     d="m 923.92279,232.71665 c -0.18745,-0.0611 -1.31207,-0.4217 -2.49909,-0.8015 -2.67545,-0.85602 -7.36707,-3.08301 -10.21444,-4.84849 -7.91921,-4.91026 -14.75799,-12.12384 -18.40293,-19.41155 -3.7036,-7.40508 -4.77669,-16.60909 -2.13792,-18.33807 1.83083,-1.19957 5.27407,-0.589 10.42191,1.84804 4.51573,2.1378 7.68706,4.33365 11.32945,7.84455 6.92084,6.67094 10.87714,15.42155 12.07032,26.6974 0.18512,1.74935 0.33762,4.07519 0.33897,5.16854 0,2.02609 -0.0443,2.12165 -0.90627,1.84108 z"
     id="path6856" />
  <path
     style="fill:#f8ad1d;fill-opacity:1;stroke:#f8ad1d;stroke-width:0.900115;stroke-miterlimit:4;stroke-dasharray:none"
     d="m 948.68631,197.86422 c -13.1101,-0.52153 -21.77041,-3.36176 -30.10248,-9.8724 -2.18488,-1.70724 -6.14838,-5.75458 -7.78509,-7.94974 -2.23281,-2.99464 -3.65462,-6.39605 -3.32375,-7.9516 0.5841,-2.74674 2.88914,-3.7814 8.4043,-3.77244 15.84218,0.0257 31.17129,9.42361 37.57276,23.03497 1.03303,2.19642 2.27714,5.70485 2.27714,6.42152 0,0.36793 -0.0367,0.3684 -7.04288,0.0897 z"
     id="path6895" />
  <path
     style="fill:#f8ad1d;fill-opacity:1;stroke:#f8ad1d;stroke-width:0.900115;stroke-miterlimit:4;stroke-dasharray:none"
     d="m 832.02492,252.51229 c -1.71254,-0.85679 -3.7045,-3.99467 -5.56256,-8.76255 -4.11563,-10.56066 -4.76049,-21.88045 -1.78508,-31.33325 1.34965,-4.28764 4.2976,-9.50133 7.39977,-13.08713 l 0.96095,-1.11072 1.83924,1.81678 c 4.02651,3.97735 7.00252,9.82468 8.38277,16.47046 1.3525,6.51252 1.23128,14.21927 -0.32434,20.61602 -1.66146,6.83188 -5.65985,13.91366 -8.63886,15.301 -1.10639,0.51522 -1.39788,0.52669 -2.27189,0.0894 z"
     id="path6934" />
  <path
     style="fill:#f8ad1d;fill-opacity:1;stroke:#f8ad1d;stroke-width:0.900115;stroke-miterlimit:4;stroke-dasharray:none"
     d="m 786.18715,245.75643 c -3.14185,-8.24519 -4.47725,-16.4053 -3.82009,-23.34364 1.26916,-13.39969 7.18029,-24.4697 15.22358,-28.50997 1.45691,-0.73181 1.34394,-0.81294 2.76177,1.98392 2.03426,4.0127 3.33703,8.33142 3.97941,13.1912 0.44474,3.36484 0.31977,10.08194 -0.2461,13.22126 -2.07177,11.49481 -7.41763,20.338 -14.85776,24.57796 -0.94662,0.53942 -1.83781,0.98077 -1.98055,0.98077 -0.14267,0 -0.6198,-0.94567 -1.06026,-2.1015 z"
     id="path6973" />
  <path
     style="fill:#f8ad1d;fill-opacity:1;stroke:#f8ad1d;stroke-width:0.900115;stroke-miterlimit:4;stroke-dasharray:none"
     d="m 737.17362,220.45343 c 0,-1.14188 1.12365,-6.12286 1.94117,-8.60492 1.07984,-3.27837 3.96959,-9.1628 5.96897,-12.1546 2.30054,-3.44251 4.16626,-5.66966 7.23205,-8.63317 3.25152,-3.14301 6.15071,-5.25293 9.50777,-6.91937 4.4612,-2.21457 7.05368,-2.82931 11.98421,-2.84182 l 3.12385,-0.008 v 0.57693 c 0,2.71947 -0.88024,7.68107 -1.97343,11.12329 -4.82222,15.18456 -18.33857,26.10879 -34.42461,27.82275 -3.28144,0.34963 -3.35998,0.34118 -3.35998,-0.36117 z"
     id="path7012" />
  <path
     style="fill:#f8ad1d;fill-opacity:1;stroke:#f8ad1d;stroke-width:0.900115;stroke-miterlimit:4;stroke-dasharray:none"
     d="m 713.65956,189.45932 c -2.49908,-0.22245 -4.76923,-0.41318 -5.04477,-0.42386 l -0.50099,-0.0194 0.56125,-1.49111 c 2.18117,-5.79486 7.19047,-12.33065 13.12342,-17.12258 5.82635,-4.70584 13.24105,-8.46712 19.01012,-9.64336 3.00661,-0.61299 5.96094,-0.88113 8.29396,-0.75275 2.51852,0.13859 8.29719,1.00359 8.59378,1.28639 0.31526,0.30067 -0.93102,4.49822 -2.01484,6.78624 -2.58228,5.45126 -6.6247,10.02701 -12.26017,13.87768 -5.79217,3.9577 -12.48437,6.57485 -19.46158,7.61086 -2.91055,0.43217 -4.40692,0.41647 -10.30018,-0.10809 z"
     id="path7051" />
  <path
     style="fill:#f8ad1d;fill-opacity:1;stroke:#f8ad1d;stroke-width:0.900115;stroke-miterlimit:4;stroke-dasharray:none"
     d="m 715.20477,156.30256 c -2.94592,-0.31159 -5.6693,-0.88229 -8.24728,-1.72826 -2.97494,-0.97624 -8.45553,-3.30089 -8.56513,-3.633 -0.15509,-0.46989 1.84931,-3.16511 3.79634,-5.10476 7.14819,-7.12111 21.72639,-12.50065 33.96254,-12.53261 3.62641,-0.009 6.02215,0.3019 8.63316,1.12203 1.7553,0.55133 8.42635,3.35942 8.8323,3.7178 0.24656,0.21764 -1.30937,3.13927 -2.61596,4.9121 -4.9183,6.6735 -13.47,11.28213 -23.93705,12.90005 -2.75392,0.42569 -9.30196,0.61709 -11.85892,0.34665 z"
     id="path7090" />
  <path
     style="fill:#f8ad1d;fill-opacity:1;stroke:#f8ad1d;stroke-width:0.900115;stroke-miterlimit:4;stroke-dasharray:none"
     d="m 735.67463,116.07417 c -11.88857,-0.91618 -23.22972,-6.27283 -29.20861,-13.79582 -1.67569,-2.10845 -3.27357,-4.7843 -3.00634,-5.034464 0.41647,-0.38987 9.34992,-2.727589 12.69896,-3.323091 11.31706,-2.012305 24.92208,0.545778 33.42757,6.285265 2.3148,1.56199 5.43827,4.58903 6.85108,6.63954 1.3987,2.03009 2.41538,4.01923 2.16665,4.2393 -0.31106,0.27533 -6.64795,2.88808 -8.51749,3.51184 -2.49632,0.83291 -4.5125,1.21589 -7.81113,1.48375 -3.1396,0.25494 -3.21131,0.25488 -6.60069,-0.006 z"
     id="path7129" />
  <path
     style="fill:#f8ad1d;fill-opacity:1;stroke:#f8ad1d;stroke-width:0.900115;stroke-miterlimit:4;stroke-dasharray:none"
     d="m 753.68076,86.197461 c -15.55354,-2.419292 -28.53752,-13.740695 -33.81125,-29.481694 -0.55019,-1.642198 -0.62279,-2.071491 -0.37835,-2.237007 0.16836,-0.114003 2.72019,-0.164424 5.75503,-0.113712 5.19262,0.08677 5.58244,0.124452 8.17883,0.790609 12.85942,3.299433 23.18712,9.865286 28.83962,18.334899 2.48814,3.72815 3.72565,6.962699 4.53088,11.842344 l 0.11716,0.710094 -1.99195,0.25546 c -2.6609,0.341241 -8.74853,0.286537 -11.23997,-0.100993 z"
     id="path7168" />
  <path
     style="fill:#f8ad1d;fill-opacity:1;stroke:#f8ad1d;stroke-width:0.900115;stroke-miterlimit:4;stroke-dasharray:none"
     d="m 827.14037,190.80267 c -19.05507,-1.19493 -33.85506,-7.71902 -46.12356,-20.33201 -10.26236,-10.55049 -16.58942,-24.88756 -17.93352,-40.63729 -1.01578,-11.90208 1.3621,-24.69811 6.49088,-34.929611 3.65447,-7.290379 7.47133,-12.600017 11.47055,-15.956584 8.34084,-7.000639 19.45149,-11.113971 34.63958,-12.824138 9.02396,-1.016088 21.56181,-1.175595 28.26805,-0.359626 11.40371,1.387535 23.51979,5.017055 31.16679,9.336401 8.79353,4.967001 12.17406,9.310538 20.84952,26.789338 8.70382,17.53584 11.82369,28.03682 11.82369,39.79641 0,12.42431 -3.69317,21.82586 -13.64155,34.72671 -4.13565,5.36299 -6.67038,7.72181 -8.95412,8.33261 -0.94962,0.25397 -1.14817,0.23669 -1.89819,-0.16519 -0.56062,-0.30037 -0.9311,-0.71174 -1.12004,-1.24368 -0.48067,-1.35309 -0.30597,-2.21679 1.85168,-9.15403 2.59984,-8.35883 3.72858,-15.37269 3.92653,-24.39885 0.15077,-6.87721 -0.0838,-10.16258 -1.08179,-15.15269 -3.78918,-18.94493 -16.69834,-33.79864 -35.42531,-40.761679 -5.62062,-2.08985 -9.94485,-3.046568 -18.28629,-4.045778 -4.96939,-0.595276 -5.39454,-0.612604 -8.75715,-0.356918 -14.6394,1.11315 -23.5855,4.072856 -29.15623,9.645973 -3.83667,3.838362 -6.09439,8.801962 -6.74277,14.824202 -0.44346,4.11852 0.31992,9.36735 2.29545,15.78353 4.55743,14.80151 8.22082,22.62724 13.05819,27.89452 3.70638,4.03574 9.20743,7.29419 14.66836,8.68849 3.73225,0.95291 8.79502,0.96172 12.75103,0.0222 11.21829,-2.66434 20.52795,-12.12786 20.47702,-20.81556 -0.0285,-4.84118 -2.10829,-9.40646 -6.10548,-13.40109 -3.11125,-3.10922 -6.25407,-4.88635 -10.07289,-5.69578 -5.19906,-1.10196 -9.85686,0.90106 -11.80179,5.07522 -0.51531,1.10597 -0.60502,1.60303 -0.6033,3.34378 0,2.68239 0.71244,4.34813 2.59241,6.08458 1.63506,1.51018 3.03886,2.03224 5.42252,2.01661 2.36513,-0.0155 3.22909,-0.34287 8.25271,-3.12709 2.34337,-1.29878 4.31702,-2.36143 4.38581,-2.36143 0.21768,0 0.12624,7.99452 -0.11042,9.65553 -0.34902,2.44936 -1.0202,4.16806 -2.28584,5.85296 -1.99886,2.66103 -5.60104,5.10819 -9.56192,6.49596 -9.08322,3.18248 -18.16223,0.89118 -25.52585,-6.44201 -4.7289,-4.7094 -7.71444,-10.53549 -9.35452,-18.25467 -0.55455,-2.61004 -0.61148,-3.33277 -0.61988,-7.87204 -0.01,-5.21988 0.15887,-6.60239 1.26871,-10.4103 1.72155,-5.9064 5.56759,-11.1805 10.30775,-14.1349 4.01811,-2.504368 9.55345,-3.507059 22.03504,-3.991486 17.57701,-0.682197 25.14765,0.83812 32.82083,6.590956 9.97028,7.4751 16.57038,23.2206 17.19851,41.02958 0.48111,13.64003 -3.16736,25.45414 -9.92768,32.14721 -2.72735,2.70022 -5.64289,4.71026 -9.87561,6.80842 -9.88829,4.90172 -20.00251,6.70184 -33.05591,5.88327 z"
     id="path7207" />
  <path
     style="fill:#f8ad1d;fill-opacity:1;stroke:#f8ad1d;stroke-width:0.900115;stroke-miterlimit:4;stroke-dasharray:none"
     d="m 927.69067,115.50777 c -5.25224,-0.71507 -8.55844,-2.0729 -15.09643,-6.2 -0.42845,-0.27049 -0.20808,-0.84126 1.09672,-2.83999 3.71755,-5.69473 11.03541,-10.021231 19.80636,-11.710065 10.20963,-1.965844 20.35896,-0.734052 28.85237,3.501703 3.37948,1.685384 5.42049,2.832192 5.42049,3.045692 0,0.41715 -2.32972,3.43379 -3.38375,4.38147 -1.78973,1.60915 -3.36884,2.56856 -7.59855,4.61664 -5.88968,2.85186 -10.99671,4.39331 -17.25754,5.20881 -3.23006,0.42073 -8.73254,0.41875 -11.83967,-0.004 z"
     id="path7246" />
  <path
     style="fill:#f8ad1d;fill-opacity:1;stroke:#f8ad1d;stroke-width:0.900115;stroke-miterlimit:4;stroke-dasharray:none"
     d="m 945.27848,155.817 c -4.39864,-0.44713 -10.65204,-1.90442 -14.19925,-3.30896 -4.4993,-1.78152 -7.74601,-4.20527 -9.93044,-7.41327 -1.08022,-1.58633 -2.09217,-3.79435 -1.83856,-4.01133 0.54164,-0.46331 4.52008,-2.80644 6.08928,-3.58629 7.64295,-3.79838 18.16425,-4.4422 28.65502,-1.75345 9.30216,2.38411 17.03025,7.41307 20.05539,13.05078 l 0.66871,1.24612 -3.44744,1.20991 c -11.44879,4.01805 -18.78976,5.30477 -26.05271,4.56649 z"
     id="path7285" />
  <path
     style="fill:#f8ad1d;fill-opacity:1;stroke:#f8ad1d;stroke-width:0.900115;stroke-miterlimit:4;stroke-dasharray:none"
     d="m 901.43109,81.998753 c -1.18711,-0.09051 -3.0886,-0.337236 -4.22567,-0.54829 l -2.06734,-0.383727 0.20913,-1.175423 c 0.11506,-0.646478 0.50534,-2.066034 0.86733,-3.154566 4.24735,-12.771084 18.05016,-22.862627 34.2962,-25.074677 2.60966,-0.355327 3.07697,-0.354641 7.46945,0.01097 2.57711,0.214506 4.95911,0.457276 5.29343,0.539489 l 0.60773,0.149479 -0.62716,1.94633 c -1.41948,4.405112 -4.28972,8.581129 -9.40395,13.682195 -10.29117,10.264622 -20.97449,14.880833 -32.41915,14.008224 z"
     id="path7324" />
  <path
     style="fill:#f8ad1d;fill-opacity:1;stroke:#f8ad1d;stroke-width:0.900115;stroke-miterlimit:4;stroke-dasharray:none"
     d="m 868.40053,56.053822 c -0.87071,-2.738146 -1.25146,-4.922561 -1.41581,-8.121999 -0.88256,-17.184085 11.1183,-35.866958 25.76558,-40.111566 1.05373,-0.3053724 1.96615,-0.5552219 2.02758,-0.5552219 0.0615,0 0.0608,3.6548989 0,8.1219979 -0.097,6.95383 -0.18219,8.497773 -0.59235,10.734669 -2.35582,12.847113 -8.8206,23.13709 -18.06029,28.746633 -1.63595,0.993208 -6.2633,3.052792 -6.8699,3.057705 -0.14147,0.0015 -0.52544,-0.841353 -0.85323,-1.872218 z"
     id="path7363" />
  <path
     style="fill:#f8ad1d;fill-opacity:1;stroke:#f8ad1d;stroke-width:0.900115;stroke-miterlimit:4;stroke-dasharray:none"
     d="m 832.46538,54.321677 c -3.67675,-2.242094 -7.14257,-12.602515 -7.14257,-21.351286 0,-10.217973 3.18844,-20.636632 8.3377,-27.2445351 1.78665,-2.2928584 5.29005,-5.27648404 6.19564,-5.27648404 0.53722,0 3.30597,6.21887554 4.62532,10.38893314 3.65364,11.548076 3.17403,24.904973 -1.22499,34.120564 -3.48532,7.301304 -7.89603,11.12825 -10.7911,9.362808 z"
     id="path7402" />
  <path
     style="fill:#f8ad1d;fill-opacity:1;stroke:#f8ad1d;stroke-width:0.900115;stroke-miterlimit:4;stroke-dasharray:none"
     d="m 799.95351,59.698779 c -2.47126,-1.642373 -5.58701,-4.82925 -7.41237,-7.581468 -4.69403,-7.077644 -7.0173,-16.029881 -6.68403,-25.755683 0.25278,-7.379912 1.68711,-12.800018 5.01191,-18.9394035 l 1.20668,-2.2282924 1.7184,1.1493219 c 3.34333,2.2361715 5.59287,5.252456 8.69976,11.665366 4.14931,8.564403 5.76119,15.435365 5.49191,23.410805 -0.18055,5.349966 -0.99846,9.099367 -3.02124,13.850539 -0.85391,2.005682 -2.83221,5.609662 -3.07989,5.610877 -0.0833,4.57e-4 -0.95225,-0.531518 -1.93113,-1.182062 z"
     id="path7441" />
  <path
     style="fill:#f8ad1d;fill-opacity:1;stroke:#f8ad1d;stroke-width:0.900115;stroke-miterlimit:4;stroke-dasharray:none"
     d="m 777.95394,65.870277 c -5.77761,-0.485717 -12.41213,-3.337132 -18.40225,-7.909035 -1.91875,-1.464435 -6.04075,-5.509383 -7.67386,-7.530342 -1.86511,-2.308049 -3.86322,-5.37477 -5.09128,-7.814131 -1.7421,-3.46024 -2.79891,-7.114101 -4.5245,-15.643109 -0.11507,-0.568883 -0.0668,-0.624769 0.54344,-0.624769 0.36845,0 1.57783,0.156876 2.68752,0.348613 11.47467,1.982601 22.2423,8.082046 29.49198,16.70609 5.29913,6.303728 8.27761,13.471914 8.84356,21.283399 l 0.10284,1.419932 -1.96638,-0.0324 c -1.08149,-0.01778 -2.88645,-0.109732 -4.01107,-0.204274 z"
     id="path7480" />
</svg>
