<?xml version="1.0" encoding="UTF-8" standalone="no"?>
<svg
   width="14.2204in"
   height="6.77693in"
   viewBox="0 0 1024 488"
   version="1.1"
   id="svg3"
   sodipodi:docname="logo.svg"
   inkscape:version="1.1.2 (76b9e6a115, 2022-02-25)"
   xmlns:inkscape="http://www.inkscape.org/namespaces/inkscape"
   xmlns:sodipodi="http://sodipodi.sourceforge.net/DTD/sodipodi-0.dtd"
   xmlns="http://www.w3.org/2000/svg"
   xmlns:svg="http://www.w3.org/2000/svg">
  <defs
     id="defs7">
    <linearGradient
       id="linearGradient2160"
       inkscape:swatch="solid">
      <stop
         style="stop-color:#f81d33;stop-opacity:1;"
         offset="0"
         id="stop2158" />
    </linearGradient>
  </defs>
  <sodipodi:namedview
     id="namedview5"
     pagecolor="#ffffff"
     bordercolor="#666666"
     borderopacity="1.0"
     inkscape:pageshadow="2"
     inkscape:pageopacity="0.0"
     inkscape:pagecheckerboard="0"
     inkscape:document-units="in"
     showgrid="false"
     inkscape:zoom="0.57875767"
     inkscape:cx="785.30277"
     inkscape:cy="258.31191"
     inkscape:window-width="1920"
     inkscape:window-height="1055"
     inkscape:window-x="1366"
     inkscape:window-y="0"
     inkscape:window-maximized="1"
     inkscape:current-layer="svg3" />
  <path
     id="Selection"
     fill="none"
     stroke="black"
     stroke-width="1"
     d="M 867.64,62.00            C 866.39,65.71 861.08,76.07 856.18,74.66              852.29,73.55 849.79,64.57 849.01,61.00              846.26,48.25 850.60,26.40 863.00,20.00              870.12,32.56 872.32,48.15 867.64,62.00 Z            M 826.22,39.00            C 832.77,52.93 833.49,67.81 825.00,81.00              810.63,73.26 806.48,52.94 809.67,38.00              810.79,32.73 812.38,29.62 815.00,25.00              820.88,27.92 823.52,33.26 826.22,39.00 Z            M 918.00,27.00            C 918.00,27.00 918.00,38.00 918.00,38.00              917.92,54.69 908.95,73.17 892.00,78.00              884.23,59.32 897.89,30.82 918.00,27.00 Z            M 807.00,86.00            C 803.99,86.00 800.96,86.12 798.00,85.48              785.35,82.78 773.31,71.85 768.47,60.00              766.92,56.19 765.78,50.14 765.00,46.00              785.50,47.72 806.80,64.39 807.00,86.00 Z            M 957.00,71.10            C 957.00,71.10 967.00,72.00 967.00,72.00              965.75,78.16 962.24,82.53 957.96,87.00              947.05,98.41 933.90,104.87 918.00,101.00              920.79,83.23 940.06,71.86 957.00,71.10 Z            M 753.00,74.22            C 769.19,76.99 788.38,88.16 790.00,106.00              767.72,109.99 747.80,95.49 742.00,74.22              745.67,74.00 749.36,73.86 753.00,74.22 Z            M 865.26,171.98            C 863.37,174.96 860.17,177.20 857.00,178.65              845.59,183.85 834.01,179.60 826.53,170.00              816.11,156.61 815.44,130.43 832.00,121.41              838.54,117.86 855.23,117.99 863.00,118.00              871.96,118.01 879.84,119.68 886.96,125.52              903.76,139.29 908.44,176.07 896.61,193.99              889.04,205.45 871.18,210.84 858.00,211.00              838.21,211.23 820.92,206.56 806.09,192.71              784.48,172.53 779.52,137.70 793.86,112.00              796.06,108.06 798.92,103.42 802.17,100.30              816.53,86.52 840.17,84.78 859.00,85.00              873.17,85.17 894.06,90.17 904.96,99.47              909.94,103.72 914.24,112.09 917.24,118.00              924.44,132.15 931.36,146.70 930.99,163.00              930.68,176.58 925.00,186.62 916.79,197.00              914.94,199.33 909.91,206.19 906.34,204.70              903.35,203.44 905.66,198.09 906.34,196.00              909.59,185.88 911.12,176.63 911.00,166.00              910.63,134.41 887.69,112.76 857.00,109.93              854.06,109.65 852.00,109.10 849.00,109.32              833.56,110.48 815.92,112.98 812.02,131.00              810.41,138.42 812.68,145.96 815.00,153.00              819.71,167.27 824.26,180.50 840.00,185.64              857.50,191.35 876.10,176.21 874.64,164.00              872.89,149.38 854.43,140.46 847.60,150.11              843.52,155.86 848.62,165.68 858.00,161.99              858.00,161.99 867.00,157.00 867.00,157.00              867.00,161.48 867.69,168.17 865.26,171.98 Z            M 746.00,113.01            C 759.60,112.71 776.24,117.50 782.00,131.00              778.01,132.69 773.25,134.97 769.00,135.68              753.72,138.23 732.97,131.74 726.00,117.00              733.31,115.08 738.09,113.19 746.00,113.01 Z            M 977.00,114.90            C 982.44,116.23 986.19,118.26 991.00,121.00              988.17,126.68 983.54,128.62 978.00,131.22              967.96,135.93 953.48,137.79 943.00,133.52              940.16,132.36 937.61,130.59 935.00,129.00              941.86,114.51 962.94,111.46 977.00,114.90 Z            M 760.00,153.01            C 767.58,153.19 770.33,155.13 777.00,158.00              770.20,173.94 748.58,178.88 733.00,175.48              728.99,174.61 724.79,172.61 721.00,171.00              726.79,159.31 747.57,152.73 760.00,153.01 Z            M 956.00,154.67            C 969.56,151.77 991.58,156.53 998.00,170.00              982.76,175.29 974.28,178.33 958.00,173.84              950.78,171.85 944.53,168.40 942.00,161.00              947.10,157.68 949.93,155.96 956.00,154.67 Z            M 764.00,180.46            C 770.80,179.12 774.38,179.79 781.00,181.00              778.33,197.98 759.19,209.33 743.00,209.96              743.00,209.96 731.00,209.00 731.00,209.00              734.82,195.91 750.76,183.08 764.00,180.46 Z            M 941.00,207.62            C 935.12,202.90 921.92,188.22 938.00,188.00              956.12,187.76 974.71,199.73 979.00,218.00              964.58,218.00 952.91,217.19 941.00,207.62 Z            M 790.00,201.79            C 793.34,200.84 796.57,201.00 800.00,201.00              799.93,222.87 781.88,240.93 760.00,241.00              761.33,225.14 774.30,206.25 790.00,201.79 Z            M 914.47,225.00            C 913.18,221.82 910.21,211.50 913.60,209.06              916.87,206.71 926.10,211.67 929.00,213.55              943.36,222.85 948.00,236.77 948.00,253.00              934.18,249.75 919.87,238.21 914.47,225.00 Z            M 805.08,246.00            C 805.08,234.21 810.20,217.64 822.00,213.00              833.97,232.31 826.26,261.57 810.00,268.00              807.10,261.38 805.08,253.27 805.08,246.00 Z            M 909.00,254.00            C 909.08,261.45 908.95,261.77 908.00,269.00              889.83,262.05 875.11,235.94 883.00,217.00              898.75,221.50 908.81,238.10 909.00,254.00 Z            M 865.56,259.00            C 864.52,262.50 860.32,272.80 856.06,272.80              852.30,272.80 848.97,263.06 848.04,260.00              843.50,245.13 845.09,229.55 856.00,218.00              867.36,226.95 869.48,245.83 865.56,259.00 Z            M 133.00,233.11            C 133.00,233.11 172.00,233.11 172.00,233.11              172.00,233.11 209.00,233.11 209.00,233.11              211.92,233.02 215.29,232.84 217.72,234.74              222.07,238.12 222.25,251.88 218.69,255.77              215.43,259.32 211.37,258.99 207.00,259.00              207.00,259.00 94.00,259.00 94.00,259.00              83.19,259.02 62.92,260.51 57.14,271.00              54.98,274.92 55.01,279.66 55.00,284.00              55.00,284.00 55.00,351.00 55.00,351.00              55.01,355.54 55.07,360.91 57.30,365.00              63.03,375.52 82.12,377.98 93.00,378.00              93.00,378.00 206.00,378.00 206.00,378.00              210.16,378.05 214.52,378.38 217.67,381.42              222.25,385.70 222.31,398.16 217.67,402.35              214.34,405.26 210.06,404.99 206.00,405.00              206.00,405.00 84.00,405.00 84.00,405.00              65.99,404.79 38.24,396.78 27.96,381.00              23.74,374.51 23.01,369.50 23.00,362.00              23.00,362.00 23.00,274.00 23.00,274.00              23.13,247.09 51.78,236.78 74.00,233.11              74.00,233.11 133.00,233.11 133.00,233.11 Z            M 281.65,367.91            C 287.91,376.26 303.27,377.98 313.00,378.00              313.00,378.00 389.00,378.00 389.00,378.00              389.00,378.00 428.00,378.00 428.00,378.00              431.70,378.05 436.76,378.35 439.77,380.72              443.31,383.50 443.09,387.94 442.99,392.00              442.71,403.15 438.01,404.98 428.00,405.00              428.00,405.00 345.00,405.00 345.00,405.00              325.69,405.00 306.99,406.16 288.00,401.99              265.95,397.14 246.04,386.06 246.00,361.00              246.00,361.00 246.00,278.00 246.00,278.00              246.01,272.81 246.08,270.04 247.75,265.00              249.79,258.84 253.30,254.47 258.00,250.09              277.07,232.35 305.74,233.00 330.00,233.00              330.00,233.00 349.00,233.00 349.00,233.00              352.85,233.01 356.67,232.67 359.77,235.43              364.34,239.48 364.34,252.52 359.77,256.57              356.67,259.33 352.85,258.99 349.00,259.00              332.71,259.03 314.86,257.87 299.00,261.42              292.60,262.86 283.70,266.03 280.30,272.04              276.85,278.14 278.00,298.19 278.00,306.00              278.00,306.00 428.00,306.00 428.00,306.00              432.14,306.01 436.43,305.74 439.87,308.51              446.18,313.59 445.04,325.72 438.90,330.49              435.33,333.26 431.25,332.99 427.00,333.00              427.00,333.00 278.00,333.00 278.00,333.00              278.00,341.85 276.53,361.07 281.65,367.91 Z            M 501.00,393.00            C 500.81,406.58 492.36,405.05 482.00,405.00              478.66,404.98 475.17,405.10 472.34,402.99              467.88,399.67 468.01,392.99 468.00,388.00              468.00,388.00 468.00,269.00 468.00,269.00              468.00,269.00 468.00,248.00 468.00,248.00              468.05,243.64 468.43,237.59 472.22,234.74              474.92,232.71 478.79,233.01 482.00,233.13              482.00,233.13 489.00,233.13 489.00,233.13              490.59,233.02 492.44,233.03 493.98,233.13              500.22,234.87 500.92,239.46 501.00,245.00              501.00,245.00 501.00,306.00 501.00,306.00              501.00,306.00 655.00,306.00 655.00,306.00              655.00,306.00 655.00,244.00 655.00,244.00              655.18,231.08 664.11,232.95 674.00,233.00              677.62,233.02 680.87,232.85 683.77,235.43              687.35,238.60 686.99,242.67 687.00,247.00              687.00,247.00 687.00,366.00 687.00,366.00              687.00,366.00 687.00,393.00 687.00,393.00              686.95,396.74 686.86,399.85 683.77,402.49              680.02,405.70 672.74,405.05 668.00,405.00              657.95,404.87 655.05,401.96 655.00,392.00              655.00,392.00 655.00,333.00 655.00,333.00              655.00,333.00 501.00,333.00 501.00,333.00              501.00,333.00 501.00,393.00 501.00,393.00 Z            M 744.00,338.00            C 744.00,338.00 744.00,391.00 744.00,391.00              743.95,394.95 743.72,399.49 740.58,402.35              736.12,406.43 717.58,406.25 713.43,401.72              710.67,398.71 711.01,394.79 711.00,391.00              711.00,391.00 711.00,269.00 711.00,269.00              711.00,269.00 711.00,252.00 711.00,252.00              711.02,242.34 713.58,235.93 724.00,233.28              726.15,233.03 728.79,232.94 731.00,233.28              743.09,233.57 748.02,240.64 755.28,249.00              755.28,249.00 772.58,269.00 772.58,269.00              772.58,269.00 833.85,340.00 833.85,340.00              840.46,347.52 853.95,364.84 861.00,370.00              863.90,363.76 871.92,355.52 876.58,350.00              876.58,350.00 908.58,312.00 908.58,312.00              908.58,312.00 949.75,263.00 949.75,263.00              954.17,257.70 967.54,240.89 972.01,237.64              981.15,230.98 996.63,230.80 1003.28,241.00              1006.01,245.20 1005.99,250.19 1006.00,255.00              1006.00,255.00 1006.00,370.00 1006.00,370.00              1006.00,370.00 1006.00,391.00 1006.00,391.00              1005.95,394.95 1005.72,399.49 1002.58,402.35              999.63,405.05 995.74,404.98 992.00,405.00              992.00,405.00 986.00,405.00 986.00,405.00              974.36,404.86 973.02,400.53 973.00,390.00              973.00,390.00 973.00,377.00 973.00,377.00              973.00,377.00 973.00,285.00 973.00,285.00              973.00,285.00 947.92,315.00 947.92,315.00              947.92,315.00 897.42,376.00 897.42,376.00              897.42,376.00 885.92,390.00 885.92,390.00              878.02,399.46 872.21,405.92 859.00,405.92              845.18,405.92 839.70,398.75 831.59,389.00              831.59,389.00 820.59,376.00 820.59,376.00              820.59,376.00 772.08,318.00 772.08,318.00              772.08,318.00 744.00,285.00 744.00,285.00              744.00,285.00 744.00,338.00 744.00,338.00 Z            M 41.00,471.00            C 36.14,470.94 31.84,470.45 28.23,466.78              24.67,463.17 25.01,459.65 25.00,455.00              25.00,455.00 25.00,441.00 25.00,441.00              25.01,432.27 26.48,427.73 36.00,425.53              38.38,424.98 40.58,425.01 43.00,425.00              43.00,425.00 68.00,425.00 68.00,425.00              70.95,425.06 74.71,425.00 74.71,429.00              74.71,430.16 74.33,431.24 73.40,431.98              71.82,433.23 67.98,433.00 66.00,433.00              66.00,433.00 44.00,433.00 44.00,433.00              41.42,433.04 38.42,433.00 36.31,434.74              33.78,436.83 34.02,440.04 34.00,443.00              33.96,449.61 31.91,460.32 40.00,462.86              41.83,463.08 45.04,463.00 47.00,462.86              47.00,462.86 67.00,462.86 67.00,462.86              69.15,463.03 72.52,462.89 74.01,464.74              75.18,466.19 74.98,469.21 75.00,471.00              75.00,471.00 41.00,471.00 41.00,471.00 Z            M 184.02,426.60            C 185.80,424.36 190.15,424.76 191.40,427.31              192.17,428.88 192.00,433.13 192.00,435.00              195.12,435.00 204.88,433.92 206.16,437.28              208.58,443.69 195.18,442.00 192.00,442.00              192.00,442.00 192.00,462.00 192.00,462.00              191.99,466.02 192.38,472.23 186.14,470.67              182.33,469.71 183.01,465.04 183.00,462.00              183.00,462.00 183.00,442.00 183.00,442.00              183.00,442.00 178.00,442.00 178.00,442.00              178.17,437.21 177.97,435.88 183.00,435.00              183.00,432.86 182.70,428.27 184.02,426.60 Z            M 317.00,433.00            C 317.02,430.10 316.57,426.23 320.14,425.33              328.53,423.23 326.00,439.24 326.00,444.00              326.00,444.00 363.00,444.00 363.00,444.00              363.00,440.80 362.59,429.55 363.74,427.29              365.02,424.77 369.19,424.34 370.98,426.60              372.15,428.08 371.99,431.18 372.00,433.00              372.00,433.00 372.00,471.00 372.00,471.00              370.05,470.99 366.28,471.26 364.74,470.01              362.06,467.84 363.00,455.63 363.00,452.00              363.00,452.00 326.00,452.00 326.00,452.00              326.00,455.48 326.92,467.99 324.40,469.98              322.81,471.24 318.99,470.99 317.00,471.00              317.00,471.00 317.00,433.00 317.00,433.00 Z            M 708.74,470.01            C 706.62,468.30 707.00,463.50 707.00,461.00              707.00,461.00 707.00,437.00 707.00,437.00              707.01,432.24 706.54,423.84 713.99,425.47              717.71,426.29 720.33,430.21 722.61,433.00              722.61,433.00 736.58,450.00 736.58,450.00              738.12,451.89 741.90,457.17 744.07,457.80              747.34,458.76 750.83,453.21 752.60,451.00              752.60,451.00 772.09,427.31 772.09,427.31              780.45,420.61 781.99,429.90 782.00,436.00              782.00,436.00 782.00,463.00 782.00,463.00              781.99,464.81 782.15,467.93 780.98,469.40              779.88,470.78 773.19,473.87 773.00,464.00              772.88,457.06 773.83,447.44 772.00,441.00              769.06,446.58 758.45,459.56 754.00,465.00              751.02,468.63 748.23,471.91 743.00,470.68              738.88,469.71 735.93,465.16 733.40,462.00              733.40,462.00 716.00,440.00 716.00,440.00              716.00,440.00 716.00,471.00 716.00,471.00              714.05,470.99 710.28,471.26 708.74,470.01 Z            M 951.00,435.00            C 951.00,435.00 951.00,464.00 951.00,464.00              950.92,467.86 950.31,471.96 945.14,470.67              941.85,469.84 942.06,466.74 942.00,464.00              942.00,464.00 942.00,438.00 942.00,438.00              942.00,434.01 941.20,429.37 943.60,426.02              951.37,422.79 950.99,429.61 951.00,435.00 Z            M 102.85,464.31            C 104.86,464.92 106.20,466.56 105.34,468.70              104.29,471.34 100.31,470.98 98.00,471.00              92.44,471.03 85.68,471.07 81.57,466.61              78.03,462.76 78.99,455.03 79.00,450.00              79.00,447.20 78.79,443.60 80.17,441.10              84.72,432.91 102.78,434.99 111.00,435.00              115.48,435.01 120.07,434.85 123.77,437.85              128.45,441.63 127.00,451.45 127.00,457.00              127.00,457.00 88.00,457.00 88.00,457.00              92.30,465.78 97.83,462.80 102.85,464.31 Z            M 130.00,447.00            C 130.06,443.25 130.05,440.42 133.23,437.85              136.93,434.85 141.52,435.01 146.00,435.00              154.37,434.99 172.33,432.62 176.69,441.04              178.18,443.92 178.00,447.82 178.00,451.00              178.01,454.29 178.41,466.43 177.26,468.71              175.98,471.23 171.81,471.66 170.02,469.40              168.77,467.81 169.00,463.99 169.00,462.00              168.99,458.49 169.58,447.82 167.98,445.28              166.65,443.17 164.31,442.51 162.00,442.19              157.45,441.56 142.77,441.08 139.74,444.51              137.68,446.84 138.00,451.06 138.00,454.00              138.00,454.00 138.00,471.00 138.00,471.00              138.00,471.00 130.00,471.00 130.00,471.00              130.00,471.00 130.00,447.00 130.00,447.00 Z            M 212.00,448.00            C 212.06,444.22 212.13,441.20 215.23,438.51              218.73,435.46 225.49,434.66 229.98,435.06              232.51,435.28 235.64,436.44 234.34,439.70              232.76,443.68 225.57,440.29 221.60,445.28              219.71,447.65 220.01,451.13 220.00,454.00              220.00,454.00 220.00,471.00 220.00,471.00              220.00,471.00 212.00,471.00 212.00,471.00              212.00,471.00 212.00,448.00 212.00,448.00 Z            M 272.00,435.00            C 276.14,435.05 280.45,435.34 283.67,438.42              288.56,443.24 288.45,461.84 283.67,466.78              279.64,471.05 274.43,470.99 269.00,471.00              261.44,471.01 248.09,472.36 242.23,467.35              239.09,464.68 239.06,461.80 239.00,458.00              238.86,447.58 236.86,439.42 249.00,435.53              254.39,434.64 266.06,434.93 272.00,435.00 Z            M 378.28,466.78            C 373.60,461.89 373.47,444.10 378.28,439.27              382.35,435.18 388.62,435.01 394.00,435.00              400.74,434.99 414.62,433.78 419.89,437.70              421.47,438.87 422.54,440.18 423.26,442.02              424.29,444.63 424.76,454.11 422.40,455.98              420.92,457.15 417.82,456.99 416.00,457.00              416.00,457.00 384.00,457.00 384.00,457.00              388.32,464.57 394.18,463.99 402.00,464.00              402.00,464.00 402.00,471.00 402.00,471.00              394.69,471.00 383.69,472.44 378.28,466.78 Z            M 447.57,435.52            C 449.66,436.62 450.21,439.48 448.39,440.98              446.12,442.85 440.03,440.97 436.60,445.28              434.19,448.30 435.01,457.95 435.00,462.00              434.99,466.02 435.38,472.23 429.14,470.67              425.57,469.77 426.02,465.90 426.00,463.00              425.92,451.51 422.83,438.98 437.00,435.52              439.43,435.13 445.42,434.49 447.57,435.52 Z            M 488.00,436.07            C 488.00,436.07 505.00,435.00 505.00,435.00              509.50,435.06 514.24,435.52 517.28,439.34              520.88,443.87 520.01,455.22 520.00,461.00              520.00,463.26 520.25,467.63 518.83,469.43              517.06,471.66 512.84,471.22 511.60,468.69              510.59,466.63 511.05,455.09 511.00,452.00              510.75,438.71 496.58,441.27 493.31,444.43              490.64,447.02 491.01,450.60 491.00,454.00              490.99,458.70 493.29,472.71 485.14,470.67              480.37,469.47 482.01,457.02 482.00,453.00              481.99,450.31 482.32,446.64 480.40,444.51              477.00,440.74 466.72,441.35 463.60,445.28              461.19,448.30 462.01,457.95 462.00,462.00              461.99,465.47 462.71,470.40 457.99,470.80              456.56,470.93 455.10,470.60 454.17,469.43              452.75,467.63 453.00,463.26 453.00,461.00              452.98,451.03 450.61,439.63 462.00,435.56              472.78,433.67 485.15,436.38 488.00,436.07 Z            M 551.31,441.40            C 548.78,440.15 548.78,436.85 551.31,435.36              552.85,434.84 557.17,434.98 559.00,435.36              561.13,435.03 562.88,435.06 565.00,435.36              577.47,437.88 575.05,448.26 575.00,458.00              574.98,461.48 575.19,464.88 572.57,467.58              569.13,471.13 563.55,470.99 559.00,471.00              551.83,471.01 535.88,472.10 530.04,469.00              521.84,464.65 522.09,451.65 529.10,447.41              537.50,442.35 555.66,446.94 566.00,444.00              557.45,441.23 553.28,442.37 551.31,441.40 Z            M 579.00,447.00            C 579.06,443.25 579.05,440.42 582.23,437.85              585.93,434.85 590.52,435.01 595.00,435.00              603.37,434.99 621.33,432.62 625.69,441.04              627.18,443.92 627.00,447.82 627.00,451.00              627.01,454.29 627.41,466.43 626.26,468.71              624.98,471.23 620.81,471.66 619.02,469.40              617.77,467.81 618.00,463.99 618.00,462.00              617.99,458.49 618.58,447.82 616.98,445.28              615.65,443.17 613.31,442.51 611.00,442.19              606.45,441.56 591.77,441.08 588.74,444.51              586.68,446.84 587.00,451.06 587.00,454.00              587.00,454.00 587.00,471.00 587.00,471.00              587.00,471.00 579.00,471.00 579.00,471.00              579.00,471.00 579.00,447.00 579.00,447.00 Z            M 668.00,435.46            C 670.49,435.96 672.98,437.29 674.69,439.21              676.91,441.71 676.94,443.85 677.00,447.00              677.16,456.06 679.37,467.70 668.00,470.47              665.51,471.08 662.57,471.00 660.00,471.00              652.23,471.01 639.29,472.36 633.14,467.35              627.64,462.87 627.49,445.58 631.70,440.21              633.88,437.42 636.77,436.49 640.00,435.46              644.16,434.85 664.26,434.53 668.00,435.46 Z            M 813.31,441.40            C 810.78,440.15 810.78,436.85 813.31,435.60              814.85,434.84 819.17,434.98 821.00,435.00              823.50,435.03 825.54,435.08 828.00,435.68              839.23,438.42 837.12,448.97 837.00,458.00              836.95,461.47 836.87,464.74 834.35,467.44              830.88,471.17 825.66,470.99 821.00,471.00              813.19,471.01 797.42,472.32 791.04,468.47              784.04,464.24 783.84,451.59 791.04,447.41              799.88,442.29 817.46,447.00 828.00,444.00              819.45,441.23 815.28,442.37 813.31,441.40 Z            M 841.00,449.00            C 841.00,446.22 840.79,442.58 842.17,440.11              846.20,432.90 864.48,434.99 872.00,435.00              876.25,435.01 881.26,434.86 884.77,437.70              888.41,440.64 887.99,444.80 888.00,449.00              888.00,449.00 888.00,471.00 888.00,471.00              886.17,470.98 883.09,471.16 881.60,469.98              879.62,468.41 880.00,464.30 880.00,462.00              879.99,458.49 880.58,447.82 878.98,445.28              876.67,441.61 870.78,442.01 867.00,442.00              862.42,441.99 852.75,440.95 850.02,445.28              848.33,447.96 849.07,460.17 849.00,464.00              848.96,465.95 849.10,468.63 847.40,469.98              845.91,471.16 842.83,470.98 841.00,471.00              841.00,471.00 841.00,449.00 841.00,449.00 Z            M 935.77,438.42            C 937.23,439.75 938.05,441.11 938.57,443.00              939.23,445.40 939.23,460.60 938.57,463.00              938.05,464.89 937.23,466.25 935.77,467.58              931.94,471.10 926.84,470.99 922.00,471.00              914.16,471.01 901.37,472.37 895.13,467.35              890.67,463.77 891.01,459.16 891.00,454.00              890.98,443.81 890.88,438.85 902.00,435.53              909.23,434.35 930.42,433.50 935.77,438.42 Z            M 987.00,435.00            C 991.22,435.05 995.28,435.34 998.43,438.56              1003.67,443.88 1003.54,462.60 997.86,467.58              993.86,471.09 988.96,470.99 984.00,471.00              976.44,471.01 963.09,472.36 957.23,467.35              954.09,464.68 954.06,461.80 954.00,458.00              953.85,447.11 951.38,439.30 964.00,435.53              969.38,434.65 981.07,434.93 987.00,435.00 Z            M 116.69,444.14            C 114.14,442.29 109.07,442.04 106.00,442.00              99.15,441.92 88.48,440.38 87.00,449.00              87.00,449.00 119.00,449.00 119.00,449.00              118.63,446.84 118.66,445.56 116.69,444.14 Z            M 248.67,445.30            C 246.34,448.06 246.21,458.65 248.67,461.28              251.28,463.92 257.55,463.98 261.00,464.00              265.01,464.02 272.38,464.26 275.69,461.86              279.13,459.37 278.97,446.46 275.69,443.85              272.28,441.15 259.48,441.85 255.00,442.30              252.56,442.84 250.30,443.22 248.67,445.30 Z            M 413.43,444.16            C 411.84,442.85 407.08,442.23 405.00,442.09              400.58,441.78 388.67,441.29 385.60,444.56              384.26,445.98 384.29,447.24 384.00,449.00              384.00,449.00 415.00,449.00 415.00,449.00              414.85,447.17 415.00,445.46 413.43,444.16 Z            M 639.60,444.72            C 637.26,447.10 637.26,458.90 639.60,461.28              642.16,463.89 648.54,463.98 652.00,464.00              655.95,464.02 663.34,464.28 666.63,461.86              670.01,459.29 670.10,446.52 666.63,443.93              663.16,441.26 650.53,441.85 646.00,442.30              643.85,442.73 641.22,443.08 639.60,444.72 Z            M 901.60,444.72            C 899.20,447.16 899.20,458.84 901.60,461.28              904.16,463.89 910.54,463.98 914.00,464.00              917.99,464.02 924.48,464.34 927.85,462.07              931.97,459.30 932.50,447.00 928.57,443.93              925.13,441.25 912.47,441.85 908.00,442.30              905.85,442.73 903.22,443.08 901.60,444.72 Z            M 963.67,444.72            C 961.34,447.22 961.17,458.81 963.67,461.28              966.16,463.89 972.54,463.98 976.00,464.00              980.01,464.02 987.38,464.26 990.69,461.86              994.14,459.36 994.06,446.49 990.69,443.93              987.16,441.26 974.53,441.85 970.00,442.30              967.86,442.73 965.33,443.07 963.67,444.72 Z            M 546.00,452.00            C 541.64,452.06 533.68,452.21 533.20,458.00              533.07,459.49 533.41,460.86 534.57,461.86              537.88,464.70 550.43,464.02 555.00,464.00              558.28,463.98 563.01,464.14 565.40,461.49              567.43,459.24 567.00,454.87 567.00,452.00              567.00,452.00 546.00,452.00 546.00,452.00 Z            M 808.00,452.00            C 805.12,452.04 799.67,452.28 797.31,453.98              794.97,455.68 794.23,459.85 796.57,461.86              799.87,464.70 812.43,464.02 817.00,464.00              820.28,463.98 824.89,464.18 827.26,461.49              829.33,459.15 828.99,454.94 829.00,452.00              829.00,452.00 808.00,452.00 808.00,452.00 Z"
     style="fill:#00ff00;fill-opacity:1;stroke-width:0;stroke-miterlimit:4;stroke-dasharray:none" />
  <path
     style="fill:#F8AD1D;fill-opacity:1;stroke:#F8AD1D;stroke-width:1.2;stroke-miterlimit:4;stroke-dasharray:none"
     d="m 48.612167,627.38533 c -4.567019,-0.65005 -8.073389,-2.42559 -11.092928,-5.61718 -1.930713,-2.04072 -2.793149,-3.55915 -3.446733,-6.06843 -0.663384,-2.5469 -0.666293,-32.24508 -0.0035,-35.70919 1.238003,-6.47046 4.584912,-9.74635 12.423002,-12.15939 l 2.725916,-0.8392 23.170286,-7.2e-4 c 22.566607,-6.9e-4 23.201745,0.0151 24.377805,0.60505 1.701605,0.85362 2.578474,2.28672 2.578474,4.21411 0,2.18644 -0.766182,3.49075 -2.595208,4.41796 l -1.493665,0.7572 -21.201569,0.16353 c -18.750889,0.14462 -21.376894,0.22223 -22.718365,0.67144 -3.280025,1.09833 -5.258013,3.47628 -5.855824,7.0399 -0.511212,3.04738 -0.74957,17.79254 -0.337832,20.89868 0.737737,5.56547 2.675419,8.81582 6.463658,10.84243 l 1.246795,0.667 17.869893,-0.10017 c 18.81064,-0.10544 23.422481,0.0944 25.687714,1.11319 2.417915,1.08745 3.097698,2.42376 3.422645,6.72825 l 0.204429,2.70807 -24.803857,-0.0369 c -13.642123,-0.0203 -25.621635,-0.15333 -26.621138,-0.2956 z"
     id="path5963"
     transform="matrix(0.75009608,0,0,0.75009608,0,-7.2893897e-4)" />
  <path
     style="fill:#f8ad1d;fill-opacity:1;stroke:none;stroke-width:1.2;stroke-miterlimit:4;stroke-dasharray:none;stroke-opacity:1"
     d="m 70.570934,627.40794 c -25.282029,-0.19132 -24.314833,-0.11602 -28.319237,-2.20485 -2.306551,-1.20318 -6.162476,-5.00484 -7.072164,-6.97264 -1.060592,-2.29422 -1.198559,-3.66398 -1.40871,-13.98575 -0.267082,-13.11797 0.153811,-23.84884 1.037442,-26.45008 1.665294,-4.90231 4.7426,-7.49182 11.555633,-9.72389 l 2.900682,-0.95032 23.298399,0.0865 c 7.760922,0.0288 12.961163,0.053 16.481218,0.0953 6.288273,0.0755 7.21462,0.20838 7.798685,0.52754 1.359439,0.74287 2.156241,2.22996 2.276476,3.75286 0.09826,1.24462 -0.255372,2.51315 -1.123105,3.41887 -1.756405,1.83329 -1.07654,1.7765 -24.558521,2.05154 l -21.515004,0.25201 -1.723201,0.84308 c -2.026538,0.99149 -3.633807,2.74457 -4.312025,4.70319 -0.699758,2.02083 -1.050758,7.04508 -1.0564,15.12143 -0.0054,7.66583 0.332506,10.37004 1.662887,13.30953 1.048685,2.31708 2.109778,3.56281 4.195692,4.92575 l 1.854867,1.21197 19.235379,0.009 c 10.579458,0.005 20.221006,0.13738 21.425665,0.29387 3.018539,0.39211 4.608336,1.08561 5.51026,2.99471 0.554098,1.17286 0.84857,2.80452 1.055215,5.10697 l 0.169897,1.893 -3.251312,-0.0684 c -0.391808,-0.008 -1.262014,-0.0199 -2.514462,-0.0341 -4.463761,-0.0505 -13.782878,-0.13305 -23.604256,-0.20738 z"
     id="path6076"
     sodipodi:nodetypes="cssssscsssssscssssscssssccscc"
     transform="matrix(0.75009608,0,0,0.75009608,0,-7.2893897e-4)" />
  <path
     style="fill:#f8ad1d;fill-opacity:1;stroke:#f8ad1d;stroke-width:1.2;stroke-miterlimit:4;stroke-dasharray:none"
     d="m 120.39462,627.27358 c -3.38264,-0.53656 -4.81122,-0.96869 -7.2312,-2.18737 -3.60593,-1.81592 -5.86643,-4.57921 -7.07807,-8.65241 -0.62038,-2.08555 -0.91524,-19.97196 -0.39043,-23.68414 0.95725,-6.77106 5.48227,-10.36788 15.30546,-12.16593 5.65797,-1.03564 33.69717,-0.79962 37.80816,0.31825 4.0776,1.1088 7.29303,3.46345 8.62585,6.3167 1.51305,3.23906 1.66914,4.4066 1.80049,13.46718 l 0.12405,8.55635 h -26.07227 c -14.33975,0 -26.07228,0.0844 -26.07228,0.18754 0,0.55518 2.38665,3.98753 3.65373,5.25462 2.62318,2.62318 4.15124,3.10109 12.56401,3.92947 3.32581,0.32748 4.71021,0.77685 5.95911,1.93429 1.49242,1.38313 1.50744,3.86754 0.0327,5.40685 -1.42238,1.48465 -3.08512,1.76644 -10.22504,1.73291 -3.51744,-0.0165 -7.46863,-0.20245 -8.80425,-0.41431 z m 38.17889,-30.07083 c -0.4809,-3.38885 -2.49077,-5.61041 -6.0783,-6.71848 -3.37067,-1.0411 -6.86474,-1.32832 -16.50229,-1.35652 -8.75219,-0.0256 -9.36271,0.009 -11.61337,0.66126 -2.91766,0.84537 -3.82448,1.30374 -5.41328,2.73624 -1.2825,1.15633 -2.96275,4.23804 -2.96316,5.4347 l -2.4e-4,0.68147 h 21.38739 21.3874 z"
     id="path6115"
     transform="matrix(0.75009608,0,0,0.75009608,0,-7.2893897e-4)" />
  <path
     style="fill:#f8ad1d;fill-opacity:1;stroke:#f8ad1d;stroke-width:1.2;stroke-miterlimit:4;stroke-dasharray:none"
     d="m 173.61483,608.86361 0.0866,-18.85425 0.70855,-1.75574 c 1.54612,-3.8312 5.93119,-6.83933 11.12869,-7.63421 4.03702,-0.6174 25.65211,-1.15211 30.71734,-0.75988 6.28713,0.48684 9.77087,1.24817 13.18547,2.88151 3.87466,1.8534 6.13816,4.58719 7.14644,8.63128 0.59502,2.38655 0.60407,30.10689 0.0105,32.10523 -0.75638,2.54637 -2.7862,4.03526 -5.50129,4.03526 -1.8753,0 -3.26538,-0.59303 -4.21254,-1.79716 -1.27583,-1.62195 -1.39561,-2.77681 -1.30396,-12.57231 0.0883,-9.44042 -0.19608,-15.28654 -0.87478,-17.98191 -0.27694,-1.09984 -0.75265,-1.8755 -1.78075,-2.90361 -2.59642,-2.59641 -6.59159,-3.355 -17.72418,-3.36544 -10.74015,-0.0101 -16.28765,1.03319 -18.78761,3.53316 -2.37912,2.37911 -2.37827,2.37236 -2.49442,19.92118 l -0.10174,15.37114 h -5.14443 -5.14444 z"
     id="path6154"
     transform="matrix(0.75009608,0,0,0.75009608,0,-7.2893897e-4)" />
  <path
     style="fill:#f8ad1d;fill-opacity:1;stroke:#f8ad1d;stroke-width:1.2;stroke-miterlimit:4;stroke-dasharray:none"
     d="m 248.28532,627.30541 c -1.69694,-0.47486 -2.48042,-1.11954 -3.36372,-2.76778 -0.63855,-1.19157 -0.65065,-1.49208 -0.7346,-18.2485 l -0.0854,-17.03697 h -3.36673 -3.36672 l 0.20098,-2.61466 c 0.26935,-3.50422 0.79883,-4.55235 2.74427,-5.43244 0.84473,-0.38215 2.03045,-0.78439 2.63495,-0.89387 l 1.09908,-0.19906 0.12625,-4.44431 c 0.15195,-5.34864 0.63183,-6.73326 2.74885,-7.93125 2.5883,-1.46469 6.51334,-0.60597 7.86907,1.7216 0.61993,1.06432 1.13578,4.81561 1.13923,8.28457 l 0.002,2.27159 6.73911,0.005 c 6.39916,0.005 6.84579,0.0431 8.854,0.7572 1.64101,0.5835 2.26877,0.98261 2.80164,1.78115 1.54045,2.30851 0.5236,4.60348 -2.58178,5.82697 -1.57669,0.62119 -2.34929,0.69189 -8.77094,0.80259 l -7.04196,0.1214 -0.002,14.58559 c -0.001,8.02208 -0.13423,15.73313 -0.29547,17.13565 -0.32366,2.81523 -1.21956,4.96902 -2.42815,5.83738 -1.0239,0.73566 -3.17431,0.927 -4.92198,0.43795 z"
     id="path6193"
     transform="matrix(0.75009608,0,0,0.75009608,0,-7.2893897e-4)" />
  <path
     style="fill:#f8ad1d;fill-opacity:1;stroke:#f8ad1d;stroke-width:1.2;stroke-miterlimit:4;stroke-dasharray:none"
     d="m 282.8895,610.50935 c 0,-11.12021 0.11674,-17.84003 0.32997,-18.99351 0.94689,-5.1222 4.93167,-8.70972 11.63377,-10.47396 3.48306,-0.91686 11.42115,-1.16488 13.93099,-0.43525 3.33274,0.96886 4.56093,3.13802 3.29146,5.81323 -0.80218,1.69048 -2.65916,2.37407 -8.12526,2.99108 -4.26953,0.48193 -7.59887,2.25472 -9.12496,4.85879 -1.54198,2.6312 -1.62821,3.64153 -1.63334,19.13707 l -0.005,14.31106 h -5.14895 -5.14895 z"
     id="path6232"
     transform="matrix(0.75009608,0,0,0.75009608,0,-7.2893897e-4)" />
  <path
     style="fill:#f8ad1d;fill-opacity:1;stroke:#f8ad1d;stroke-width:1.2;stroke-miterlimit:4;stroke-dasharray:none"
     d="m 339.22509,627.8175 c -4.93783,-0.35289 -10.0372,-1.47941 -12.93244,-2.85696 -2.616,-1.24468 -5.0146,-3.5246 -6.16367,-5.8587 -0.84454,-1.71551 -0.9685,-2.33899 -1.2448,-6.26103 -0.16877,-2.39569 -0.25269,-7.69505 -0.18649,-11.77635 0.13292,-8.19474 0.40756,-9.65417 2.40738,-12.79295 1.99504,-3.13126 6.63489,-6.29459 10.7869,-7.35423 5.24873,-1.33954 34.00674,-1.34359 39.11385,-0.006 3.91796,1.02651 7.00275,3.09824 8.51538,5.71887 4.27858,7.41265 4.39653,25.15851 0.21932,32.99576 -1.07798,2.02251 -3.65799,4.53527 -5.90465,5.75076 -3.11416,1.68483 -5.50481,2.069 -14.62073,2.34948 -8.07605,0.2485 -17.20384,0.28998 -19.99005,0.0909 z m 23.67582,-10.02726 c 2.70767,-0.7412 4.37653,-1.53961 5.3101,-2.54046 3.27936,-3.51567 3.79881,-15.65888 0.91776,-21.45443 -0.87268,-1.75549 -1.1627,-2.06078 -2.67772,-2.81876 -3.0114,-1.50664 -5.78075,-1.83778 -15.41366,-1.84307 -9.01559,-0.005 -11.56846,0.22769 -14.93172,1.36069 -5.25606,1.77063 -6.92351,5.05483 -6.98141,13.75049 -0.0318,4.77145 0.25248,6.69538 1.37456,9.30373 0.78403,1.82253 2.38236,2.97448 5.3946,3.88799 3.34646,1.01487 5.28713,1.15192 15.14397,1.06947 8.60034,-0.072 9.76965,-0.14248 11.86352,-0.71565 z"
     id="path6271"
     transform="matrix(0.75009608,0,0,0.75009608,0,-7.2893897e-4)" />
  <path
     style="fill:#f8ad1d;fill-opacity:1;stroke:#f8ad1d;stroke-width:1.2;stroke-miterlimit:4;stroke-dasharray:none"
     d="m 422.82154,599.96523 c 10e-4,-18.20637 0.10983,-28.21516 0.31452,-28.95216 0.85423,-3.07582 4.32166,-4.85834 7.20581,-3.70433 3.60554,1.44265 4.83389,6.1469 4.46437,17.09735 -0.11524,3.41496 -0.28447,6.51569 -0.37608,6.89051 l -0.16656,0.68147 h 24.83052 24.83053 l 0.15755,-9.61642 c 0.18011,-10.99344 0.38025,-12.29414 2.1399,-13.90674 1.91557,-1.75548 4.84133,-2.01222 6.90662,-0.60605 1.40511,0.95668 2.03463,1.96258 2.37934,3.8019 0.1914,1.02129 0.30576,11.82473 0.30576,28.88585 v 27.25438 l -3.71028,-0.13847 c -4.52066,-0.16871 -5.67004,-0.61365 -6.61206,-2.55961 -1.15062,-2.37687 -1.4681,-5.4372 -1.4794,-14.26058 l -0.0106,-8.25347 -24.76041,3e-4 -24.7604,3e-4 -0.004,9.01029 c -0.007,14.7895 -0.49906,15.78483 -7.94654,16.06277 l -3.71027,0.13847 0.002,-27.82576 z"
     id="path6310"
     transform="matrix(0.75009608,0,0,0.75009608,0,-7.2893897e-4)" />
  <path
     style="fill:#f8ad1d;fill-opacity:1;stroke:#f8ad1d;stroke-width:1.2;stroke-miterlimit:4;stroke-dasharray:none"
     d="m 518.29361,627.69587 c -7.96403,-0.76958 -13.49957,-3.7555 -15.76597,-8.50433 -3.58655,-7.51492 -3.68953,-22.55797 -0.20651,-30.16589 1.81069,-3.95505 5.49908,-6.58695 11.17673,-7.97529 5.03913,-1.23221 30.96995,-1.55504 37.30604,-0.46444 5.42709,0.93413 8.21564,2.16918 10.71679,4.74644 2.82416,2.9101 3.84474,6.95704 3.57204,14.16433 -0.23576,6.23107 -1.11195,8.23598 -4.00837,9.17194 -0.93671,0.30269 -6.65608,0.41558 -25.21472,0.49768 -13.20176,0.0584 -24.00115,0.20159 -23.99863,0.3182 0.0111,0.51626 3.06627,4.29479 4.27028,5.28139 3.44756,2.82502 6.24019,3.59001 13.8222,3.78637 l 5.83043,0.151 v 4.46075 4.46075 l -3.68211,0.19798 c -4.58098,0.24632 -10.52047,0.19178 -13.8182,-0.12688 z m 34.97225,-31.01059 c -0.22298,-2.38782 -1.07052,-4.13935 -2.40081,-4.96151 -0.55017,-0.34003 -2.01959,-0.89348 -3.26537,-1.2299 -4.1018,-1.10768 -7.34593,-1.38826 -15.89464,-1.37471 -7.19919,0.0114 -8.53588,0.0907 -11.17071,0.66272 -3.79859,0.82464 -6.0276,1.90152 -7.15374,3.45612 -0.79586,1.09864 -1.51416,3.38168 -1.51416,4.81257 0,0.58015 0.37679,0.59085 20.79105,0.59085 h 20.79105 z"
     id="path6349"
     transform="matrix(0.75009608,0,0,0.75009608,0,-7.2893897e-4)" />
  <path
     style="fill:#f8ad1d;fill-opacity:1;stroke:#f8ad1d;stroke-width:1.2;stroke-miterlimit:4;stroke-dasharray:none"
     d="m 572.28456,627.29572 c -1.90806,-0.59789 -2.76079,-1.31017 -3.40998,-2.84829 -0.53142,-1.25911 -0.64401,-2.65017 -0.97126,-12.00056 -0.39733,-11.35282 -0.29517,-14.3446 0.62523,-18.31054 1.54918,-6.67534 6.15669,-11.23029 13.26197,-13.11071 2.96528,-0.78476 11.72329,-1.1446 13.78804,-0.56651 2.90715,0.81395 4.35723,3.9285 2.92369,6.27959 -0.86286,1.41513 -2.05832,1.89172 -6.01562,2.39822 -5.57594,0.71368 -7.39926,1.36385 -9.54419,3.40331 -2.77963,2.64296 -2.98199,3.80424 -3.20058,18.36782 l -0.18185,12.11518 -0.82037,1.75074 c -0.68139,1.45417 -1.04055,1.85069 -2.12015,2.34067 -1.49033,0.6764 -2.60556,0.72298 -4.33493,0.18108 z"
     id="path6388"
     transform="matrix(0.75009608,0,0,0.75009608,0,-7.2893897e-4)" />
  <path
     style="fill:#f8ad1d;fill-opacity:1;stroke:#f8ad1d;stroke-width:1.2;stroke-miterlimit:4;stroke-dasharray:none"
     d="m 647.3369,627.43302 c -2.18702,-0.54029 -3.30223,-1.90496 -4.22252,-5.16699 -0.50028,-1.77327 -0.54736,-3.06625 -0.47418,-13.02382 0.0531,-7.21973 -0.0354,-11.63304 -0.25491,-12.72094 -0.99489,-4.93026 -4.91139,-7.30252 -12.03851,-7.29185 -6.60126,0.01 -11.3048,1.9983 -13.11355,5.54373 -1.21358,2.37883 -1.45717,5.12728 -1.47023,16.58922 -0.013,11.39458 -0.1192,12.44018 -1.44151,14.19175 -0.97637,1.29333 -2.34234,1.86086 -4.47884,1.86086 -1.82169,0 -2.94255,-0.43886 -3.98766,-1.56134 -1.61886,-1.73869 -1.89942,-4.38857 -1.91901,-18.12476 -0.0136,-9.51769 0.0521,-11.07177 0.57123,-13.52495 0.85316,-4.03138 2.13094,-6.49276 4.70705,-9.06717 2.80497,-2.80311 5.57452,-4.19394 9.41721,-4.72921 4.29885,-0.59881 15.00415,-0.44712 22.30787,0.31609 7.73356,0.80813 9.36909,0.80972 21.37125,0.0208 14.06054,-0.92418 18.19367,-0.63892 22.73094,1.56881 6.89813,3.35649 8.71105,10.47677 8.05425,31.6333 -0.27219,8.76778 -0.30929,9.15041 -1.0278,10.60034 -1.27751,2.57798 -3.67214,3.57336 -6.54451,2.72035 -1.44676,-0.42964 -2.74076,-1.4797 -3.36376,-2.72964 -0.58337,-1.17046 -0.75561,-4.3235 -0.72663,-13.30198 0.0161,-4.98392 -0.10134,-9.98243 -0.26095,-11.10782 -0.77112,-5.43716 -3.56992,-9.08864 -8.00863,-10.44858 -5.44896,-1.66947 -13.1444,-0.0607 -16.17411,3.3812 -2.29359,2.60565 -2.3137,2.74155 -2.32733,15.72744 -0.0128,12.20336 -0.10062,13.13506 -1.49786,15.89239 -1.13641,2.2426 -3.4563,3.33848 -5.8273,2.75274 z"
     id="path6427"
     transform="matrix(0.75009608,0,0,0.75009608,0,-7.2893897e-4)" />
  <path
     style="fill:#f8ad1d;fill-opacity:1;stroke:#f8ad1d;stroke-width:1.2;stroke-miterlimit:4;stroke-dasharray:none"
     d="m 720.399,627.81863 c -5.79502,-0.35558 -10.91166,-1.37471 -13.50844,-2.6906 -4.98522,-2.5262 -8.17953,-8.09615 -8.24188,-14.37142 -0.0337,-3.39551 0.40037,-5.4347 1.77695,-8.34713 2.23803,-4.73502 6.22668,-7.2641 13.46146,-8.5355 2.43023,-0.42708 5.37189,-0.50977 18.92997,-0.53215 13.9999,-0.0231 16.40113,-0.0945 18.77806,-0.55836 1.499,-0.29252 2.83759,-0.644 2.97465,-0.78107 0.25974,-0.25973 -2.85916,-1.18069 -6.76017,-1.99618 -1.24938,-0.26117 -4.49913,-0.67073 -7.22167,-0.91012 -5.52323,-0.48565 -6.56627,-0.86385 -7.43574,-2.69613 -1.03733,-2.186 -0.20886,-4.61981 1.94251,-5.70656 0.94999,-0.47989 1.8912,-0.52016 9.53467,-0.40792 7.6773,0.11273 8.68145,0.18749 10.60078,0.78919 6.29763,1.97431 9.63944,5.529 10.87909,11.5721 0.53363,2.6014 0.62244,11.26359 0.20895,20.38142 -0.21364,4.71119 -0.30542,5.30919 -1.07946,7.03358 -1.01922,2.2706 -3.38611,4.63655 -5.69175,5.68948 -3.27906,1.49747 -4.73368,1.70264 -14.00898,1.9759 -8.31302,0.24491 -21.83639,0.29412 -25.139,0.0915 z m 27.10772,-9.51516 c 1.12024,-0.16205 2.8172,-0.70856 3.93744,-1.26808 3.51202,-1.75413 4.54319,-4.22583 4.54319,-10.88998 v -3.60153 l -17.94561,0.10825 c -15.85045,0.0956 -18.15779,0.16905 -19.76289,0.62899 -2.77411,0.79493 -5.03442,2.08406 -6.11053,3.48504 -1.82936,2.38164 -1.9758,6.0197 -0.33505,8.32391 1.32614,1.86239 5.57278,3.10965 12.04885,3.53878 4.53699,0.30065 20.84994,0.076 23.6246,-0.32538 z"
     id="path6466"
     transform="matrix(0.75009608,0,0,0.75009608,0,-7.2893897e-4)" />
  <path
     style="fill:#f8ad1d;fill-opacity:1;stroke:#f8ad1d;stroke-width:1.2;stroke-miterlimit:4;stroke-dasharray:none"
     d="m 772.10118,609.01505 0.0911,-18.70281 0.73068,-1.8161 c 1.39843,-3.47578 4.97086,-6.35647 9.42862,-7.60293 3.32534,-0.92982 30.26901,-1.50681 35.86004,-0.76794 8.90983,1.17748 14.41469,4.21581 16.17826,8.92938 1.15137,3.07729 1.2938,5.02322 1.33073,18.18032 0.0461,16.43219 -0.19184,17.94179 -3.08026,19.54094 -2.77065,1.53396 -6.16102,0.72644 -7.59648,-1.80932 l -0.7572,-1.3376 -0.19716,-13.02382 c -0.19267,-12.72693 -0.3653,-14.98063 -1.28148,-16.72995 -0.56822,-1.08494 -2.18925,-2.60205 -3.47075,-3.24824 -3.92111,-1.97721 -20.33686,-2.43998 -28.36635,-0.79967 -4.87783,0.99648 -6.75868,2.41114 -7.95473,5.98308 -0.42066,1.25628 -0.50826,3.66376 -0.60719,16.68777 l -0.1156,15.2197 h -5.14169 -5.14169 z"
     id="path6505"
     transform="matrix(0.75009608,0,0,0.75009608,0,-7.2893897e-4)" />
  <path
     style="fill:#f8ad1d;fill-opacity:1;stroke:#f8ad1d;stroke-width:1.2;stroke-miterlimit:4;stroke-dasharray:none"
     d="m 860.63223,627.81602 c -8.39296,-0.71275 -13.9408,-2.49991 -16.94034,-5.45708 -4.84548,-4.77703 -6.77721,-18.58246 -4.07774,-29.14219 0.84957,-3.32329 1.86501,-5.29006 3.75343,-7.26987 1.94739,-2.04163 4.06119,-3.2576 7.89055,-4.53903 2.54437,-0.85144 3.15691,-0.92663 9.97986,-1.22506 12.60332,-0.55125 26.03832,-0.27319 29.72521,0.61522 5.21154,1.2558 9.66076,5.10399 10.82513,9.36279 0.62679,2.29253 1.16453,16.63561 0.78353,20.89869 -0.66961,7.49228 -3.02531,11.8265 -7.78246,14.31881 -3.53757,1.85336 -4.78283,2.05933 -14.16712,2.34323 -8.34645,0.2525 -17.61366,0.29631 -19.99005,0.0945 z m 23.52438,-10.02578 c 4.36879,-1.19591 5.64516,-2.19681 6.77668,-5.31411 2.2818,-6.28628 1.50133,-16.86015 -1.48721,-20.14893 -2.38161,-2.62088 -11.21392,-3.83631 -22.83005,-3.1417 -8.95243,0.53533 -13.01646,1.74978 -14.60684,4.36495 -2.5414,4.17899 -2.26095,18.17504 0.42822,21.37094 1.2919,1.53533 4.91118,2.8897 9.40634,3.51993 0.49975,0.0701 5.20196,0.0953 10.44935,0.0561 8.61688,-0.0644 9.76562,-0.13289 11.86351,-0.70716 z"
     id="path6544"
     transform="matrix(0.75009608,0,0,0.75009608,0,-7.2893897e-4)" />
  <path
     style="fill:#f8ad1d;fill-opacity:1;stroke:#f8ad1d;stroke-width:1.2;stroke-miterlimit:4;stroke-dasharray:none"
     d="m 947.25578,627.43657 c -2.02738,-0.48926 -3.15686,-1.57041 -3.97782,-3.80758 -0.51465,-1.40244 -0.56298,-3.02383 -0.65385,-21.93186 -0.0548,-11.3915 0.032,-22.16997 0.1963,-24.3818 0.44687,-6.01716 1.66034,-8.67536 4.44593,-9.73919 2.852,-1.08919 6.73294,0.0163 9.82884,2.7998 1.373,1.23445 9.00086,10.38518 22.40151,26.87388 10.11521,12.44617 10.88175,13.1997 13.43025,13.20238 0.84029,9.1e-4 1.93484,-0.24544 2.60121,-0.5854 1.43769,-0.73345 4.16344,-3.54298 7.07065,-7.28794 5.1015,-6.57163 26.7334,-32.62612 27.7531,-33.42711 1.6996,-1.33508 3.9854,-2.30642 5.4355,-2.30972 3.0482,-0.007 4.7634,2.10834 6.0145,7.41759 0.4322,1.83399 0.517,4.99183 0.6278,23.3959 0.1329,22.07523 0,25.63187 -1.0631,27.44874 -0.7293,1.2521 -2.713,2.31635 -4.6838,2.51279 -1.3362,0.13318 -1.7611,0.0434 -2.6448,-0.55894 -1.2118,-0.82595 -2.2621,-2.27251 -2.7937,-3.84781 -0.264,-0.78234 -0.3853,-4.72687 -0.4242,-13.79228 -0.03,-6.98312 -0.1426,-13.52532 -0.2504,-14.53822 -0.2938,-2.75904 -1.118,-7.14346 -1.3407,-7.13178 -0.1077,0.006 -0.7667,0.99379 -1.4646,2.19588 -3.1952,5.50356 -20.0299,27.23055 -25.8048,33.30374 -3.66384,3.85313 -7.10497,5.09918 -11.19114,4.05235 -4.23561,-1.08511 -6.18016,-2.91231 -14.89056,-13.9919 -17.55897,-22.33494 -21.06889,-26.75017 -21.27729,-26.76533 -0.12494,-0.009 -0.22716,9.2516 -0.22716,20.57929 v 20.59581 l -3.10451,-0.031 c -1.70749,-0.0171 -3.51341,-0.12968 -4.01316,-0.25029 z"
     id="path6583"
     transform="matrix(0.75009608,0,0,0.75009608,0,-7.2893897e-4)" />
  <path
     style="fill:#f8ad1d;fill-opacity:1;stroke:#f8ad1d;stroke-width:1.2;stroke-miterlimit:4;stroke-dasharray:none"
     d="m 1069.3162,627.82011 c -6.0097,-0.49009 -11.0381,-1.59327 -13.9291,-3.0559 -5.8828,-2.97626 -9.058,-11.4313 -7.1276,-18.97924 1.7497,-6.84126 5.921,-10.21527 14.6963,-11.88711 2.3483,-0.44741 4.9702,-0.52339 18.9299,-0.54858 14.1692,-0.0256 16.5464,-0.0963 18.9295,-0.56345 1.499,-0.29382 2.8328,-0.6415 2.9639,-0.77262 0.271,-0.27099 -3.0225,-1.27215 -6.5487,-1.99068 -1.3056,-0.26605 -4.5461,-0.67397 -7.2011,-0.9065 -5.3166,-0.46565 -6.2585,-0.79075 -7.461,-2.57523 -1.2779,-1.89623 -0.5432,-4.25931 1.7415,-5.60145 0.9999,-0.58741 1.5155,-0.62115 9.2368,-0.60444 8.036,0.0174 8.225,0.0321 10.9037,0.85129 7.3211,2.23883 10.4939,6.38648 11.3541,14.8425 0.4238,4.1671 -0.099,19 -0.758,21.52002 -1.255,4.79609 -4.5302,7.97135 -9.704,9.40776 -1.3351,0.37068 -3.9937,0.56782 -10.2814,0.76239 -8.1025,0.25072 -23.1844,0.31004 -25.7448,0.10124 z m 28.0585,-9.64535 c 3.5859,-0.7228 5.6672,-2.25925 6.9714,-5.14656 0.5857,-1.29649 0.7016,-2.15721 0.8058,-5.98187 l 0.1216,-4.46747 -16.4642,0.002 c -17.5068,0.002 -20.4149,0.1837 -23.9209,1.49544 -3.0741,1.15018 -4.8689,3.7725 -4.9034,7.16401 -0.048,4.76559 3.4447,6.7211 13.1923,7.38548 5.2716,0.35931 21.6964,0.0533 24.1974,-0.45082 z"
     id="path6622"
     transform="matrix(0.75009608,0,0,0.75009608,0,-7.2893897e-4)" />
  <path
     style="fill:#f8ad1d;fill-opacity:1;stroke:#f8ad1d;stroke-width:1.2;stroke-miterlimit:4;stroke-dasharray:none"
     d="m 1121.2601,610.77852 c 0,-17.63228 0.1585,-20.51708 1.2696,-23.1055 1.1124,-2.59164 4.3321,-5.01224 8.1389,-6.11889 6.048,-1.75819 12.3934,-2.09929 28.7543,-1.54571 13.3671,0.45228 14.5512,0.59782 17.6536,2.16993 1.8534,0.93921 3.9738,2.87285 4.9191,4.48601 1.5757,2.68874 1.6484,3.70368 1.6532,23.10789 v 17.94561 h -2.3681 c -4.6273,0 -6.9175,-1.36693 -7.5967,-4.53422 -0.2072,-0.96597 -0.3331,-5.66168 -0.3331,-12.42002 0,-11.66102 -0.2452,-14.82716 -1.3139,-16.96827 -0.7914,-1.58576 -2.7963,-3.07296 -5.1523,-3.82206 -2.2179,-0.70518 -18.6763,-1.2619 -23.3675,-0.79042 -5.734,0.57629 -9.297,2.14583 -10.5216,4.63487 -1.045,2.12394 -1.2216,4.26767 -1.4083,17.09031 -0.169,11.60294 -0.2351,12.82128 -0.7526,13.8627 -1.0609,2.13476 -3.0083,2.92638 -7.2318,2.93971 l -2.3473,0.007 z"
     id="path6661"
     transform="matrix(0.75009608,0,0,0.75009608,0,-7.2893897e-4)" />
  <path
     style="fill:#f8ad1d;fill-opacity:1;stroke:#f8ad1d;stroke-width:1.2;stroke-miterlimit:4;stroke-dasharray:none"
     d="m 1210.0038,627.82221 c -4.2968,-0.41177 -7.1677,-0.87591 -9.376,-1.51583 -6.7188,-1.94704 -10.6236,-5.5764 -12.0363,-11.18718 -0.4378,-1.73879 -0.5263,-3.51948 -0.5259,-10.57162 6e-4,-9.34889 0.337,-12.08156 1.8738,-15.22014 1.5367,-3.13839 4.8344,-5.69239 9.7132,-7.52265 2.9351,-1.10114 5.3653,-1.4922 12.017,-1.93379 15.1419,-1.00523 29.261,0.54836 34.386,3.78365 1.7413,1.09926 3.8361,3.65099 4.545,5.53644 0.9356,2.48846 1.3034,8.61024 1.0953,18.23384 -0.1869,8.64537 -0.4487,10.43101 -1.8904,12.89097 -0.9836,1.6785 -3.7122,4.18575 -5.5917,5.13817 -3.3321,1.68851 -5.2656,1.99392 -14.3714,2.27005 -8.321,0.25233 -17.7429,0.29892 -19.8386,0.0981 z m 20.4444,-9.50149 c 2.9482,-0.41545 5.7281,-1.44749 7.1291,-2.64669 2.6721,-2.28723 4.0833,-7.34741 3.8513,-13.80965 -0.2197,-6.11975 -1.5424,-9.30214 -4.4914,-10.8066 -3.5253,-1.79851 -12.7576,-2.52169 -22.9049,-1.79417 -6.5624,0.47049 -10.8833,1.78944 -12.3609,3.77311 -2.5992,3.4896 -3.0212,15.1178 -0.7407,20.41178 0.5391,1.2516 1.0253,1.83675 2.0864,2.51135 1.6402,1.0428 4.6026,1.99231 7.3079,2.34241 2.7839,0.36026 17.6011,0.37385 20.1232,0.0184 z"
     id="path6700"
     transform="matrix(0.75009608,0,0,0.75009608,0,-7.2893897e-4)" />
  <path
     style="fill:#f8ad1d;fill-opacity:1;stroke:#f8ad1d;stroke-width:1.2;stroke-miterlimit:4;stroke-dasharray:none"
     d="m 1260.0223,627.26568 c -2.1169,-0.66039 -3.3962,-2.14882 -3.7766,-4.39389 -0.099,-0.58304 -0.1999,-12.03189 -0.2248,-25.44188 -0.049,-26.46326 -0.077,-25.98 1.6117,-28.48524 0.7778,-1.15413 2.4939,-1.81212 4.8045,-1.8421 2.1056,-0.0273 3.2101,0.69314 4.1561,2.71112 l 0.8063,1.72002 0.084,25.10815 c 0.075,22.42375 0.032,25.28884 -0.4071,26.79815 -0.6482,2.22969 -1.3775,3.19611 -2.8595,3.78908 -1.4536,0.58163 -2.4205,0.59007 -4.1947,0.0366 z"
     id="path6739"
     transform="matrix(0.75009608,0,0,0.75009608,0,-7.2893897e-4)" />
  <path
     style="fill:#f8ad1d;fill-opacity:1;stroke:#f8ad1d;stroke-width:1.2;stroke-miterlimit:4;stroke-dasharray:none"
     d="m 1292.5385,627.81602 c -6.1677,-0.52377 -9.4582,-1.27842 -13.056,-2.99422 -3.3244,-1.58544 -5.4576,-3.69435 -6.4924,-6.4185 -0.7683,-2.02241 -1.1735,-7.7668 -1.2552,-17.79316 -0.07,-8.62228 0.7306,-11.42427 4.2611,-14.91059 1.8241,-1.80124 5.9828,-4.02319 8.9159,-4.76372 4.552,-1.14927 31.5159,-1.37127 37.5975,-0.30956 5.2038,0.90846 9.1508,3.91309 11.0113,8.38211 2.7337,6.56666 3.2078,17.32609 1.1251,25.53609 -1.7354,6.84131 -5.0906,10.46275 -11.3672,12.26929 -1.9477,0.56059 -3.4717,0.68964 -10.7501,0.91036 -8.3251,0.25246 -17.5975,0.29509 -19.99,0.0919 z m 23.5156,-10.00079 c 4.7319,-1.22488 6.3274,-2.67262 7.445,-6.75574 0.4267,-1.55911 0.5361,-3.10304 0.5257,-7.42055 -0.012,-5.12333 -0.063,-5.60267 -0.8475,-7.9551 -1.068,-3.20418 -2.0871,-4.27326 -4.9287,-5.17058 -2.8168,-0.88951 -5.4238,-1.22807 -11.1719,-1.45087 -5.9106,-0.2291 -13.7682,0.28175 -16.9838,1.10418 -3.5201,0.90028 -5.258,1.99192 -6.2227,3.90862 -1.1331,2.25137 -1.6351,5.54535 -1.5959,10.47239 0.068,8.54135 1.5144,11.29067 6.7811,12.88858 3.3487,1.01601 5.2896,1.15235 15.1439,1.06381 8.342,-0.075 9.8315,-0.16099 11.8548,-0.68474 z"
     id="path6778"
     transform="matrix(0.75009608,0,0,0.75009608,0,-7.2893897e-4)" />
  <path
     style="fill:#f8ad1d;fill-opacity:1;stroke:#f8ad1d;stroke-width:1.2;stroke-miterlimit:4;stroke-dasharray:none"
     d="m 1206.8725,356.7793 c -8.3258,-4.21438 -16.1844,-11.48224 -22.0923,-20.43156 -4.2269,-6.40281 -7.7633,-14.73991 -9.3145,-21.95877 -0.9242,-4.30119 -1.16,-12.59624 -0.4727,-16.62828 0.629,-3.69052 1.893,-7.73266 2.4896,-7.96158 0.5218,-0.20024 3.8192,1.02031 6.9279,2.56436 7.4164,3.68371 15.1446,11.24849 19.7971,19.37847 5.6378,9.852 8.0141,20.47923 7.466,33.3893 -0.2888,6.80283 -1.0685,12.84181 -1.6698,12.93369 -0.2499,0.0382 -1.659,-0.54035 -3.1313,-1.28563 z"
     id="path6817"
     transform="matrix(0.75009608,0,0,0.75009608,0,-7.2893897e-4)" />
  <path
     style="fill:#f8ad1d;fill-opacity:1;stroke:#f8ad1d;stroke-width:1.2;stroke-miterlimit:4;stroke-dasharray:none"
     d="m 1262.402,336.75776 c -0.2499,-0.0814 -1.7492,-0.56219 -3.3317,-1.06853 -3.5668,-1.14122 -9.8215,-4.11015 -13.6175,-6.46383 -10.5576,-6.54617 -19.6748,-16.16304 -24.5341,-25.87875 -4.9375,-9.87217 -6.3681,-22.14261 -2.8502,-24.44762 2.4408,-1.59923 7.0312,-0.78524 13.8941,2.46373 6.0202,2.85004 10.2481,5.77746 15.104,10.45806 9.2266,8.89345 14.501,20.55943 16.0917,35.59197 0.2468,2.33217 0.4501,5.4329 0.4519,6.89051 0,2.70111 -0.059,2.8285 -1.2082,2.45446 z"
     id="path6856"
     transform="matrix(0.75009608,0,0,0.75009608,0,-7.2893897e-4)" />
  <path
     style="fill:#f8ad1d;fill-opacity:1;stroke:#f8ad1d;stroke-width:1.2;stroke-miterlimit:4;stroke-dasharray:none"
     d="m 1295.4158,290.29381 c -17.4779,-0.69529 -29.0235,-4.48178 -40.1315,-13.16152 -2.9128,-2.27603 -8.1968,-7.67179 -10.3788,-10.59829 -2.9767,-3.99235 -4.8722,-8.52698 -4.4311,-10.60078 0.7787,-3.66185 3.8517,-5.04122 11.2043,-5.02927 21.1202,0.0343 41.5564,12.5632 50.0906,30.70935 1.3772,2.92819 3.0358,7.60549 3.0358,8.56094 0,0.49051 -0.049,0.49113 -9.3893,0.11957 z"
     id="path6895"
     transform="matrix(0.75009608,0,0,0.75009608,0,-7.2893897e-4)" />
  <path
     style="fill:#f8ad1d;fill-opacity:1;stroke:#f8ad1d;stroke-width:1.2;stroke-miterlimit:4;stroke-dasharray:none"
     d="m 1139.8872,363.14856 c -2.2831,-1.14224 -4.9387,-5.32554 -7.4158,-11.6819 -5.4868,-14.07908 -6.3465,-29.1702 -2.3798,-41.77232 1.7993,-5.71611 5.7294,-12.66681 9.8651,-17.44727 l 1.2811,-1.48076 2.452,2.42206 c 5.368,5.30245 9.3355,13.09789 11.1756,21.9578 1.8031,8.68224 1.6415,18.9566 -0.4324,27.4845 -2.215,9.10801 -7.5455,18.54918 -11.517,20.39872 -1.475,0.68688 -1.8636,0.70217 -3.0288,0.11917 z"
     id="path6934"
     transform="matrix(0.75009608,0,0,0.75009608,0,-7.2893897e-4)" />
  <path
     style="fill:#f8ad1d;fill-opacity:1;stroke:#f8ad1d;stroke-width:1.2;stroke-miterlimit:4;stroke-dasharray:none"
     d="m 1078.778,354.14191 c -4.1886,-10.99218 -5.9689,-21.87093 -5.0928,-31.12087 1.692,-17.86396 9.5725,-32.62209 20.2955,-38.00842 1.9423,-0.97563 1.7917,-1.08378 3.6819,2.64488 2.712,5.34959 4.4488,11.10714 5.3052,17.58602 0.5929,4.48587 0.4263,13.44086 -0.3281,17.62608 -2.762,15.32446 -9.8889,27.11386 -19.8078,32.76642 -1.262,0.71914 -2.4501,1.30753 -2.6404,1.30753 -0.1902,0 -0.8263,-1.26074 -1.4135,-2.80164 z"
     id="path6973"
     transform="matrix(0.75009608,0,0,0.75009608,0,-7.2893897e-4)" />
  <path
     style="fill:#f8ad1d;fill-opacity:1;stroke:#f8ad1d;stroke-width:1.2;stroke-miterlimit:4;stroke-dasharray:none"
     d="m 1013.435,320.40889 c 0,-1.52231 1.498,-8.16277 2.5879,-11.47175 1.4396,-4.3706 5.2921,-12.2155 7.9576,-16.20406 3.067,-4.58942 5.5543,-7.55858 9.6415,-11.50942 4.3348,-4.19014 8.1999,-7.00301 12.6754,-9.22465 5.9475,-2.95237 9.4037,-3.77193 15.9769,-3.7886 l 4.1646,-0.0106 v 0.76914 c 0,3.6255 -1.1735,10.24012 -2.6309,14.82916 -6.4288,20.24348 -24.4483,34.80725 -45.8936,37.09224 -4.3747,0.46612 -4.4794,0.45485 -4.4794,-0.48149 z"
     id="path7012"
     transform="matrix(0.75009608,0,0,0.75009608,0,-7.2893897e-4)" />
  <path
     style="fill:#f8ad1d;fill-opacity:1;stroke:#f8ad1d;stroke-width:1.2;stroke-miterlimit:4;stroke-dasharray:none"
     d="m 982.08693,279.08871 c -3.33167,-0.29656 -6.35815,-0.55084 -6.7255,-0.56508 l -0.6679,-0.0259 0.74824,-1.98789 c 2.90786,-7.72549 9.58607,-16.43876 17.49565,-22.82718 7.76748,-6.27366 17.65248,-11.28805 25.34358,-12.85617 4.0083,-0.81722 7.9469,-1.17469 11.0572,-1.00354 3.3576,0.18476 11.0615,1.33795 11.4569,1.71497 0.4203,0.40084 -1.2412,5.99685 -2.6861,9.04716 -3.4426,7.26741 -8.8318,13.36763 -16.3448,18.5012 -7.7219,5.27626 -16.6437,8.76534 -25.94545,10.14651 -3.88024,0.57616 -5.87514,0.55523 -13.73182,-0.14409 z"
     id="path7051"
     transform="matrix(0.75009608,0,0,0.75009608,0,-7.2893897e-4)" />
  <path
     style="fill:#f8ad1d;fill-opacity:1;stroke:#f8ad1d;stroke-width:1.2;stroke-miterlimit:4;stroke-dasharray:none"
     d="m 984.14695,234.88535 c -3.92739,-0.4154 -7.5581,-1.17623 -10.99497,-2.30405 -3.96607,-1.30148 -11.27259,-4.40062 -11.41871,-4.84337 -0.20675,-0.62644 2.46544,-4.21961 5.06114,-6.80548 9.5297,-9.4936 28.96481,-16.6654 45.27759,-16.70801 4.8346,-0.0126 8.0285,0.40248 11.5094,1.49585 2.3401,0.73502 11.2337,4.47865 11.7749,4.95643 0.3287,0.29015 -1.7456,4.18516 -3.4875,6.54863 -6.5569,8.89686 -17.9577,15.04091 -31.91198,17.19787 -3.67142,0.56751 -12.40103,0.82268 -15.80987,0.46213 z"
     id="path7090"
     transform="matrix(0.75009608,0,0,0.75009608,0,-7.2893897e-4)" />
  <path
     style="fill:#f8ad1d;fill-opacity:1;stroke:#f8ad1d;stroke-width:1.2;stroke-miterlimit:4;stroke-dasharray:none"
     d="m 1011.4366,181.25437 c -15.84939,-1.22141 -30.96899,-8.3627 -38.93983,-18.39207 -2.23396,-2.8109 -4.3642,-6.37825 -4.00793,-6.71176 0.55522,-0.51976 12.46496,-3.63632 16.92977,-4.43022 15.08749,-2.68273 33.22519,0.72761 44.56439,8.37928 3.086,2.08239 7.2501,6.11792 9.1336,8.85159 1.8647,2.70644 3.2201,5.35828 2.8885,5.65168 -0.4147,0.36705 -8.8628,3.85027 -11.3552,4.68185 -3.328,1.11041 -6.0159,1.62098 -10.4135,1.97808 -4.1856,0.33988 -4.2812,0.33979 -8.7998,-0.008 z"
     id="path7129"
     transform="matrix(0.75009608,0,0,0.75009608,0,-7.2893897e-4)" />
  <path
     style="fill:#f8ad1d;fill-opacity:1;stroke:#f8ad1d;stroke-width:1.2;stroke-miterlimit:4;stroke-dasharray:none"
     d="m 1035.4417,141.42386 c -20.7354,-3.22531 -38.04516,-18.31858 -45.07589,-39.30389 -0.73349,-2.189317 -0.83028,-2.761634 -0.5044,-2.982294 0.22445,-0.151985 3.62645,-0.219204 7.67238,-0.151597 6.92261,0.115676 7.44231,0.165915 10.90371,1.054011 17.1437,4.39868 30.9122,13.15203 38.4479,24.4434 3.3171,4.97023 4.9669,9.28241 6.0404,15.78777 l 0.1562,0.94667 -2.6556,0.34057 c -3.5474,0.45493 -11.6632,0.382 -14.9847,-0.13464 z"
     id="path7168"
     transform="matrix(0.75009608,0,0,0.75009608,0,-7.2893897e-4)" />
  <path
     style="fill:#f8ad1d;fill-opacity:1;stroke:#f8ad1d;stroke-width:1.2;stroke-miterlimit:4;stroke-dasharray:none"
     d="m 1133.3753,280.87961 c -25.4035,-1.59304 -45.1343,-10.29071 -61.4902,-27.10588 -13.6814,-14.06551 -22.1164,-33.17916 -23.9083,-54.17611 -1.3542,-15.86741 1.8159,-32.92659 8.6534,-46.56685 4.872,-9.71926 9.9605,-16.79787 15.2921,-21.27272 11.1197,-9.33299 25.932,-14.81673 46.1802,-17.09666 12.0304,-1.35461 28.7454,-1.56726 37.6859,-0.47944 15.203,1.84981 31.3557,6.68855 41.5504,12.44694 11.7232,6.62182 16.23,12.41246 27.7958,35.71455 11.6036,23.37812 15.7629,37.37763 15.7629,53.05508 0,16.56363 -4.9236,29.09742 -18.1864,46.29635 -5.5135,7.14973 -8.8927,10.29442 -11.9373,11.10872 -1.266,0.33859 -1.5307,0.31555 -2.5306,-0.22022 -0.7474,-0.40045 -1.2413,-0.94887 -1.4932,-1.65803 -0.6408,-1.80389 -0.4079,-2.95534 2.4686,-12.20381 3.466,-11.14368 4.9708,-20.49429 5.2347,-32.52763 0.201,-9.16844 -0.1117,-13.54838 -1.4422,-20.201 -5.0516,-25.25667 -22.2616,-45.05908 -47.2277,-54.34195 -7.4932,-2.78611 -13.2581,-4.06157 -24.3786,-5.39368 -6.625,-0.7936 -7.1918,-0.8167 -11.6747,-0.47583 -19.5167,1.48401 -31.4433,5.42978 -38.87,12.85965 -5.1149,5.11716 -8.1248,11.73445 -8.9892,19.76308 -0.5912,5.49065 0.4265,12.48819 3.0602,21.04201 6.0758,19.73281 10.9597,30.16579 17.4087,37.18792 4.9412,5.3803 12.275,9.72434 19.5553,11.58317 4.9757,1.27039 11.7252,1.28213 16.9992,0.0296 14.9558,-3.552 27.3671,-16.16841 27.2992,-27.75052 -0.038,-6.45408 -2.8107,-12.54034 -8.1396,-17.86583 -4.1478,-4.1451 -8.3377,-6.5143 -13.4288,-7.5934 -6.9312,-1.4691 -13.1408,1.20126 -15.7337,6.76609 -0.687,1.47444 -0.8066,2.1371 -0.8043,4.4578 0,3.57606 0.9498,5.79676 3.4561,8.11173 2.1798,2.01332 4.0513,2.70931 7.2291,2.68847 3.1531,-0.0207 4.3049,-0.4571 11.0022,-4.16891 3.1241,-1.73149 5.7553,-3.14817 5.847,-3.14817 0.2902,0 0.1683,10.65799 -0.1472,12.87238 -0.4653,3.2654 -1.3601,5.55671 -3.0474,7.80295 -2.6648,3.54759 -7.4671,6.81005 -12.7476,8.66017 -12.1094,4.24276 -24.2132,1.18809 -34.0301,-8.58825 -6.3044,-6.27839 -10.2846,-14.04552 -12.4711,-24.33643 -0.7393,-3.47962 -0.8152,-4.44313 -0.8264,-10.49472 -0.013,-6.95894 0.2118,-8.80205 1.6914,-13.87862 2.2951,-7.87419 7.4225,-14.90542 13.7419,-18.84412 5.3568,-3.33873 12.7363,-4.67548 29.3763,-5.3213 23.433,-0.90948 33.5259,1.11735 43.7555,8.78682 13.292,9.96552 22.091,30.95683 22.9284,54.6991 0.6414,18.18437 -4.2226,33.93451 -13.2352,42.85746 -3.636,3.59983 -7.5229,6.27954 -13.1658,9.07673 -13.1827,6.53478 -26.6666,8.93464 -44.0689,7.84335 z"
     id="path7207"
     transform="matrix(0.75009608,0,0,0.75009608,0,-7.2893897e-4)" />
  <path
     style="fill:#f8ad1d;fill-opacity:1;stroke:#f8ad1d;stroke-width:1.2;stroke-miterlimit:4;stroke-dasharray:none"
     d="m 1267.4252,180.49927 c -7.0021,-0.9533 -11.4098,-2.76351 -20.126,-8.26561 -0.5712,-0.3606 -0.2774,-1.12153 1.4621,-3.78617 4.9561,-7.592 14.712,-13.35993 26.4051,-15.61142 13.6111,-2.62079 27.1418,-0.97861 38.4649,4.66834 4.5054,2.24689 7.2264,3.77578 7.2264,4.0604 0,0.55614 -3.1059,4.5778 -4.5111,5.84122 -2.386,2.14525 -4.4912,3.4243 -10.1301,6.15473 -7.8519,3.80199 -14.6604,5.857 -23.0071,6.94419 -4.3062,0.5609 -11.6419,0.55826 -15.7842,-0.006 z"
     id="path7246"
     transform="matrix(0.75009608,0,0,0.75009608,0,-7.2893897e-4)" />
  <path
     style="fill:#f8ad1d;fill-opacity:1;stroke:#f8ad1d;stroke-width:1.2;stroke-miterlimit:4;stroke-dasharray:none"
     d="m 1290.8726,234.23802 c -5.8641,-0.59609 -14.2009,-2.53889 -18.9299,-4.41137 -5.9983,-2.37506 -10.3267,-5.60632 -13.2389,-9.8831 -1.4401,-2.11483 -2.7892,-5.05849 -2.4511,-5.34775 0.7221,-0.61767 6.026,-3.74145 8.118,-4.78111 10.1893,-5.06386 24.2159,-5.92218 38.2018,-2.33764 12.4013,3.17841 22.7041,9.88283 26.7371,17.39881 l 0.8915,1.66129 -4.596,1.613 c -15.2631,5.35671 -25.0498,7.07212 -34.7325,6.08787 z"
     id="path7285"
     transform="matrix(0.75009608,0,0,0.75009608,0,-7.2893897e-4)" />
  <path
     style="fill:#f8ad1d;fill-opacity:1;stroke:#f8ad1d;stroke-width:1.2;stroke-miterlimit:4;stroke-dasharray:none"
     d="m 1232.4169,135.8263 c -1.5826,-0.12066 -4.1176,-0.44959 -5.6335,-0.73096 l -2.7561,-0.51157 0.2788,-1.56703 c 0.1534,-0.86186 0.6737,-2.75436 1.1563,-4.20555 5.6624,-17.02593 24.0638,-30.479598 45.7224,-33.42862 3.4791,-0.473709 4.1021,-0.472794 9.958,0.01462 3.4357,0.285971 6.6113,0.609623 7.057,0.719226 l 0.8102,0.19928 -0.8361,2.594774 c -1.8924,5.87273 -5.7189,11.44004 -12.537,18.24059 -13.7198,13.68441 -27.9624,19.83857 -43.22,18.67524 z"
     id="path7324"
     transform="matrix(0.75009608,0,0,0.75009608,0,-7.2893897e-4)" />
  <path
     style="fill:#f8ad1d;fill-opacity:1;stroke:#f8ad1d;stroke-width:1.2;stroke-miterlimit:4;stroke-dasharray:none"
     d="m 1188.3818,101.23749 c -1.1608,-3.650394 -1.6684,-6.562574 -1.8875,-10.827945 -1.1766,-22.909179 14.8225,-47.816485 34.3497,-53.475238 1.4048,-0.407111 2.6212,-0.740201 2.7031,-0.740201 0.082,0 0.081,4.872575 0,10.827944 -0.1293,9.270585 -0.2429,11.328912 -0.7897,14.311058 -3.1407,17.12729 -11.7593,30.845502 -24.0773,38.323934 -2.181,1.324108 -8.35,4.069868 -9.1587,4.076418 -0.1886,0.002 -0.7005,-1.12166 -1.1375,-2.49597 z"
     id="path7363"
     transform="matrix(0.75009608,0,0,0.75009608,0,-7.2893897e-4)" />
  <path
     style="fill:#f8ad1d;fill-opacity:1;stroke:#f8ad1d;stroke-width:1.2;stroke-miterlimit:4;stroke-dasharray:none"
     d="m 1140.4744,98.928259 c -4.9017,-2.989076 -9.5222,-16.801201 -9.5222,-28.464735 0,-13.622219 4.2507,-27.511985 11.1155,-36.321394 2.3819,-3.056753 7.0525,-7.034411 8.2598,-7.034411 0.7162,0 4.4074,8.290772 6.1663,13.850137 4.8709,15.395462 4.2315,33.202377 -1.6331,45.488258 -4.6465,9.733825 -10.5267,14.835766 -14.3863,12.482145 z"
     id="path7402"
     transform="matrix(0.75009608,0,0,0.75009608,0,-7.2893897e-4)" />
  <path
     style="fill:#f8ad1d;fill-opacity:1;stroke:#f8ad1d;stroke-width:1.2;stroke-miterlimit:4;stroke-dasharray:none"
     d="m 1097.1308,106.09681 c -3.2946,-2.18955 -7.4484,-6.438175 -9.8819,-10.10733 -6.2579,-9.435649 -9.3552,-21.370436 -8.9109,-34.336512 0.337,-9.838622 2.2492,-17.064504 6.6817,-25.249303 l 1.6087,-2.970676 2.2909,1.532233 c 4.4572,2.98118 7.4562,7.002378 11.5982,15.551829 5.5317,11.417742 7.6806,20.57785 7.3216,31.210409 -0.2407,7.132374 -1.3311,12.130935 -4.0278,18.46502 -1.1384,2.6739 -3.7758,7.47859 -4.106,7.48021 -0.111,6.1e-4 -1.2695,-0.7086 -2.5745,-1.57588 z"
     id="path7441"
     transform="matrix(0.75009608,0,0,0.75009608,0,-7.2893897e-4)" />
  <path
     style="fill:#f8ad1d;fill-opacity:1;stroke:#f8ad1d;stroke-width:1.2;stroke-miterlimit:4;stroke-dasharray:none"
     d="m 1067.8018,114.32442 c -7.7025,-0.64754 -16.5474,-4.44894 -24.5332,-10.54403 -2.558,-1.95233 -8.0533,-7.344902 -10.2305,-10.03917 -2.4865,-3.077004 -5.1503,-7.165442 -6.7875,-10.417506 -2.3225,-4.613062 -3.7314,-9.484253 -6.0319,-20.854807 -0.1534,-0.758414 -0.089,-0.832919 0.7245,-0.832919 0.4912,0 2.1035,0.209141 3.5829,0.464758 15.2976,2.643129 29.6526,10.774681 39.3176,22.271934 7.0646,8.403893 11.0354,17.96025 11.7899,28.37423 l 0.1371,1.893 -2.6215,-0.0432 c -1.4418,-0.0237 -3.8481,-0.14629 -5.3474,-0.27233 z"
     id="path7480"
     transform="matrix(0.75009608,0,0,0.75009608,0,-7.2893897e-4)" />
</svg>
