<?xml version="1.0" encoding="UTF-8" standalone="no"?>
<!-- Generator: Adobe Illustrator 22.0.1, SVG Export Plug-In . SVG Version: 6.00 Build 0)  -->

<svg
   version="1.1"
   id="svg3"
   inkscape:version="1.1.2 (08b2f3d93c, 2022-04-05)"
   sodipodi:docname="nav-logo.svg"
   x="0px"
   y="0px"
   viewBox="0 0 983.09995 386"
   xml:space="preserve"
   width="983.09998"
   height="386"
   xmlns:inkscape="http://www.inkscape.org/namespaces/inkscape"
   xmlns:sodipodi="http://sodipodi.sourceforge.net/DTD/sodipodi-0.dtd"
   xmlns="http://www.w3.org/2000/svg"
   xmlns:svg="http://www.w3.org/2000/svg"><defs
   id="defs25" />
<style
   type="text/css"
   id="style2">
	.st0{fill:#00FF00;}
	.st1{fill:#F8AD1D;stroke:#F8AD1D;stroke-width:1.2;}
</style>
<sodipodi:namedview
   bordercolor="#666666"
   borderopacity="1.0"
   id="namedview5"
   inkscape:current-layer="svg3"
   inkscape:cx="762.84086"
   inkscape:cy="239.30568"
   inkscape:document-units="in"
   inkscape:pagecheckerboard="0"
   inkscape:pageopacity="0.0"
   inkscape:pageshadow="2"
   inkscape:window-height="1055"
   inkscape:window-maximized="1"
   inkscape:window-width="1920"
   inkscape:window-x="1366"
   inkscape:window-y="0"
   inkscape:zoom="0.57875767"
   pagecolor="#ffffff"
   showgrid="false"
   fit-margin-top="0"
   fit-margin-left="0"
   fit-margin-right="0"
   fit-margin-bottom="0">
	</sodipodi:namedview>
<path
   id="Selection"
   class="st0"
   d="m 844.5,42.2 c -1.2,3.7 -6.6,14.1 -11.5,12.7 -3.9,-1.1 -6.4,-10.1 -7.2,-13.7 -2.7,-12.7 1.6,-34.6 14,-40.99999998 C 847,12.8 849.2,28.3 844.5,42.2 Z m -41.4,-23 c 6.5,13.9 7.3,28.8 -1.2,42 -14.4,-7.7 -18.5,-28.1 -15.3,-43 1.1,-5.3 2.7,-8.4 5.3,-13 5.9,2.9 8.5,8.3 11.2,14 z m 91.8,-12 v 11 c -0.1,16.7 -9,35.2 -26,40 -7.8,-18.7 5.9,-47.2 26,-51 z m -111,59 c -3,0 -6,0.1 -9,-0.5 -12.6,-2.7 -24.7,-13.6 -29.5,-25.5 -1.5,-3.8 -2.7,-9.9 -3.5,-14 20.5,1.7 41.8,18.4 42,40 z m 150,-14.9 10,0.9 c -1.2,6.2 -4.8,10.5 -9,15 -10.9,11.4 -24.1,17.9 -40,14 2.8,-17.8 22,-29.1 39,-29.9 z m -204,3.1 c 16.2,2.8 35.4,13.9 37,31.8 -22.3,4 -42.2,-10.5 -48,-31.8 3.7,-0.2 7.4,-0.3 11,0 z m 112.2,97.8 c -1.9,3 -5.1,5.2 -8.3,6.7 -11.4,5.2 -23,0.9 -30.5,-8.6 -10.4,-13.4 -11.1,-39.6 5.5,-48.6 6.5,-3.5 23.2,-3.4 31,-3.4 9,0 16.8,1.7 24,7.5 16.8,13.8 21.5,50.5 9.6,68.5 -7.6,11.5 -25.4,16.8 -38.6,17 -19.8,0.2 -37.1,-4.4 -51.9,-18.3 -21.6,-20.2 -26.6,-55 -12.2,-80.7 2.2,-3.9 5.1,-8.6 8.3,-11.7 14.4,-13.8 38,-15.5 56.8,-15.3 14.2,0.2 35.1,5.2 46,14.5 5,4.2 9.3,12.6 12.3,18.5 7.2,14.1 14.1,28.7 13.7,45 -0.3,13.6 -6,23.6 -14.2,34 -1.8,2.3 -6.9,9.2 -10.4,7.7 -3,-1.3 -0.7,-6.6 0,-8.7 3.2,-10.1 4.8,-19.4 4.7,-30 -0.4,-31.6 -23.3,-53.2 -54,-56.1 -2.9,-0.3 -5,-0.8 -8,-0.6 -15.4,1.2 -33.1,3.7 -37,21.7 -1.6,7.4 0.7,15 3,22 4.7,14.3 9.3,27.5 25,32.6 17.5,5.7 36.1,-9.4 34.6,-21.6 -1.7,-14.6 -20.2,-23.5 -27,-13.9 -4.1,5.7 1,15.6 10.4,11.9 l 9,-5 c 0,4.4 0.7,11 -1.8,14.9 z m -119.2,-59 c 13.6,-0.3 30.2,4.5 36,18 -4,1.7 -8.7,4 -13,4.7 -15.3,2.5 -36,-3.9 -43,-18.7 7.3,-1.9 12.1,-3.8 20,-4 z m 231,1.9 c 5.4,1.3 9.2,3.4 14,6.1 -2.8,5.7 -7.5,7.6 -13,10.2 -10,4.7 -24.5,6.6 -35,2.3 -2.8,-1.2 -5.4,-2.9 -8,-4.5 6.8,-14.5 27.9,-17.6 42,-14.1 z m -217,38.1 c 7.6,0.2 10.3,2.1 17,5 -6.8,15.9 -28.4,20.9 -44,17.5 -4,-0.9 -8.2,-2.9 -12,-4.5 5.8,-11.7 26.6,-18.3 39,-18 z m 196,1.7 c 13.6,-2.9 35.6,1.9 42,15.3 -15.2,5.3 -23.7,8.3 -40,3.8 -7.2,-2 -13.5,-5.4 -16,-12.8 5.1,-3.3 7.9,-5.1 14,-6.3 z m -192,25.7 c 6.8,-1.3 10.4,-0.7 17,0.5 -2.7,17 -21.8,28.3 -38,29 l -12,-1 c 3.8,-13 19.8,-25.8 33,-28.5 z m 177,27.2 c -5.9,-4.7 -19.1,-19.4 -3,-19.6 18.1,-0.2 36.7,11.7 41,30 -14.4,0 -26.1,-0.8 -38,-10.4 z m -151,-5.8 c 3.3,-0.9 6.6,-0.8 10,-0.8 -0.1,21.9 -18.1,39.9 -40,40 1.3,-15.9 14.3,-34.8 30,-39.2 z m 124.5,23.2 c -1.3,-3.2 -4.3,-13.5 -0.9,-15.9 3.3,-2.3 12.5,2.6 15.4,4.5 14.4,9.3 19,23.2 19,39.4 -13.8,-3.3 -28.1,-14.8 -33.5,-28 z m -109.4,21 c 0,-11.8 5.1,-28.4 16.9,-33 12,19.3 4.3,48.6 -12,55 -2.9,-6.7 -4.9,-14.8 -4.9,-22 z m 103.9,8 c 0.1,7.4 0,7.8 -1,15 -18.2,-6.9 -32.9,-33.1 -25,-52 15.7,4.5 25.8,21.1 26,37 z m -43.5,5 c -1,3.5 -5.2,13.8 -9.5,13.8 -3.8,0 -7.1,-9.7 -8,-12.8 -4.5,-14.9 -2.9,-30.4 8,-42 11.3,8.9 13.5,27.8 9.5,41 z M 110,213.3 h 39 37 c 2.9,-0.1 6.3,-0.3 8.7,1.6 4.3,3.4 4.5,17.1 1,21 -3.3,3.5 -7.3,3.2 -11.7,3.2 H 71 c -10.8,0 -31.1,1.5 -36.9,12 -2.2,3.9 -2.1,8.7 -2.1,13 v 67 c 0,4.5 0.1,9.9 2.3,14 5.7,10.5 24.8,13 35.7,13 h 113 c 4.2,0 8.5,0.4 11.7,3.4 4.6,4.3 4.6,16.7 0,20.9 -3.3,2.9 -7.6,2.6 -11.7,2.6 H 61 C 43,384.8 15.2,376.8 5,361 0.8,354.5 0.1,349.5 0,342 v -88 c 0.1,-26.9 28.8,-37.2 51,-40.9 h 59 z m 148.6,134.8 c 6.3,8.3 21.6,10.1 31.3,10.1 h 76 39 c 3.7,0 8.8,0.3 11.8,2.7 3.5,2.8 3.3,7.2 3.2,11.3 -0.3,11.1 -5,13 -15,13 h -83 c -19.3,0 -38,1.2 -57,-3 -22,-4.8 -42,-15.9 -42,-41 v -83 c 0,-5.2 0.1,-8 1.7,-13 2,-6.2 5.5,-10.5 10.2,-14.9 19.1,-17.7 47.7,-17.1 72,-17.1 h 19 c 3.8,0 7.7,-0.3 10.8,2.4 4.6,4 4.6,17.1 0,21.1 -3.1,2.8 -6.9,2.4 -10.8,2.4 -16.3,0 -34.1,-1.1 -50,2.4 -6.4,1.4 -15.3,4.6 -18.7,10.6 -3.4,6.1 -2.3,26.1 -2.3,34 h 150 c 4.1,0 8.4,-0.3 11.9,2.5 6.3,5.1 5.2,17.2 -1,22 -3.6,2.8 -7.6,2.5 -11.9,2.5 H 255 c 0,8.9 -1.5,28.1 3.6,35 z m 219.3,25.1 c -0.2,13.6 -8.6,12 -19,12 -3.3,0 -6.8,0.1 -9.7,-2 -4.5,-3.3 -4.3,-10 -4.3,-15 v -119 -21 c 0,-4.4 0.4,-10.4 4.2,-13.3 2.7,-2 6.6,-1.7 9.8,-1.6 h 7 c 1.6,-0.1 3.4,-0.1 5,0 6.2,1.7 6.9,6.3 7,11.9 v 61 h 154 v -62 c 0.2,-12.9 9.1,-11 19,-11 3.6,0 6.9,-0.1 9.8,2.4 3.6,3.2 3.2,7.2 3.2,11.6 v 119 27 c 0,3.7 -0.1,6.8 -3.2,9.5 -3.7,3.2 -11,2.6 -15.8,2.5 -10,-0.1 -12.9,-3 -13,-13 v -59 h -154 z m 243,-55 v 53 c 0,3.9 -0.3,8.5 -3.4,11.3 -4.5,4.1 -23,3.9 -27.1,-0.6 -2.8,-3 -2.4,-6.9 -2.4,-10.7 v -122 -17 c 0,-9.7 2.6,-16.1 13,-18.7 2.1,-0.2 4.8,-0.3 7,0 12.1,0.3 17,7.4 24.3,15.7 l 17.3,20 61.3,71 c 6.6,7.5 20.1,24.8 27.1,30 2.9,-6.2 10.9,-14.5 15.6,-20 l 32,-38 41.2,-49 c 4.4,-5.3 17.8,-22.1 22.3,-25.4 9.1,-6.7 24.6,-6.8 31.3,3.4 2.7,4.2 2.7,9.2 2.7,14 v 115 21 c 0,3.9 -0.3,8.5 -3.4,11.3 -2.9,2.7 -6.8,2.6 -10.6,2.6 h -6 c -11.6,-0.1 -13,-4.5 -13,-15 v -13 -92 l -25.1,30 -50.5,61 -11.5,14 c -7.9,9.5 -13.7,15.9 -26.9,15.9 -13.8,0 -19.3,-7.2 -27.4,-16.9 l -11,-13 -48.7,-57.9 -28.1,-33 z" />
<path
   id="path6817"
   class="st1"
   d="m 882.2,247.8 c -6.2,-3.2 -12.1,-8.6 -16.6,-15.3 -3.2,-4.8 -5.8,-11.1 -7,-16.5 -0.7,-3.2 -0.9,-9.4 -0.4,-12.5 0.5,-2.8 1.4,-5.8 1.9,-6 0.4,-0.2 2.9,0.8 5.2,1.9 5.6,2.8 11.4,8.4 14.8,14.5 4.2,7.4 6,15.4 5.6,25 -0.2,5.1 -0.8,9.6 -1.3,9.7 -0.1,0.2 -1.1,-0.3 -2.2,-0.8 z" />
<path
   id="path6856"
   class="st1"
   d="m 923.8,232.8 c -0.2,-0.1 -1.3,-0.4 -2.5,-0.8 -2.7,-0.9 -7.4,-3.1 -10.2,-4.8 -7.9,-4.9 -14.8,-12.1 -18.4,-19.4 -3.7,-7.4 -4.8,-16.6 -2.1,-18.3 1.8,-1.2 5.3,-0.6 10.4,1.8 4.5,2.1 7.7,4.3 11.3,7.8 6.9,6.7 10.9,15.4 12.1,26.7 0.2,1.7 0.3,4.1 0.3,5.2 0,2 0,2 -0.9,1.8 z" />
<path
   id="path6895"
   class="st1"
   d="m 948.6,197.9 c -13.1,-0.5 -21.8,-3.4 -30.1,-9.9 -2.2,-1.7 -6.1,-5.8 -7.8,-7.9 -2.2,-3 -3.7,-6.4 -3.3,-8 0.6,-2.7 2.9,-3.8 8.4,-3.8 15.8,0 31.2,9.4 37.6,23 1,2.2 2.3,5.7 2.3,6.4 -0.1,0.5 -0.1,0.5 -7.1,0.2 z" />
<path
   id="path6934"
   class="st1"
   d="m 831.9,252.6 c -1.7,-0.9 -3.7,-4 -5.6,-8.8 -4.1,-10.6 -4.8,-21.9 -1.8,-31.3 1.3,-4.3 4.3,-9.5 7.4,-13.1 l 1,-1.1 1.8,1.8 c 4,4 7,9.8 8.4,16.5 1.4,6.5 1.2,14.2 -0.3,20.6 -1.7,6.8 -5.7,13.9 -8.6,15.3 -1.1,0.5 -1.4,0.5 -2.3,0.1 z" />
<path
   id="path6973"
   class="st1"
   d="m 786.1,245.8 c -3.1,-8.2 -4.5,-16.4 -3.8,-23.3 1.3,-13.4 7.2,-24.5 15.2,-28.5 1.5,-0.7 1.3,-0.8 2.8,2 2,4 3.3,8.3 4,13.2 0.4,3.4 0.3,10.1 -0.2,13.2 -2.1,11.5 -7.4,20.3 -14.9,24.6 -0.9,0.5 -1.8,1 -2,1 -0.2,-0.1 -0.7,-1 -1.1,-2.2 z" />
<path
   id="path7012"
   class="st1"
   d="m 737.1,220.5 c 0,-1.1 1.1,-6.1 1.9,-8.6 1.1,-3.3 4,-9.2 6,-12.2 2.3,-3.4 4.2,-5.7 7.2,-8.6 3.3,-3.1 6.1,-5.3 9.5,-6.9 4.5,-2.2 7.1,-2.8 12,-2.8 h 3.1 v 0.6 c 0,2.7 -0.9,7.7 -2,11.1 -4.8,15.2 -18.3,26.1 -34.4,27.8 -3.2,0.3 -3.3,0.3 -3.3,-0.4 z" />
<path
   id="path7051"
   class="st1"
   d="m 713.6,189.5 c -2.5,-0.2 -4.8,-0.4 -5,-0.4 h -0.5 l 0.6,-1.5 c 2.2,-5.8 7.2,-12.3 13.1,-17.1 5.8,-4.7 13.2,-8.5 19,-9.6 3,-0.6 6,-0.9 8.3,-0.8 2.5,0.1 8.3,1 8.6,1.3 0.3,0.3 -0.9,4.5 -2,6.8 -2.6,5.5 -6.6,10 -12.3,13.9 -5.8,4 -12.5,6.6 -19.5,7.6 -2.9,0.4 -4.4,0.3 -10.3,-0.2 z" />
<path
   id="path7090"
   class="st1"
   d="m 715.1,156.4 c -2.9,-0.3 -5.7,-0.9 -8.2,-1.7 -3,-1 -8.5,-3.3 -8.6,-3.6 -0.2,-0.5 1.8,-3.2 3.8,-5.1 7.1,-7.1 21.7,-12.5 34,-12.5 3.6,0 6,0.3 8.6,1.1 1.8,0.6 8.4,3.4 8.8,3.7 0.2,0.2 -1.3,3.1 -2.6,4.9 -4.9,6.7 -13.5,11.3 -23.9,12.9 -2.8,0.3 -9.3,0.5 -11.9,0.3 z" />
<path
   id="path7129"
   class="st1"
   d="m 735.6,116.1 c -11.9,-0.9 -23.2,-6.3 -29.2,-13.8 -1.7,-2.1 -3.3,-4.8 -3,-5 0.4,-0.4 9.3,-2.7 12.7,-3.3 11.3,-2 24.9,0.5 33.4,6.3 2.3,1.6 5.4,4.6 6.9,6.6 1.4,2 2.4,4 2.2,4.2 -0.3,0.3 -6.6,2.9 -8.5,3.5 -2.5,0.8 -4.5,1.2 -7.8,1.5 -3.3,0.3 -3.3,0.3 -6.7,0 z" />
<path
   id="path7168"
   class="st1"
   d="M 753.6,86.3 C 738,83.9 725.1,72.6 719.8,56.8 c -0.6,-1.6 -0.6,-2.1 -0.4,-2.2 0.2,-0.1 2.7,-0.2 5.8,-0.1 5.2,0.1 5.6,0.1 8.2,0.8 12.9,3.3 23.2,9.9 28.8,18.3 2.5,3.7 3.7,7 4.5,11.8 l 0.1,0.7 -2,0.3 c -2.6,0.3 -8.7,0.3 -11.2,-0.1 z" />
<path
   id="path7207"
   class="st1"
   d="m 827,190.9 c -19.1,-1.2 -33.9,-7.7 -46.1,-20.3 -10.3,-10.5 -16.6,-24.9 -17.9,-40.6 -1,-11.9 1.4,-24.7 6.5,-34.9 3.7,-7.3 7.5,-12.6 11.5,-16 8.3,-7 19.4,-11.1 34.6,-12.8 9,-1 21.6,-1.2 28.3,-0.4 11.4,1.4 23.5,5 31.2,9.3 8.8,5 12.2,9.3 20.8,26.8 8.7,17.5 11.8,28 11.8,39.8 0,12.4 -3.7,21.8 -13.6,34.7 -4.1,5.4 -6.7,7.7 -9,8.3 -0.9,0.3 -1.1,0.2 -1.9,-0.2 -0.6,-0.3 -0.9,-0.7 -1.1,-1.2 -0.5,-1.4 -0.3,-2.2 1.9,-9.2 2.6,-8.4 3.7,-15.4 3.9,-24.4 0.2,-6.9 -0.1,-10.2 -1.1,-15.2 -3.8,-18.9 -16.7,-33.8 -35.4,-40.8 -5.6,-2.1 -9.9,-3 -18.3,-4 -5,-0.6 -5.4,-0.6 -8.8,-0.4 -14.6,1.1 -23.6,4.1 -29.2,9.6 -3.8,3.8 -6.1,8.8 -6.7,14.8 -0.4,4.1 0.3,9.4 2.3,15.8 4.6,14.8 8.2,22.6 13.1,27.9 3.7,4 9.2,7.3 14.7,8.7 3.7,1 8.8,1 12.7,0 11.2,-2.7 20.5,-12.1 20.5,-20.8 0,-4.8 -2.1,-9.4 -6.1,-13.4 -3.1,-3.1 -6.3,-4.9 -10.1,-5.7 -5.2,-1.1 -9.9,0.9 -11.8,5.1 -0.5,1.1 -0.6,1.6 -0.6,3.3 0,2.7 0.7,4.3 2.6,6.1 1.6,1.5 3,2 5.4,2 2.4,0 3.2,-0.3 8.3,-3.1 2.3,-1.3 4.3,-2.4 4.4,-2.4 0.2,0 0.1,8 -0.1,9.7 -0.3,2.4 -1,4.2 -2.3,5.9 -2,2.7 -5.6,5.1 -9.6,6.5 -9.1,3.2 -18.2,0.9 -25.5,-6.4 -4.7,-4.7 -7.7,-10.5 -9.4,-18.3 -0.6,-2.6 -0.6,-3.3 -0.6,-7.9 0,-5.2 0.2,-6.6 1.3,-10.4 1.7,-5.9 5.6,-11.2 10.3,-14.1 4,-2.5 9.6,-3.5 22,-4 17.6,-0.7 25.1,0.8 32.8,6.6 10,7.5 16.6,23.2 17.2,41 0.5,13.6 -3.2,25.5 -9.9,32.1 -2.7,2.7 -5.6,4.7 -9.9,6.8 -9.9,5.1 -20,6.9 -33.1,6.1 z" />
<path
   id="path7246"
   class="st1"
   d="m 927.6,115.6 c -5.3,-0.7 -8.6,-2.1 -15.1,-6.2 -0.4,-0.3 -0.2,-0.8 1.1,-2.8 3.7,-5.7 11,-10 19.8,-11.7 10.2,-2 20.4,-0.7 28.8,3.5 3.4,1.7 5.4,2.8 5.4,3 0,0.4 -2.3,3.4 -3.4,4.4 -1.8,1.6 -3.4,2.6 -7.6,4.6 -5.9,2.9 -11,4.4 -17.3,5.2 -3.1,0.4 -8.6,0.4 -11.7,0 z" />
<path
   id="path7285"
   class="st1"
   d="m 945.2,155.9 c -4.4,-0.4 -10.7,-1.9 -14.2,-3.3 -4.5,-1.8 -7.7,-4.2 -9.9,-7.4 -1.1,-1.6 -2.1,-3.8 -1.8,-4 0.5,-0.5 4.5,-2.8 6.1,-3.6 7.6,-3.8 18.2,-4.4 28.7,-1.8 9.3,2.4 17,7.4 20.1,13 l 0.7,1.2 -3.4,1.2 c -11.7,4.1 -19.1,5.4 -26.3,4.7 z" />
<path
   id="path7324"
   class="st1"
   d="m 901.3,82.1 c -1.2,-0.1 -3.1,-0.3 -4.2,-0.5 L 895,81.2 895.2,80 c 0.1,-0.6 0.5,-2.1 0.9,-3.2 4.2,-12.8 18,-22.9 34.3,-25.1 2.6,-0.4 3.1,-0.4 7.5,0 2.6,0.2 5,0.5 5.3,0.5 l 0.6,0.1 -0.6,1.9 c -1.4,4.4 -4.3,8.6 -9.4,13.7 -10.4,10.4 -21,15 -32.5,14.2 z" />
<path
   id="path7363"
   class="st1"
   d="M 868.3,56.1 C 867.4,53.4 867,51.2 866.9,48 866,30.8 878,12.1 892.6,7.9 c 1.1,-0.3 2,-0.6 2,-0.6 0.1,0 0.1,3.7 0,8.1 -0.1,7 -0.2,8.5 -0.6,10.7 -2.4,12.8 -8.8,23.1 -18.1,28.7 -1.6,1 -6.3,3.1 -6.9,3.1 0,0.1 -0.4,-0.7 -0.7,-1.8 z" />
<path
   id="path7402"
   class="st1"
   d="m 832.4,54.4 c -3.7,-2.2 -7.1,-12.6 -7.1,-21.3 0,-10.2 3.2,-20.6 8.3,-27.2 1.8,-2.3 5.3,-5.29999998 6.2,-5.29999998 0.5,0 3.3,6.19999998 4.6,10.39999998 3.7,11.5 3.2,24.9 -1.2,34.1 -3.5,7.2 -7.9,11.1 -10.8,9.3 z" />
<path
   id="path7441"
   class="st1"
   d="m 799.8,59.8 c -2.5,-1.6 -5.6,-4.8 -7.4,-7.6 -4.7,-7.1 -7,-16 -6.7,-25.8 0.3,-7.4 1.7,-12.8 5,-18.9 l 1.2,-2.2 1.7,1.1 c 3.3,2.2 5.6,5.3 8.7,11.7 4.1,8.6 5.8,15.4 5.5,23.4 -0.2,5.3 -1,9.1 -3,13.8 -0.9,2 -2.8,5.6 -3.1,5.6 0,0.1 -0.9,-0.5 -1.9,-1.1 z" />
<path
   id="path7480"
   class="st1"
   d="m 777.9,65.9 c -5.8,-0.5 -12.4,-3.3 -18.4,-7.9 -1.9,-1.5 -6,-5.5 -7.7,-7.5 -1.9,-2.3 -3.9,-5.4 -5.1,-7.8 -1.7,-3.5 -2.8,-7.1 -4.5,-15.6 -0.1,-0.6 -0.1,-0.6 0.5,-0.6 0.4,0 1.6,0.2 2.7,0.3 11.5,2 22.2,8.1 29.5,16.7 5.3,6.3 8.3,13.5 8.8,21.3 l 0.1,1.4 h -2 c -1,-0.1 -2.8,-0.2 -3.9,-0.3 z" />
</svg>
