<?xml version="1.0" encoding="UTF-8" standalone="no"?>
<svg
   width="13.133775in"
   height="2.5109224in"
   viewBox="0 0 1261.0005 241.07858"
   version="1.1"
   id="svg3"
   sodipodi:docname="newlogos.svg"
   inkscape:version="1.1.2 (76b9e6a115, 2022-02-25)"
   xmlns:inkscape="http://www.inkscape.org/namespaces/inkscape"
   xmlns:sodipodi="http://sodipodi.sourceforge.net/DTD/sodipodi-0.dtd"
   xmlns="http://www.w3.org/2000/svg"
   xmlns:svg="http://www.w3.org/2000/svg">
  <defs
     id="defs7" />
  <sodipodi:namedview
     id="namedview5"
     pagecolor="#ffffff"
     bordercolor="#666666"
     borderopacity="1.0"
     inkscape:pageshadow="2"
     inkscape:pageopacity="0.0"
     inkscape:pagecheckerboard="0"
     inkscape:document-units="in"
     showgrid="false"
     inkscape:zoom="1.0824912"
     inkscape:cx="143.65013"
     inkscape:cy="114.08869"
     inkscape:window-width="1920"
     inkscape:window-height="1055"
     inkscape:window-x="1366"
     inkscape:window-y="0"
     inkscape:window-maximized="1"
     inkscape:current-layer="svg3"
     fit-margin-top="0"
     fit-margin-left="0"
     fit-margin-right="0"
     fit-margin-bottom="0" />
  <path
     id="Selection"
     fill="none"
     stroke="#000000"
     stroke-width="1"
     d="M 135,5e-7 C 144.31,16.420001 145.92,41.77 129,54 120.05,42.980001 118.29,27.100001 123.88,14 126.39,8.1100005 129.49,5.0700005 133,5e-7 c 0,0 2,0 2,0 z m 253,2.11 c 0,0 39,0 39,0 0,0 37,0 37,0 3.34,-0.06 6.82,0.01 9.46,2.54 3.64,3.75 3.57,16.2300005 0,20.1200005 -3.06,3.58 -7.13,3.22 -11.46,3.23 0,0 -113,0 -113,0 -10.14,0.02 -30.98,1.63 -36.72,11.09 -2.35,3.87 -2.27,8.55 -2.28,12.91 0,0 0,67.999999 0,67.999999 0.01,4.27 0.13,10.17 2.16,14 5.72,10.78 24.84,12.98 35.84,13 0,0 87,0 87,0 0,0 19,0 19,0 11.96,0 22.69,-1.09 21.96,15 -0.46,10.24 -6.08,11.99 -14.96,12 0,0 -89,0 -89,0 -14.44,0 -38.72,0.92 -52,-2.37 -8.55,-2.13 -11.23,-3.43 -19,-7.39 -14.8,-7.52 -22.97,-16.06 -23,-33.24 0,0 0,-86.999999 0,-86.999999 0.04,-27.37 28.14,-38.1200005 51,-41.8900005 0,0 59,0 59,0 z M 533,121 c 0.01,4.26 0.13,10.17 2.16,14 5.22,9.81 21.83,11.98 31.84,12 0,0 114,0 114,0 4.45,0.01 11.08,-0.09 14.35,3.43 4.77,5.13 3.4,17.96 -2.4,21.83 -3,2.01 -6.51,1.73 -9.95,1.74 0,0 -83,0 -83,0 -19.18,0 -38.14,1.15 -57,-3.01 -21.7,-4.8 -41.96,-16.3 -42,-40.99 0,0 0,-83 0,-83 0.05,-33.329999 37.25,-44.9599995 65,-44.9999995 0,0 33,0 33,0 4.23,0 11.42,-0.68 14.89,1.74 4.31,3 4.21,7.5600005 4.1,12.2599995 -0.28,11.040001 -5.44,11.990001 -14.99,12 -16.49,0.03 -33.89,-1.16 -50,2.65 -6.47,1.53 -14.47,4.11 -17.84,10.36 C 531.95,46.980001 533,67.35 533,75 c 0,0 128,0 128,0 0,0 16,0 16,0 10.73,0 22.96,-1.149999 21.9,14 -0.75,10.82 -7.53,12.98 -16.9,13 0,0 -149,0 -149,0 0,0 0,19 0,19 z m 223,39 c -0.01,3.79 0.33,7.71 -2.43,10.72 -4.18,4.57 -21.76,4.58 -26.43,0.77 -4.35,-3.56 -4.13,-9.4 -4.14,-14.49 0,0 0,-119 0,-119 0,0 0,-21 0,-21 0.06,-4.399999 0.38,-10.2199995 4.22,-13.1099995 2.86,-2.14 6.41,-1.88 9.78,-1.89 0,0 7,0 7,0 10.54,0.15 11.98,4.56 12,13.9999995 0,0 0,59 0,59 0,0 154,0 154,0 0,0 0,-59 0,-59 0.01,-3.85 -0.33,-7.6699995 2.43,-10.7699995 4.19,-4.72 22.95,-4.72 27.14,0 2.76,3.1 2.42,6.9200005 2.43,10.7699995 0,0 0,119 0,119 0,0 0,26 0,26 -0.06,4.27 -0.22,8.47 -4.13,11.15 -3.51,2.4 -10.64,1.9 -14.87,1.85 -10.05,-0.13 -12.95,-3.04 -13,-13 0,0 0,-59 0,-59 0,0 -154,0 -154,0 0,0 0,58 0,58 z m 243,-2 c -0.01,4.7 0.27,9.11 -3.28,12.69 -4.53,4.76 -22.67,4.86 -27.07,0 -2.91,-3.35 -2.64,-7.63 -2.65,-11.69 0,0 0,-138 0,-138 0.01,-4.05 -0.21,-7.37 2.01,-10.98 6.21,-10.1399995 22.25,-9.9199995 30.99,-3.4599995 5.65,4.1600005 17,18.3600005 22.28,24.4399995 0,0 43.99,51 43.99,51 0,0 31.88,37 31.88,37 4.75,5.39 14,14.94 16.85,21 0,0 81.73,-97 81.73,-97 0,0 27.7,-32.909999 27.7,-32.909999 8.44,-9.0500005 25.72,-12.1200005 33.92,-1.0500005 3.52,4.7500005 3.64,9.3500005 3.65,14.9599995 0,0 0,112 0,112 0,0 0,24 0,24 -0.06,4.94 -0.46,9.19 -5.05,12.15 -3.74,2.4 -10.55,1.9 -14.95,1.85 -9.68,-0.12 -12.87,-3.22 -13,-13 0,0 0,-15 0,-15 0,0 0,-92 0,-92 0,0 -26.08,31 -26.08,31 0,0 -50.51,61 -50.51,61 -10.14,12.19 -20.14,30.14 -38.41,28.82 -13.77,-1 -18.04,-6.97 -26.25,-16.82 0,0 -11.67,-14 -11.67,-14 0,0 -51.16,-61 -51.16,-61 0,0 -24.92,-30 -24.92,-30 0,0 0,105 0,105 z M 104.96,42 c -0.19,3.930001 -2.12,13.470001 -6.999999,13.970001 -4.36,0.45 -9.28,-7.59 -10.97,-10.970001 -6.64,-13.269999 -4.86,-28.79 3.01,-40.9999995 C 100.53,12.78 105.61,28.58 104.96,42 Z m 72.14,3.96 c -2.22,2.8 -10.4,10.79 -14.37,8 C 159.62,51.77 160.06,42.36 160.59,39 162.7,25.58 172.85,9.6900005 187,7.0000005 190.15,19.96 185.25,35.69 177.1,45.96 Z M 77.690001,47 c 1.57,2.870001 5.45,11.38 3.25,14.4 -2.42,3.330001 -11.97,-0.37 -14.94,-1.71 -15.16,-6.86 -21.07,-18.12 -24,-33.69 12.11,-3.17 30.19,10.990001 35.69,21 z M 217,49.230001 c 0,0 17,0 17,0 -2.79,14.64 -21.09,28.39 -36,28.76 -4.88,0.11 -6.29,-0.15 -11,-0.990001 3.25,-13.85 16.08,-24.92 30,-27.769999 z M 66.000001,82 c -2.99,0.240001 -6,0.920001 -9,0.680001 -16.75,-1.340001 -34.4,-14.090001 -36,-31.680001 20.19,0.06 40.65,9.670001 45,31 z M 106.01,148.47 c -15.519999,-12.14 -17.299999,-40.58 -2.97,-50.619999 6.61,-4.63 23.72,-4.94 31.96,-4.850001 4.41,0.06 8.79,0.69 13,2.050001 C 164.3,100.31 172.81,118.86 173,135 c 0,0 0,10 0,10 -0.07,5.62 -1.74,14.11 -4.53,19 -3.88,6.8 -11.39,11 -18.47,13.8 -18.06,7.11 -40.19,4.8 -56.999999,-4.67 -17,-9.59 -30.76,-29.23 -31,-49.13 0,0 0,-12 0,-12 0.17,-14.19 7.97,-29.8 19,-38.62 C 90.150001,66.06 106.4,62.14 118,62 c 18.95,-0.22 43.16,0.27 57.83,14.300001 4.36,4.17 7.98,11.37 11.02,16.699999 12.92,22.7 19.17,48.11 3.11,71 -4.17,5.95 -7.28,9.95 -13.96,13 -2.06,-7.5 2.67,-16.09 3.71,-24 2.59,-19.64 -0.14,-37.4 -14.75,-51.96 C 150.82,86.950001 127.03,82.31 108,86.900001 c -12.379999,2.98 -22.869999,11.12 -21.819999,25.099999 0.84,11.05 8.61,32.44 16.859999,39.79 9.43,8.4 21.36,9.3 31.96,2.74 4.28,-2.64 7.61,-5.85 9.64,-10.53 6.04,-14.02 -12.25,-30.09 -22.53,-21.57 -6.71,5.56 -1.19,12.83 3.46,13.59 4.44,0.72 9.03,-3.67 12.43,-6.02 6.39,22.51 -19.25,28.43 -31.99,18.47 z M 45.000001,92.790001 c 6.2,2.98 10.51,6.23 12,13.209999 -13.66,7 -27.91,6.73 -41,-1.7 C 10.890001,101.01 6.7600007,98.01 5.0000007,92 19.710001,88.680001 30.340001,85.730001 45.000001,92.790001 Z M 220,110.12 c -3.94,-0.46 -17.15,-2.93 -14.83,-9.14 1.3,-3.489999 7.54,-7.129999 10.83,-8.66 14.45,-6.72 27.68,-3.36 41,3.68 -5.49,10.56 -25.85,15.41 -37,14.12 z M 34.000001,126.18 c 3.99,-0.29 16.35,1.6 17.66,6.03 1.13,3.8 -6.84,9.58 -9.66,11.56 -13.64,8.18 -28.04,6.15 -42.00000032274613,0 C 5.1600007,133.19 22.620001,127.01 34.000001,126.18 Z M 225,127.67 c 13.7,-2.93 30.72,3.02 39,14.33 -14.89,8.24 -45.74,10.92 -54,-8 5.52,-2.92 8.71,-4.99 15,-6.33 z M 46.000001,152.01 c 4.88,-0.11 6.29,0.15 11,0.99 -3.21,20.47 -29.4,32.14 -48.0000003,26 C 15.520001,165.64 30.450001,152.39 46.000001,152.01 Z M 208.01,177.53 c -2.81,-2.34 -12.48,-12.86 -7.6,-16.51 1.52,-1.14 4.74,-1.01 6.59,-1.02 3.91,-0.02 7.17,-0.11 11,0.93 11.98,3.24 25.64,15.29 27,28.07 -13.94,0 -25.88,-2.22 -36.99,-11.47 z M 66.000001,172.79 c 3.15,-0.9 5.79,-0.78 9,-0.79 0,4.88 0.14,8.27 -1.55,13 -5.16,14.47 -21.31,25.29 -36.45,26 1.31,-15.62 13.49,-33.8 29,-38.21 z M 214.51,207 c 1.56,5.72 1.49,9.22 1.49,15 -19.14,-6.39 -36.42,-21.04 -34,-43 15.95,0.74 28.4,12.93 32.51,28 z M 84.190001,195 c 1.83,-3.28 7.14,-11.44 11.6,-9.75 C 100.08,186.87 101.8,197.91 101.96,202 c 0.46,11.61 -5.789999,30.43 -17.769999,34 -4.3,-12.57 -5.95,-28.77 0,-41 z M 152.18,197 c 0,0 0,-3.98 0,-3.98 2.67,-11.75 16.25,2.88 19.19,6.98 8.18,11.43 8.38,22.7 6.63,36 -14.97,-3.14 -26.34,-24.62 -25.82,-39 z m -15.99,2 c 4.07,9.27 3.86,22.71 0,32 -1.2,2.69 -4.9,11.68 -8.84,9.83 -2.61,-1.22 -5.48,-9.06 -6.31,-11.83 -3.26,-10.95 -4,-31.31 6.14,-38.83 5.43,-0.51 7.2,4.47 9.01,8.83 z M 296,240 c -4.86,-0.06 -9.16,-0.55 -12.77,-4.22 -3.56,-3.61 -3.22,-7.13 -3.23,-11.78 0,0 0,-14 0,-14 0.01,-8.73 1.48,-13.27 11,-15.47 2.38,-0.55 4.58,-0.52 7,-0.53 0,0 25,0 25,0 2.95,0.06 6.71,0 6.71,4 0,1.16 -0.38,2.24 -1.31,2.98 -1.58,1.25 -5.42,1.02 -7.4,1.02 0,0 -22,0 -22,0 -2.58,0.04 -5.58,0 -7.69,1.74 -2.53,2.09 -2.29,5.3 -2.31,8.26 -0.04,6.61 -2.09,17.32 6,19.86 1.83,0.22 5.04,0.14 7,0 0,0 20,0 20,0 2.15,0.17 5.52,0.03 7.01,1.88 1.17,1.45 0.97,4.47 0.99,6.26 0,0 -34,0 -34,0 z m 143.02,-44.4 c 1.78,-2.24 6.13,-1.84 7.38,0.71 0.77,1.57 0.6,5.82 0.6,7.69 3.18,0 16.58,-1.69 14.16,4.72 -1.28,3.36 -11.04,2.28 -14.16,2.28 0,0 0,22 0,22 -0.06,2.74 0.15,5.84 -3.14,6.67 -5.75,1.44 -5.83,-3.72 -5.86,-7.67 0,0 0,-21 0,-21 0,0 -5,0 -5,0 0.17,-4.79 -0.03,-6.12 5,-7 0,-2.14 -0.3,-6.73 1.02,-8.4 z M 572,202 c 0.02,-2.9 -0.43,-6.77 3.14,-7.67 8.39,-2.1 5.86,13.91 5.86,18.67 0,0 37,0 37,0 0,-3.2 -0.41,-14.45 0.74,-16.71 1.28,-2.52 5.45,-2.95 7.24,-0.69 1.17,1.48 1.01,4.58 1.02,6.4 0,0 0,38 0,38 -1.95,-0.01 -5.72,0.26 -7.26,-0.99 C 617.06,236.84 618,224.63 618,221 c 0,0 -37,0 -37,0 0,3.48 0.92,15.99 -1.6,17.98 -1.59,1.26 -5.41,1.01 -7.4,1.02 0,0 0,-38 0,-38 z m 391.74,37.01 C 961.62,237.3 962,232.5 962,230 c 0,0 0,-24 0,-24 0.01,-4.76 -0.46,-13.16 6.99,-11.53 3.72,0.82 6.34,4.74 8.62,7.53 0,0 13.97,17 13.97,17 1.54,1.89 5.32,7.17 7.49,7.8 3.27,0.96 6.76,-4.59 8.53,-6.8 0,0 19.49,-23.69 19.49,-23.69 8.36,-6.7 9.9,2.59 9.91,8.69 0,0 0,27 0,27 -0.01,1.81 0.15,4.93 -1.02,6.4 -1.1,1.38 -7.79,4.47 -7.98,-5.4 -0.12,-6.94 0.83,-16.56 -1,-23 -2.94,5.58 -13.55,18.56 -18,24 -2.98,3.63 -5.77,6.91 -11,5.68 -4.12,-0.97 -7.07,-5.52 -9.6,-8.68 0,0 -17.4,-22 -17.4,-22 0,0 0,31 0,31 -1.95,-0.01 -5.72,0.26 -7.26,-0.99 z M 1206,204 c 0,0 0,29 0,29 -0.08,3.86 -0.69,7.96 -5.86,6.67 -3.29,-0.83 -3.08,-3.93 -3.14,-6.67 0,0 0,-26 0,-26 0,-3.99 -0.8,-8.63 1.6,-11.98 7.77,-3.23 7.39,3.59 7.4,8.98 z m -848.15,29.31 c 2.01,0.61 3.35,2.25 2.49,4.39 -1.05,2.64 -5.03,2.28 -7.34,2.3 -5.56,0.03 -12.32,0.07 -16.43,-4.39 -3.54,-3.85 -2.58,-11.58 -2.57,-16.61 0,-2.8 -0.21,-6.4 1.17,-8.9 4.55,-8.19 22.61,-6.11 30.83,-6.1 4.48,0.01 9.07,-0.15 12.77,2.85 4.68,3.78 3.23,13.6 3.23,19.15 0,0 -39,0 -39,0 4.3,8.78 9.83,5.8 14.85,7.31 z M 385,216 c 0.06,-3.75 0.05,-6.58 3.23,-9.15 3.7,-3 8.29,-2.84 12.77,-2.85 8.37,-0.01 26.33,-2.38 30.69,6.04 1.49,2.88 1.31,6.78 1.31,9.96 0.01,3.29 0.41,15.43 -0.74,17.71 -1.28,2.52 -5.45,2.95 -7.24,0.69 -1.25,-1.59 -1.02,-5.41 -1.02,-7.4 -0.01,-3.51 0.58,-14.18 -1.02,-16.72 -1.33,-2.11 -3.67,-2.77 -5.98,-3.09 -4.55,-0.63 -19.23,-1.11 -22.26,2.32 -2.06,2.33 -1.74,6.55 -1.74,9.49 0,0 0,17 0,17 0,0 -8,0 -8,0 0,0 0,-24 0,-24 z m 82,1 c 0.06,-3.78 0.13,-6.8 3.23,-9.49 3.5,-3.05 10.26,-3.85 14.75,-3.45 2.53,0.22 5.66,1.38 4.36,4.64 -1.58,3.98 -8.77,0.59 -12.74,5.58 -1.89,2.37 -1.59,5.85 -1.6,8.72 0,0 0,17 0,17 0,0 -8,0 -8,0 0,0 0,-23 0,-23 z m 60,-13 c 4.14,0.05 8.45,0.34 11.67,3.42 4.89,4.82 4.78,23.42 0,28.36 -4.03,4.27 -9.24,4.21 -14.67,4.22 -7.56,0.01 -20.91,1.36 -26.77,-3.65 -3.14,-2.67 -3.17,-5.55 -3.23,-9.35 -0.14,-10.42 -2.14,-18.58 10,-22.47 5.39,-0.89 17.06,-0.6 23,-0.53 z m 106.28,31.78 c -4.68,-4.89 -4.81,-22.68 0,-27.51 4.07,-4.09 10.34,-4.26 15.72,-4.27 6.74,-0.01 20.62,-1.22 25.89,2.7 1.58,1.17 2.65,2.48 3.37,4.32 1.03,2.61 1.5,12.09 -0.86,13.96 -1.48,1.17 -4.58,1.01 -6.4,1.02 0,0 -32,0 -32,0 4.32,7.57 10.18,6.99 18,7 0,0 0,7 0,7 -7.31,0 -18.31,1.44 -23.72,-4.22 z m 69.29,-31.26 c 2.09,1.1 2.64,3.96 0.82,5.46 -2.27,1.87 -8.36,-0.01 -11.79,4.3 -2.41,3.02 -1.59,12.67 -1.6,16.72 -0.01,4.02 0.38,10.23 -5.86,8.67 -3.57,-0.9 -3.12,-4.77 -3.14,-7.67 -0.08,-11.49 -3.17,-24.02 11,-27.48 2.43,-0.39 8.42,-1.03 10.57,0 z m 40.43,0.55 c 0,0 17,-1.07 17,-1.07 4.5,0.06 9.24,0.52 12.28,4.34 3.6,4.53 2.73,15.88 2.72,21.66 0,2.26 0.25,6.63 -1.17,8.43 -1.77,2.23 -5.99,1.79 -7.23,-0.74 -1.01,-2.06 -0.55,-13.6 -0.6,-16.69 -0.25,-13.29 -14.42,-10.73 -17.69,-7.57 -2.67,2.59 -2.3,6.17 -2.31,9.57 -0.01,4.7 2.29,18.71 -5.86,16.67 -4.77,-1.2 -3.13,-13.65 -3.14,-17.67 -0.01,-2.69 0.32,-6.36 -1.6,-8.49 -3.4,-3.77 -13.68,-3.16 -16.8,0.77 -2.41,3.02 -1.59,12.67 -1.6,16.72 -0.01,3.47 0.71,8.4 -4.01,8.8 -1.43,0.13 -2.89,-0.2 -3.82,-1.37 -1.42,-1.8 -1.17,-6.17 -1.17,-8.43 -0.02,-9.97 -2.39,-21.37 9,-25.44 10.78,-1.89 23.15,0.82 26,0.51 z m 63.31,5.33 c -2.53,-1.25 -2.53,-4.55 0,-6.04 1.54,-0.52 5.86,-0.38 7.69,0 2.13,-0.33 3.88,-0.3 6,0 12.47,2.52 10.05,12.9 10,22.64 -0.02,3.48 0.19,6.88 -2.43,9.58 -3.44,3.55 -9.02,3.41 -13.57,3.42 -7.17,0.01 -23.12,1.1 -28.96,-2 -8.2,-4.35 -7.95,-17.35 -0.94,-21.59 8.4,-5.06 26.56,-0.47 36.9,-3.41 -8.55,-2.77 -12.72,-1.63 -14.69,-2.6 z M 834,216 c 0.06,-3.75 0.05,-6.58 3.23,-9.15 3.7,-3 8.29,-2.84 12.77,-2.85 8.37,-0.01 26.33,-2.38 30.69,6.04 1.49,2.88 1.31,6.78 1.31,9.96 0.01,3.29 0.41,15.43 -0.74,17.71 -1.28,2.52 -5.45,2.95 -7.24,0.69 -1.25,-1.59 -1.02,-5.41 -1.02,-7.4 -0.01,-3.51 0.58,-14.18 -1.02,-16.72 -1.33,-2.11 -3.67,-2.77 -5.98,-3.09 -4.55,-0.63 -19.23,-1.11 -22.26,2.32 -2.06,2.33 -1.74,6.55 -1.74,9.49 0,0 0,17 0,17 0,0 -8,0 -8,0 0,0 0,-24 0,-24 z m 89,-11.54 c 2.49,0.5 4.98,1.83 6.69,3.75 2.22,2.5 2.25,4.64 2.31,7.79 0.16,9.06 2.37,20.7 -9,23.47 -2.49,0.61 -5.43,0.53 -8,0.53 -7.77,0.01 -20.71,1.36 -26.86,-3.65 -5.5,-4.48 -5.65,-21.77 -1.44,-27.14 2.18,-2.79 5.07,-3.72 8.3,-4.75 4.16,-0.61 24.26,-0.93 28,0 z m 145.31,5.94 c -2.53,-1.25 -2.53,-4.55 0,-5.8 1.54,-0.76 5.86,-0.62 7.69,-0.6 2.5,0.03 4.54,0.08 7,0.68 11.23,2.74 9.12,13.29 9,22.32 -0.05,3.47 -0.13,6.74 -2.65,9.44 -3.47,3.73 -8.69,3.55 -13.35,3.56 -7.81,0.01 -23.58,1.32 -29.96,-2.53 -7,-4.23 -7.2,-16.88 0,-21.06 8.84,-5.12 26.42,-0.41 36.96,-3.41 -8.55,-2.77 -12.72,-1.63 -14.69,-2.6 z M 1096,216 c 0.05,-3.7 0.08,-6.76 3.23,-9.3 3.27,-2.64 7.79,-2.68 11.77,-2.7 7.57,-0.04 26.77,-2.15 30.83,5.11 1.38,2.47 1.17,6.11 1.17,8.89 0,0 0,22 0,22 -1.83,-0.02 -4.91,0.16 -6.4,-1.02 -1.98,-1.57 -1.6,-5.68 -1.6,-7.98 -0.01,-3.51 0.58,-14.18 -1.02,-16.72 -2.31,-3.67 -8.2,-3.27 -11.98,-3.28 -4.58,-0.01 -14.25,-1.05 -16.98,3.28 -1.69,2.68 -0.95,14.89 -1.02,18.72 -0.04,1.95 0.1,4.63 -1.6,5.98 -1.49,1.18 -4.57,1 -6.4,1.02 0,0 0,-24 0,-24 z m 94.77,-8.58 c 1.46,1.33 2.28,2.69 2.8,4.58 0.65,2.36 0.65,17.64 0,20 -0.52,1.89 -1.34,3.25 -2.8,4.58 -3.83,3.52 -8.93,3.41 -13.77,3.42 -7.84,0.01 -20.63,1.37 -26.87,-3.65 -4.46,-3.58 -4.12,-8.19 -4.13,-13.35 -0.02,-10.19 -0.12,-15.15 11,-18.47 7.23,-1.18 28.42,-2.03 33.77,2.89 z M 1242,204 c 4.22,0.05 8.28,0.34 11.43,3.56 5.24,5.32 5.11,24.04 -0.57,29.02 -4,3.51 -8.9,3.41 -13.86,3.42 -7.56,0.01 -20.91,1.36 -26.77,-3.65 -3.14,-2.67 -3.17,-5.55 -3.23,-9.35 -0.15,-10.89 -2.62,-18.7 10,-22.47 5.38,-0.88 17.07,-0.6 23,-0.53 z m -886,7 c -3.34,0.02 -8.91,0.13 -11.69,2.14 -1.97,1.42 -1.94,2.7 -2.31,4.86 0,0 32,0 32,0 -1.45,-8.45 -11.27,-7.03 -18,-7 z m 147.67,3.3 c -2.33,2.76 -2.46,13.35 0,15.98 2.61,2.64 8.88,2.7 12.33,2.72 4.01,0.02 11.38,0.26 14.69,-2.14 3.44,-2.49 3.28,-15.4 0,-18.01 -3.41,-2.7 -16.21,-2 -20.69,-1.55 -2.44,0.54 -4.7,0.92 -6.33,3 z m 164.76,-1.14 c -1.59,-1.31 -6.35,-1.93 -8.43,-2.07 -4.42,-0.31 -16.33,-0.8 -19.4,2.47 -1.34,1.42 -1.31,2.68 -1.6,4.44 0,0 31,0 31,0 -0.15,-1.83 0,-3.54 -1.57,-4.84 z m 226.17,0.56 c -0.99,1.01 -1.23,1.98 -1.45,3.32 -0.48,2.88 -0.62,11.13 1.45,13.24 2.56,2.61 8.94,2.7 12.4,2.72 3.95,0.02 11.34,0.28 14.63,-2.14 3.38,-2.57 3.47,-15.34 0,-17.93 -3.47,-2.67 -16.1,-2.08 -20.63,-1.63 -2.15,0.43 -4.78,0.78 -6.4,2.42 z m 262,0 c -2.34,2.38 -2.34,14.18 0,16.56 2.56,2.61 8.94,2.7 12.4,2.72 3.99,0.02 10.48,0.34 13.85,-1.93 4.12,-2.77 4.65,-15.07 0.72,-18.14 -3.44,-2.68 -16.1,-2.08 -20.57,-1.63 -2.15,0.43 -4.78,0.78 -6.4,2.42 z m 62.07,0 c -2.33,2.5 -2.5,14.09 0,16.56 2.49,2.61 8.87,2.7 12.33,2.72 4.01,0.02 11.38,0.26 14.69,-2.14 3.45,-2.5 3.37,-15.37 0,-17.93 -3.53,-2.67 -16.16,-2.08 -20.69,-1.63 -2.14,0.43 -4.67,0.77 -6.33,2.42 z M 801,221 c -4.36,0.06 -12.32,0.21 -12.8,6 -0.13,1.49 0.21,2.86 1.37,3.86 3.31,2.84 15.86,2.16 20.43,2.14 3.28,-0.02 8.01,0.14 10.4,-2.51 2.03,-2.25 1.6,-6.62 1.6,-9.49 0,0 -21,0 -21,0 z m 262,0 c -2.88,0.04 -8.33,0.28 -10.69,1.98 -2.34,1.7 -3.08,5.87 -0.74,7.88 3.3,2.84 15.86,2.16 20.43,2.14 3.28,-0.02 7.89,0.18 10.26,-2.51 2.07,-2.34 1.73,-6.55 1.74,-9.49 0,0 -21,0 -21,0 z"
     style="stroke-width:0.70008748;stroke-miterlimit:4;stroke-dasharray:none" />
  <path
     style="fill:#f8ad1d;stroke:#f8ad1d;stroke-width:0.976235;stroke-linejoin:bevel;stroke-miterlimit:4;stroke-dasharray:none;paint-order:fill markers stroke"
     d=""
     id="path2767" />
  <path
     style="fill:#f8ad1d;stroke:#f8ad1d;stroke-width:0.976235;stroke-linejoin:bevel;stroke-miterlimit:4;stroke-dasharray:none;paint-order:fill markers stroke"
     d=""
     id="path3038" />
  <path
     style="fill:#f8ad1d;stroke:#f8ad1d;stroke-width:0.976235;stroke-linejoin:bevel;stroke-miterlimit:4;stroke-dasharray:none;paint-order:fill markers stroke"
     d=""
     id="path3229" />
  <path
     style="fill:#f8ad1d;stroke:#f8ad1d;stroke-width:0.976235;stroke-linejoin:bevel;stroke-miterlimit:4;stroke-dasharray:none;paint-order:fill markers stroke"
     d=""
     id="path3307" />
  <path
     style="fill:#f8ad1d;stroke:#f8ad1d;stroke-width:0.976235;stroke-linejoin:bevel;stroke-miterlimit:4;stroke-dasharray:none;paint-order:fill markers stroke"
     d=""
     id="path3346" />
  <path
     style="fill:#f8ad1d;stroke:#f8ad1d;stroke-width:0.976235;stroke-linejoin:bevel;stroke-miterlimit:4;stroke-dasharray:none;paint-order:fill markers stroke"
     d=""
     id="path3422" />
  <path
     style="fill:#f8ad1d;stroke:#f8ad1d;stroke-width:0.976235;stroke-linejoin:bevel;stroke-miterlimit:4;stroke-dasharray:none;paint-order:fill markers stroke"
     d=""
     id="path3500" />
  <path
     style="fill:#f8ad1d;stroke:#f8ad1d;stroke-width:0.976235;stroke-linejoin:bevel;stroke-miterlimit:4;stroke-dasharray:none;paint-order:fill markers stroke"
     d=""
     id="path3695" />
  <path
     style="fill:#f8ad1d;stroke:#f8ad1d;stroke-width:3.00037493;stroke-linejoin:bevel;stroke-miterlimit:4;stroke-dasharray:none;paint-order:fill markers stroke"
     d="m 290.34212,238.79545 c -3.97831,-0.86352 -7.10223,-3.28069 -8.73237,-6.75682 l -0.91342,-1.94775 0.006,-12.20295 c 0.007,-13.2965 0.18799,-15.00991 1.86579,-17.65073 1.22156,-1.92273 3.10622,-3.23119 6.37233,-4.4241 l 2.5639,-0.93643 16.73547,-0.10784 c 9.20451,-0.0593 17.2629,-0.01 17.90755,0.11028 3.53306,0.65743 3.8819,5.137 0.47375,6.08353 -0.79648,0.22121 -6.8975,0.36101 -15.80596,0.3622 -8.368,0.001 -15.3002,0.15204 -16.37867,0.35657 -2.54744,0.48311 -4.24181,1.68493 -5.24332,3.71908 -0.80434,1.63367 -0.82672,1.91977 -0.82672,10.56983 0,10.06365 0.25802,11.48447 2.54534,14.01626 2.36508,2.61785 1.57122,2.51161 18.89698,2.52916 15.1509,0.0153 15.55348,0.0334 17.14645,0.76961 1.359,0.62806 1.6933,0.97721 2.00283,2.09193 0.20434,0.73593 0.37242,1.92641 0.37348,2.64551 l 0.002,1.30745 -18.39158,-0.0277 c -14.21599,-0.0214 -18.89299,-0.13655 -20.60008,-0.50708 z"
     id="path3849" />
  <path
     style="fill:#f8ad1d;stroke:#f8ad1d;stroke-width:3.00037493;stroke-linejoin:bevel;stroke-miterlimit:4;stroke-dasharray:none;paint-order:fill markers stroke"
     d="m 345.14416,238.94856 c -4.83391,-0.8076 -8.22466,-3.1087 -9.60092,-6.51556 -0.7682,-1.90164 -0.8053,-2.40347 -0.8053,-10.89378 0,-8.86036 0.004,-8.90807 0.89068,-10.63078 1.65712,-3.21955 5.044,-5.01294 11.28776,-5.97701 2.86126,-0.44177 5.48707,-0.50395 14.18787,-0.33593 5.87225,0.11341 11.46483,0.37519 12.42795,0.58174 0.96313,0.20655 2.58678,0.87598 3.60812,1.48761 3.46811,2.07691 4.82493,6.70641 4.32246,14.74832 l -0.24811,3.97085 h -19.6864 -19.68641 l 0.96747,1.77756 c 1.2724,2.33782 3.31836,4.40908 5.15984,5.22366 0.90566,0.40062 2.9991,0.79008 5.3606,0.99732 4.15632,0.36473 5.78816,0.94291 6.39012,2.26406 0.5516,1.21063 -0.2843,2.70936 -1.80045,3.22813 -1.40712,0.48147 -10.03678,0.53132 -12.77528,0.0738 z M 374.659,218.18987 c 0,-2.53995 -1.95532,-5.24528 -4.80113,-6.64274 l -1.99765,-0.98096 h -9.4137 c -7.92769,0 -9.71986,0.0948 -11.35321,0.60091 -3.70516,1.14797 -5.20841,2.76029 -5.69727,6.11071 l -0.21621,1.48178 h 16.73958 c 15.25723,0 16.73959,-0.0504 16.73959,-0.5697 z"
     id="path3888" />
  <path
     style="fill:#f8ad1d;stroke:#f8ad1d;stroke-width:3.00037493;stroke-linejoin:bevel;stroke-miterlimit:4;stroke-dasharray:none;paint-order:fill markers stroke"
     d="m 385.81792,225.81985 c 10e-4,-8.21773 0.14302,-14.01836 0.36206,-14.80704 0.72002,-2.59253 3.34721,-4.76637 6.87076,-5.68515 2.85042,-0.74325 22.78817,-1.14237 26.93348,-0.53916 6.02433,0.87664 9.28913,2.55363 10.96462,5.63204 0.96501,1.77304 1.01289,2.08974 1.30977,8.66339 0.32366,7.16684 0.1098,15.33239 -0.45951,17.54517 -0.19042,0.74011 -0.70539,1.55001 -1.18566,1.8647 -1.06119,0.69532 -2.99888,0.77077 -4.13803,0.16111 -1.57028,-0.84039 -1.72215,-1.8674 -1.77457,-12.00085 -0.0532,-10.2774 -0.27325,-11.87834 -1.87044,-13.60547 -0.51072,-0.55227 -1.58792,-1.30156 -2.39379,-1.6651 -2.03118,-0.91627 -8.33567,-1.46173 -14.04996,-1.21557 -8.33892,0.35922 -11.37558,1.31472 -12.90025,4.05913 l -0.87164,1.56895 -0.10439,11.76712 -0.10439,11.76712 h -3.29501 -3.29499 z"
     id="path3927" />
  <path
     style="fill:#f8ad1d;stroke:#f8ad1d;stroke-width:3.00037493;stroke-linejoin:bevel;stroke-miterlimit:4;stroke-dasharray:none;paint-order:fill markers stroke"
     d="m 440.60523,238.78258 c -1.70727,-1.22527 -1.7936,-1.97878 -1.7936,-15.65362 v -12.73712 h -2.63628 -2.63628 l 0.23348,-1.65612 c 0.32286,-2.29002 0.94729,-3.1273 2.68424,-3.59912 0.81575,-0.22159 1.66516,-0.45306 1.88756,-0.51438 0.26609,-0.0734 0.44491,-1.42833 0.52297,-3.96267 0.11308,-3.6709 0.16389,-3.89638 1.08552,-4.81703 0.78887,-0.78801 1.25911,-0.95958 2.55388,-0.93181 2.92089,0.0627 3.87935,1.91544 3.95039,7.63638 l 0.026,2.09193 h 5.4908 c 4.8015,0 5.66287,0.0875 6.8614,0.69732 1.76223,0.89655 2.18897,1.59364 1.74961,2.858 -0.56013,1.61193 -2.82706,2.16403 -8.96018,2.18224 l -5.14268,0.0153 -0.0294,11.41846 c -0.0343,13.32759 -0.18553,15.10687 -1.38486,16.29677 -1.13875,1.12978 -3.36084,1.46615 -4.46253,0.67551 z"
     id="path3966" />
  <path
     style="fill:#f8ad1d;stroke:#f8ad1d;stroke-width:3.00037493;stroke-linejoin:bevel;stroke-miterlimit:4;stroke-dasharray:none;paint-order:fill markers stroke"
     d="m 467.75003,226.48541 c 0,-13.91475 0.11736,-14.9846 1.90003,-17.32182 2.03278,-2.66511 6.99908,-4.35849 12.84616,-4.38019 4.97947,-0.0185 7.14023,1.18175 6.20261,3.44537 -0.54441,1.31432 -1.46216,1.70114 -5.44664,2.29564 -4.51101,0.67308 -6.4551,1.79127 -7.95283,4.57428 -0.71766,1.33351 -0.75514,1.89493 -0.85537,12.81309 l -0.10483,11.41846 h -3.29457 -3.29456 z"
     id="path4005" />
  <path
     style="fill:#f8ad1d;stroke:#f8ad1d;stroke-width:3.00037493;stroke-linejoin:bevel;stroke-miterlimit:4;stroke-dasharray:none;paint-order:fill markers stroke"
     d="m 505.23051,238.80814 c -6.59638,-1.24107 -9.60783,-3.69331 -10.34425,-8.42339 -0.19259,-1.23712 -0.29735,-5.49637 -0.2328,-9.465 0.11504,-7.07206 0.13667,-7.25496 1.08656,-9.18927 1.5824,-3.22227 4.36737,-5.3147 8.52105,-6.40211 2.68561,-0.70308 16.36321,-1.04604 23.28339,-0.58381 6.34044,0.42349 8.49793,1.10404 10.54679,3.3268 1.77905,1.93004 2.79211,4.91888 3.30702,9.75674 0.70227,6.59825 -0.57126,13.87345 -2.98327,17.04211 -1.40207,1.84193 -4.78528,3.64405 -7.73264,4.11894 -3.17463,0.51151 -22.50163,0.37405 -25.45185,-0.18101 z m 22.31228,-5.9231 c 2.93626,-0.79168 4.02546,-1.52749 4.92049,-3.32407 1.99463,-4.00381 1.741,-12.90996 -0.46348,-16.27441 -1.41843,-2.1648 -4.9965,-2.9222 -13.83959,-2.92955 -11.10687,-0.009 -14.56239,1.22372 -16.14695,5.76129 -0.8792,2.51769 -0.87861,10.15937 9.4e-4,12.43826 1.60278,4.15267 5.34534,5.25923 16.9882,5.02296 4.4814,-0.0909 7.08812,-0.30292 8.54039,-0.69448 z"
     id="path4044" />
  <path
     style="fill:#f8ad1d;stroke:#f8ad1d;stroke-width:3.00037493;stroke-linejoin:bevel;stroke-miterlimit:4;stroke-dasharray:none;paint-order:fill markers stroke"
     d="m 572.69589,218.6724 c 6.2e-4,-23.3187 -0.0778,-22.59298 2.54735,-23.58057 1.1707,-0.44042 1.46294,-0.4349 2.47295,0.0467 2.37263,1.13143 3.17645,4.79532 2.83009,12.89984 l -0.23468,5.49133 h 19.17052 19.17052 l 0.12388,-8.10624 c 0.0835,-5.46447 0.26064,-8.34709 0.54355,-8.84527 0.23081,-0.40647 0.9968,-1.0129 1.70218,-1.34762 1.07782,-0.51146 1.4973,-0.54424 2.62838,-0.20536 2.67875,0.80258 2.5511,-0.31334 2.66339,23.28279 l 0.10004,21.0222 -1.84332,-0.002 c -3.02177,-0.003 -4.43397,-0.55214 -5.01835,-1.95073 -0.75867,-1.81563 -1.21259,-7.79885 -0.95617,-12.60355 l 0.22793,-4.27102 h -19.20019 -19.2002 l -0.12451,7.75758 c -0.14601,9.09658 -0.38531,10.07803 -2.60771,10.69514 -0.73442,0.20393 -2.15901,0.37166 -3.16574,0.37273 l -1.83045,0.002 z"
     id="path4083" />
  <path
     style="fill:#f8ad1d;stroke:#f8ad1d;stroke-width:3.00037493;stroke-linejoin:bevel;stroke-miterlimit:4;stroke-dasharray:none;paint-order:fill markers stroke"
     d="m 640.81872,238.81131 c -2.2971,-0.49969 -4.52458,-1.51486 -6.31519,-2.87812 -2.46022,-1.87308 -3.97184,-7.30644 -3.94543,-14.18142 0.0276,-7.18296 1.37445,-11.53582 4.28001,-13.83254 3.33729,-2.63798 8.36327,-3.39716 22.76401,-3.43849 12.08642,-0.0347 16.98545,1.45141 19.48624,5.9111 1.05877,1.88813 1.07529,1.99261 1.07529,6.79878 0,5.23098 -0.35738,6.8243 -1.70393,7.59659 -0.54124,0.31042 -5.7499,0.46873 -19.63566,0.59681 l -18.899,0.17433 0.98619,1.58406 c 0.54241,0.87123 1.80574,2.32089 2.8074,3.22146 2.41701,2.17311 5.097,3.00714 10.55732,3.28549 l 4.09672,0.20885 v 2.73602 2.73601 l -6.71163,-0.0277 c -4.17763,-0.0173 -7.51607,-0.20271 -8.84234,-0.49122 z m 29.75116,-22.19706 c -0.11712,-1.29168 -0.4575,-2.50558 -0.85541,-3.05073 -1.63775,-2.24381 -6.11595,-3.19184 -15.25939,-3.23041 -11.67849,-0.0493 -15.25889,1.46405 -16.01822,6.77035 l -0.23699,1.65611 h 16.28227 16.28227 z"
     id="path4122" />
  <path
     style="fill:#f8ad1d;stroke:#f8ad1d;stroke-width:3.00037493;stroke-linejoin:bevel;stroke-miterlimit:4;stroke-dasharray:none;paint-order:fill markers stroke"
     d="m 684.02995,238.82151 c -2.29754,-0.99937 -2.3301,-1.17953 -2.35621,-13.03759 -0.0231,-10.50351 -0.009,-10.72066 0.81531,-12.76836 1.61799,-4.01802 5.42512,-6.95604 10.19035,-7.86408 2.6304,-0.50123 8.30506,-0.49176 9.41602,0.0157 1.10481,0.50468 1.80024,1.6865 1.63832,2.7842 -0.19245,1.30467 -1.61848,2.06051 -4.59505,2.43555 -3.90344,0.49181 -5.29443,0.99165 -7.04307,2.53086 -2.4522,2.15851 -2.67976,3.30185 -2.81257,14.13109 -0.12208,9.95405 -0.31965,11.07887 -2.08756,11.88438 -1.11576,0.50838 -1.79499,0.48439 -3.16554,-0.11177 z"
     id="path4161" />
  <path
     style="fill:#f8ad1d;stroke:#f8ad1d;stroke-width:3.00037493;stroke-linejoin:bevel;stroke-miterlimit:4;stroke-dasharray:none;paint-order:fill markers stroke"
     d="m 740.573,239.08608 c -2.56107,-0.64817 -3.08917,-3.04 -3.0107,-13.63575 0.0723,-9.75941 -0.0995,-10.80425 -2.08743,-12.69719 -1.94914,-1.856 -4.38416,-2.4932 -8.72823,-2.28402 -3.00926,0.1449 -3.6892,0.30434 -5.76148,1.35097 -4.20678,2.12467 -4.62959,3.51943 -4.64022,15.30721 -0.004,4.54338 -0.16789,8.77128 -0.36765,9.49058 -0.45488,1.63786 -1.48231,2.36371 -3.3458,2.36371 -3.47847,0 -3.68781,-0.55563 -4.00659,-10.63399 -0.39125,-12.36919 0.31456,-16.40892 3.45315,-19.76433 3.8521,-4.1182 9.44875,-4.83753 25.27969,-3.24916 4.16564,0.41796 5.85623,0.41144 12.72592,-0.0491 9.04636,-0.60647 14.82516,-0.47919 17.208,0.379 2.05479,0.74004 4.30708,2.6616 5.22217,4.45533 1.48425,2.90938 1.8048,5.75047 1.77007,15.68892 -0.0354,10.14783 -0.25423,11.77797 -1.70869,12.73097 -1.36985,0.89756 -3.46147,0.72617 -4.5614,-0.37376 -1.18843,-1.18843 -1.39934,-2.99176 -1.43656,-12.28234 -0.0336,-8.39048 -0.3312,-9.96383 -2.32528,-12.29347 -2.16069,-2.52428 -3.50861,-3.02348 -8.1638,-3.02348 -3.44908,0 -4.25967,0.11318 -5.799,0.80977 -2.10437,0.95229 -3.33908,2.14739 -4.20635,4.0714 -0.55286,1.2265 -0.62865,2.46644 -0.62865,10.28534 0,9.46222 -0.22798,11.13288 -1.70757,12.51333 -0.81756,0.76277 -2.11844,1.10713 -3.1736,0.84007 z"
     id="path4200" />
  <path
     style="fill:#f8ad1d;stroke:#f8ad1d;stroke-width:3.00037493;stroke-linejoin:bevel;stroke-miterlimit:4;stroke-dasharray:none;paint-order:fill markers stroke"
     d="m 795.66058,239.30568 c -7.02442,-0.39422 -10.26522,-1.34993 -12.64396,-3.72868 -5.42395,-5.42393 -4.18416,-15.82645 2.25791,-18.945 3.3746,-1.63362 4.75125,-1.7776 19.62541,-2.05251 11.20554,-0.20711 14.50587,-0.37384 15.98706,-0.80765 1.02658,-0.30067 1.94036,-0.62052 2.03062,-0.71079 0.17858,-0.17858 -2.72619,-1.08329 -5.88418,-1.83268 -1.09289,-0.25933 -3.7601,-0.63559 -5.92715,-0.83611 -4.52359,-0.4186 -5.61461,-0.94101 -5.79546,-2.77513 -0.0793,-0.80417 0.11535,-1.37891 0.66523,-1.96424 0.76199,-0.8111 0.89846,-0.82717 6.91089,-0.81412 6.49545,0.0141 8.31363,0.28028 10.84039,1.58699 1.94622,1.00648 2.4081,1.38567 3.55689,2.92011 1.89388,2.52967 2.20646,4.55962 2.09378,13.59757 -0.0562,4.50637 -0.26399,8.82098 -0.46181,9.58802 -0.87254,3.38335 -3.31093,5.4148 -7.50422,6.25183 -2.7771,0.55434 -19.2337,0.88819 -25.7514,0.52239 z m 21.96529,-6.36234 c 3.65484,-1.19113 4.77087,-3.09742 4.98692,-8.51812 l 0.15633,-3.92237 h -13.24519 c -7.43501,0 -14.06902,0.15431 -15.12323,0.35177 -4.93617,0.92459 -7.51422,3.93965 -6.76833,7.91562 0.38599,2.05748 2.12087,3.43163 5.15129,4.08019 3.67323,0.78614 4.42507,0.82526 14.20822,0.73924 7.11135,-0.0625 9.23961,-0.1919 10.63399,-0.64633 z"
     id="path4239" />
  <path
     style="fill:#f8ad1d;stroke:#f8ad1d;stroke-width:3.00037493;stroke-linejoin:bevel;stroke-miterlimit:4;stroke-dasharray:none;paint-order:fill markers stroke"
     d="m 834.6081,225.64551 c 0.15907,-15.56212 0.15967,-15.56574 2.98238,-18.05039 2.84964,-2.50836 4.37609,-2.76836 17.66999,-3.00971 9.84403,-0.17872 12.00674,-0.12471 14.82159,0.37017 5.59773,0.98413 8.87745,2.9791 10.37016,6.3079 0.54484,1.215 0.64044,2.69688 0.74226,11.50563 0.14029,12.13766 -0.0124,14.09893 -1.18959,15.27608 -1.18544,1.18543 -2.75199,1.43239 -4.29593,0.67724 -1.84289,-0.90137 -2.06064,-2.19336 -2.07175,-12.29244 -0.0111,-10.117 -0.27306,-11.80629 -2.11662,-13.65122 -1.45623,-1.45731 -2.94566,-1.94775 -7.31026,-2.40717 -6.03738,-0.63547 -13.754,-0.23341 -17.7961,0.92725 -2.25182,0.64659 -3.95155,2.19644 -4.56764,4.16485 -0.28866,0.92227 -0.48538,5.09836 -0.59463,12.62241 l -0.16325,11.24413 h -3.31024 -3.31023 z"
     id="path4278" />
  <path
     style="fill:#f8ad1d;stroke:#f8ad1d;stroke-width:3.00037493;stroke-linejoin:bevel;stroke-miterlimit:4;stroke-dasharray:none;paint-order:fill markers stroke"
     d="m 897.46799,239.08111 c -3.83689,-0.53061 -7.69273,-2.1112 -9.30682,-3.81505 -4.85503,-5.12501 -4.96092,-21.40508 -0.17133,-26.34042 1.55324,-1.60051 4.83282,-3.24633 7.46269,-3.74507 2.90209,-0.55038 18.92012,-0.82965 23.78975,-0.41478 3.71989,0.31692 4.65805,0.52572 6.55229,1.45825 2.53695,1.24893 4.77574,3.75382 5.2185,5.83876 0.15098,0.71093 0.27451,5.05809 0.27451,9.66034 0,9.59586 -0.24082,10.81772 -2.67789,13.58636 -1.68659,1.91607 -3.91194,3.12056 -6.7267,3.6409 -1.93862,0.35837 -21.99246,0.46573 -24.415,0.13071 z m 17.89559,-5.6826 c 5.53488,-0.71868 7.15478,-1.62695 8.37749,-4.69723 1.02634,-2.57718 1.38724,-7.77274 0.76791,-11.05503 -1.19359,-6.32579 -3.80703,-7.42969 -16.92998,-7.15116 -8.17423,0.1735 -10.34524,0.52583 -12.55025,2.03672 -1.70811,1.17042 -2.25818,2.37953 -2.67104,5.87128 -0.4361,3.68837 0.0725,9.21651 1.02685,11.1602 1.06028,2.15954 3.43827,3.28524 8.09297,3.83107 3.29333,0.38619 10.92618,0.38847 13.88605,0.004 z"
     id="path4317" />
  <path
     style="fill:#f8ad1d;stroke:#f8ad1d;stroke-width:3.00037493;stroke-linejoin:bevel;stroke-miterlimit:4;stroke-dasharray:none;paint-order:fill markers stroke"
     d="m 965.00695,238.80496 c -2.25659,-0.98044 -2.26215,-1.03371 -2.19158,-21.00422 0.0688,-19.48307 0.16968,-20.59514 1.99798,-22.03328 1.07891,-0.84868 3.40329,-0.95622 5.12439,-0.2371 2.01178,0.84057 3.48871,2.45969 14.3153,15.69339 5.83401,7.13116 11.4179,13.72389 12.40853,14.65051 1.72721,1.61563 1.86963,1.67817 3.47043,1.52436 2.1267,-0.20434 3.3652,-1.09615 5.8648,-4.22286 4.7545,-5.94731 21.5292,-26.2469 22.0232,-26.65084 1.0921,-0.89321 3.1533,-1.82258 4.042,-1.82258 1.2935,0 2.7759,1.63216 3.5107,3.86501 0.5527,1.6796 0.6363,3.75275 0.7578,18.7976 0.1474,18.24193 0.019,20.07122 -1.4747,21.05011 -2.1501,1.40885 -4.2741,0.96018 -5.31,-1.12175 -0.5619,-1.12907 -0.6577,-2.61446 -0.8359,-12.95525 -0.1107,-6.42398 -0.2992,-11.91531 -0.4187,-12.20295 -0.1195,-0.28763 -0.3879,-1.18978 -0.5966,-2.00477 -0.2086,-0.81498 -0.4989,-1.48178 -0.645,-1.48178 -0.1462,0 -0.5911,0.6668 -0.9888,1.48178 -1.0779,2.20911 -5.7454,8.56591 -12.5758,17.12756 -8.8415,11.08218 -9.7542,11.88303 -13.51232,11.85646 -2.36759,-0.0167 -3.70116,-0.58701 -5.79362,-2.47737 -0.7665,-0.69256 -6.33881,-7.50861 -12.38281,-15.1468 -6.044,-7.63818 -11.13409,-13.8876 -11.31132,-13.8876 -0.19252,0 -0.32225,6.38703 -0.32225,15.86383 v 15.86382 l -2.00477,-0.0136 c -1.10263,-0.007 -2.52056,-0.23774 -3.15096,-0.51163 z"
     id="path4356" />
  <path
     style="fill:#f8ad1d;stroke:#f8ad1d;stroke-width:3.00037493;stroke-linejoin:bevel;stroke-miterlimit:4;stroke-dasharray:none;paint-order:fill markers stroke"
     d="m 1056.9197,239.32746 c -8.9397,-0.69754 -12.8803,-2.85242 -14.8118,-8.09963 -0.6675,-1.81359 -0.7696,-6.19461 -0.1903,-8.16492 0.5734,-1.94972 2.4202,-4.63172 3.8485,-5.58857 3.6,-2.41178 7.2174,-2.89864 21.5371,-2.89864 8.9931,0 11.8733,-0.11406 14.0081,-0.5548 1.4781,-0.30514 2.9142,-0.68158 3.1915,-0.83654 1.122,-0.62706 -7.1163,-2.51943 -13.0189,-2.99046 -2.2506,-0.1796 -2.902,-0.36937 -3.5736,-1.04097 -1.1386,-1.13856 -1.0507,-2.34141 0.2513,-3.43695 1.0575,-0.88985 1.1528,-0.90263 6.7255,-0.90263 9.5953,0 13.5955,1.77547 15.6161,6.93099 1.4773,3.76947 1.2389,19.13782 -0.3451,22.24257 -1.401,2.74622 -3.9556,4.36472 -7.8466,4.97133 -2.822,0.43993 -21.0826,0.70547 -25.3918,0.36922 z m 20.6164,-5.94662 c 2.9835,-0.48407 4.7464,-1.52056 5.8855,-3.46054 0.822,-1.39977 0.9375,-2.00638 1.0501,-5.51653 l 0.1267,-3.94382 -14.2461,0.12502 c -16.0041,0.14046 -17.0218,0.27652 -19.1791,2.56392 -1.7658,1.87229 -2.1326,5.01197 -0.8626,7.38486 0.7587,1.41766 3.9518,2.55177 8.4106,2.98724 2.9969,0.29268 16.7798,0.19002 18.8149,-0.14015 z"
     id="path4395" />
  <path
     style="fill:#f8ad1d;stroke:#f8ad1d;stroke-width:3.00037493;stroke-linejoin:bevel;stroke-miterlimit:4;stroke-dasharray:none;paint-order:fill markers stroke"
     d="m 1096.7247,226.06141 c 0,-9.00589 0.1315,-13.79142 0.4095,-14.89538 0.5387,-2.13914 2.9668,-4.61022 5.3555,-5.45011 2.1871,-0.76899 8.8329,-1.21165 18.5284,-1.23411 13.1037,-0.0304 18.3805,1.39504 20.4094,5.51313 0.7831,1.58955 0.7986,1.85413 0.9056,15.47625 l 0.1088,13.85905 -1.6778,-6.9e-4 c -2.0072,-5e-4 -3.9452,-0.89244 -4.5442,-2.09124 -0.3109,-0.62211 -0.439,-3.26714 -0.4476,-9.23937 -0.018,-12.88725 -0.4628,-14.66466 -4.113,-16.45716 l -1.9867,-0.97561 h -9.7623 c -10.3052,0 -11.5366,0.14805 -13.8065,1.65997 -2.4176,1.61027 -2.5574,2.32356 -2.7536,14.04586 -0.1537,9.17926 -0.2505,10.59053 -0.7823,11.40118 -0.6609,1.00757 -2.4269,1.65198 -4.5358,1.65512 l -1.3074,0.002 z"
     id="path4434" />
  <path
     style="fill:#f8ad1d;stroke:#f8ad1d;stroke-width:3.00037493;stroke-linejoin:bevel;stroke-miterlimit:4;stroke-dasharray:none;paint-order:fill markers stroke"
     d="m 1158.2624,238.81414 c -4.0326,-0.74877 -6.3956,-1.82446 -8.3909,-3.81971 -2.8042,-2.80421 -3.1166,-4.08623 -3.1063,-12.7483 0.011,-8.95676 0.3613,-10.44472 3.0875,-13.09928 3.7832,-3.68372 8.2907,-4.70943 20.7869,-4.73021 11.17,-0.0186 17.2033,1.19477 20.0384,4.02994 2.3394,2.33942 2.4499,2.94595 2.4499,13.4509 0,10.43435 -0.1069,11.04022 -2.3839,13.51044 -3.1871,3.45758 -5.4876,3.91807 -19.4071,3.88481 -7.1364,-0.017 -11.4367,-0.17446 -13.0745,-0.47859 z m 19.238,-5.44039 c 3.3145,-0.4594 5.7657,-1.46217 6.9161,-2.82948 2.3415,-2.78271 3.1892,-10.79446 1.5866,-14.99529 -1.5609,-4.09154 -3.6097,-4.85209 -13.6584,-5.07013 -8.2172,-0.1783 -11.4305,0.17729 -14.2567,1.57771 -1.585,0.78538 -2.0688,1.25255 -2.7892,2.69347 -0.8136,1.62707 -0.8717,2.09193 -0.8717,6.97311 0,3.23927 0.1691,5.78686 0.4443,6.69331 0.8753,2.88263 3.4186,4.39416 8.3626,4.96996 3.5826,0.41725 11.2134,0.41048 14.2664,-0.0127 z"
     id="path4473" />
  <path
     style="fill:#f8ad1d;stroke:#f8ad1d;stroke-width:3.00037493;stroke-linejoin:bevel;stroke-miterlimit:4;stroke-dasharray:none;paint-order:fill markers stroke"
     d="m 1200.0402,238.82151 c -2.2196,-0.96547 -2.1399,-0.21029 -2.2474,-21.28223 -0.087,-17.03528 -0.035,-19.31888 0.4655,-20.45546 0.6664,-1.51353 1.4787,-2.01676 3.3754,-2.09107 1.606,-0.0629 2.3901,0.46385 3.0539,2.05182 0.7014,1.67807 0.6857,38.3028 -0.017,39.98505 -0.8863,2.12112 -2.467,2.73285 -4.6302,1.79189 z"
     id="path4512" />
  <path
     style="fill:#f8ad1d;stroke:#f8ad1d;stroke-width:3.00037493;stroke-linejoin:bevel;stroke-miterlimit:4;stroke-dasharray:none;paint-order:fill markers stroke"
     d="m 1220.0139,238.77104 c -3.4941,-0.63105 -6.8319,-2.21147 -8.2272,-3.89554 -1.8049,-2.17807 -2.0907,-3.87587 -2.1861,-12.98468 -0.084,-7.9735 -0.064,-8.2347 0.746,-10.02746 1.0914,-2.41532 3.5797,-4.62615 6.5408,-5.81156 1.9203,-0.76876 3.2545,-0.99676 7.5896,-1.29699 6.5741,-0.45528 20.9244,-0.11483 23.4706,0.55683 4.5166,1.19149 6.7368,3.90098 7.9597,9.71424 0.6669,3.17017 0.6442,10.04564 -0.044,13.37762 -1.3408,6.49116 -3.8307,9.21879 -9.5152,10.42365 -3.2489,0.68862 -22.4372,0.64773 -26.3342,-0.0561 z m 19.2822,-5.36199 c 5.2977,-0.60905 7.3418,-1.7167 8.563,-4.64009 1.2758,-3.0544 1.2121,-11.00811 -0.1119,-13.952 -1.6098,-3.57927 -4.4556,-4.42683 -14.8494,-4.42249 -7.3571,0.003 -10.1148,0.36317 -12.7491,1.66479 -1.5864,0.78384 -2.0682,1.24859 -2.7892,2.69077 -0.8209,1.64159 -0.8717,2.06869 -0.8717,7.32177 0,5.13127 0.065,5.7102 0.8092,7.22145 1.1961,2.4285 3.4038,3.55789 8.0019,4.09357 3.4269,0.39922 10.6187,0.41064 13.9972,0.0222 z"
     id="path4551" />
  <path
     style="fill:#3ee23e;stroke:#3EE23E;stroke-width:3.00037493;stroke-linejoin:bevel;stroke-miterlimit:4;stroke-dasharray:none;paint-order:fill markers stroke"
     d="m 1108.2303,173.45704 c -5.1412,-1.08521 -8.6252,-2.89433 -12.5269,-6.50483 -1.2243,-1.13295 -6.1603,-6.76677 -10.9689,-12.51959 -4.8085,-5.75282 -21.7678,-26.00228 -37.6872,-44.9988 -15.9195,-18.996515 -33.3375,-39.827269 -38.7069,-46.290547 l -9.76229,-11.751428 -0.17753,56.575895 c -0.12591,40.09691 -0.29003,56.88345 -0.56367,57.63179 -1.20365,3.29165 -2.4367,4.8213 -4.8373,6.00074 -5.89685,2.8972 -18.80526,2.45088 -23.06406,-0.79747 -0.72901,-0.55604 -1.63455,-1.77111 -2.16842,-2.90964 l -0.91669,-1.95491 V 90.105673 14.273095 l 0.82319,-2.041285 c 1.13364,-2.8111112 4.42211,-6.1367569 7.48579,-7.570426 6.15272,-2.8792099 14.25604,-2.4954019 20.97238,0.9933241 3.76167,1.9539742 8.933,7.3977749 26.403,27.7944439 24.0627,28.093781 72.7836,84.558078 77.3163,89.604468 7.8304,8.71787 12.7179,15.00008 13.44,17.27547 0.1189,0.37416 0.3489,0.6803 0.5113,0.6803 0.1624,0 7.4006,-8.43311 16.0849,-18.74025 86.7917,-103.010052 95.5179,-113.2858259 97.2817,-114.5565347 3.9357,-2.8353344 8.9236,-4.6573121 13.7537,-5.0238979 9.0791,-0.6890561 17.0216,4.9727015 18.8091,13.4079256 0.4252,2.006411 0.5011,13.236405 0.5062,74.894591 0.01,79.331356 0.117,74.968706 -1.9731,77.995086 -0.4957,0.71763 -1.5918,1.76226 -2.4359,2.32139 -2.4697,1.63587 -4.4157,1.95268 -11.9717,1.94915 -5.6523,-0.003 -7.1222,-0.11082 -8.7164,-0.64142 -3.3239,-1.10632 -4.7201,-2.58778 -5.9643,-6.32852 -0.3751,-1.12797 -0.4992,-12.14223 -0.6492,-57.60489 l -0.1853,-56.21026 -14.8608,17.68383 c -19.8718,23.646635 -63.0267,75.80303 -67.5766,81.67202 -9.1498,11.80255 -14.1239,16.65797 -20.1548,19.6739 -5.2283,2.61448 -11.2262,3.28397 -17.5196,1.95553 z"
     id="path4801" />
  <path
     style="fill:#3ee23e;stroke:#3EE23E;stroke-width:3.00037493;stroke-linejoin:bevel;stroke-miterlimit:4;stroke-dasharray:none;paint-order:fill markers stroke"
     d="m 732.58346,172.86064 c -1.32607,-0.28428 -2.97347,-0.80625 -3.66088,-1.15995 -2.62717,-1.35174 -4.32523,-4.08686 -4.91244,-7.91267 -0.24888,-1.62149 -0.33482,-26.32133 -0.26913,-77.343224 l 0.0965,-74.960949 0.80885,-2.3869687 c 0.94399,-2.7857882 2.91893,-5.0140667 5.11829,-5.7748017 1.87215,-0.647561 13.87929,-0.9282761 17.26125,-0.4035505 4.16667,0.6464808 6.10344,2.0144118 7.40513,5.2301937 l 0.78548,1.9405022 0.10211,32.860787 0.10213,32.860788 h 77.5609 77.5609 V 44.147179 c 0,-21.108058 0.1252,-32.353294 0.37556,-33.732426 0.78903,-4.3465132 2.84962,-6.2180871 8.12255,-7.377482 3.52091,-0.7741568 10.44305,-0.7483036 13.99017,0.052306 4.29142,0.9685511 5.86861,1.9578247 7.26854,4.5590998 l 0.75055,1.3946243 V 87.83945 166.63561 l -0.82769,1.66634 c -1.05474,2.12348 -2.84264,3.60158 -5.27379,4.35994 -2.86028,0.89222 -14.98028,0.86098 -17.95576,-0.0463 -4.00808,-1.22214 -5.44551,-3.17953 -6.086,-8.28756 -0.22781,-1.81685 -0.36413,-14.1649 -0.36413,-32.98466 v -30.08069 h -77.56554 -77.56554 l -0.0975,32.53709 -0.0975,32.53709 -1.05343,2.05951 c -0.90038,1.7603 -1.33095,2.20058 -2.96357,3.03057 -1.05058,0.53408 -3.00841,1.20152 -4.35074,1.48319 -3.17719,0.66672 -11.05194,0.6394 -14.26533,-0.0495 z"
     id="path4877" />
  <path
     style="fill:#3ee23e;stroke:#3EE23E;stroke-width:3.00037493;stroke-linejoin:bevel;stroke-miterlimit:4;stroke-dasharray:none;paint-order:fill markers stroke"
     d="m 563.45598,173.05106 c -15.75168,-0.98033 -30.03119,-4.415 -39.87785,-9.59186 -4.94,-2.59718 -7.73694,-4.64399 -11.58716,-8.47946 -4.01078,-3.99542 -6.14431,-7.18071 -7.95622,-11.87842 -2.37625,-6.16083 -2.2403,-3.19612 -2.38216,-51.949676 -0.0883,-30.365845 -0.009,-45.272058 0.25391,-47.851611 0.92922,-9.107898 4.26082,-16.067698 10.80735,-22.576812 9.13135,-9.079154 22.18147,-14.6126659 40.80544,-17.3023121 3.34161,-0.4825903 8.12191,-0.6044855 28.69566,-0.7317514 26.11362,-0.1615402 28.11111,-0.070209 30.74288,1.4060757 3.38523,1.8988873 4.56666,5.144373 4.27609,11.7468078 -0.28993,6.587724 -1.8155,9.340018 -5.92005,10.680455 -1.6164,0.527876 -4.37265,0.628619 -23.10334,0.844486 -16.80465,0.193664 -22.10945,0.364975 -25.27753,0.816312 -13.46871,1.91879 -21.21427,4.663443 -25.64327,9.086716 -4.26051,4.255011 -4.69869,6.461957 -4.93512,24.856056 l -0.1759,13.684731 77.52499,0.006 c 65.31968,0.005 77.8897,0.08331 79.84146,0.497042 6.47704,1.372842 8.95797,4.905183 8.57554,12.209796 -0.344,6.570282 -2.53438,9.874595 -7.83966,11.826465 l -2.00638,0.73818 -78.04792,0.0924 -78.04794,0.0924 0.16939,13.67948 c 0.22134,17.87657 0.55193,19.41521 5.1697,24.05998 3.69659,3.7182 9.25917,6.11197 18.22869,7.84446 2.4782,0.47867 10.8541,0.57347 67.67815,0.766 49.67055,0.1683 65.20535,0.32002 66.36834,0.64821 2.03064,0.57303 3.50469,1.34217 4.70136,2.45309 3.64902,3.38756 4.0328,11.78115 0.80721,17.65447 -1.47351,2.68304 -3.52188,4.13158 -6.60053,4.66771 -2.63342,0.45859 -117.88244,0.46274 -125.24513,0.005 z"
     id="path4916" />
  <path
     style="fill:#3ee23e;stroke:#3EE23E;stroke-width:3.00037493;stroke-linejoin:bevel;stroke-miterlimit:4;stroke-dasharray:none;paint-order:fill markers stroke"
     d="m 337.0042,173.06831 c -13.98407,-0.74346 -22.39578,-2.84654 -33.37777,-8.34505 -14.91185,-7.46613 -20.97988,-13.59194 -23.86743,-24.0947 l -0.80594,-2.93141 V 88.013742 38.330322 l 0.78791,-2.96357 c 4.098,-15.413557 19.46625,-26.4143317 44.06641,-31.5432228 l 4.30611,-0.8977822 70.77708,0.095212 70.77707,0.095212 1.44882,0.7747569 c 3.17907,1.6999724 4.1403,4.2542017 4.10393,10.9052131 -0.0363,6.634009 -1.17708,9.374641 -4.71869,11.336066 l -1.88003,1.041201 -64.6756,0.198594 c -67.60273,0.207576 -65.87102,0.166301 -73.887,1.761191 -10.03052,1.995729 -16.49576,5.613321 -18.81091,10.525555 -0.55944,1.187008 -1.19054,2.989614 -1.40245,4.005791 -0.61928,2.969621 -0.50963,82.041981 0.11865,85.565451 0.70029,3.92731 1.8874,6.22447 4.6336,8.96635 4.00724,4.00095 10.50134,6.7354 20.13998,8.48024 4.16462,0.75391 4.47502,0.75834 67.46485,0.96347 48.1514,0.1568 63.64172,0.30762 64.78982,0.63078 4.0686,1.14523 6.43308,3.22958 7.51292,6.62284 1.80228,5.66351 0.44318,13.51698 -2.76234,15.96196 -0.65041,0.49609 -2.16796,1.24003 -3.37233,1.65321 l -2.18977,0.75125 -62.06069,0.0385 c -34.13339,0.0212 -64.33567,-0.0824 -67.1162,-0.23025 z"
     id="path4955" />
  <path
     style="fill:#f8ad1d;stroke:#f8ad1d;stroke-width:3.00037493;stroke-linejoin:bevel;stroke-miterlimit:4;stroke-dasharray:none;paint-order:fill markers stroke"
     d="M 74.87238,61.822358 C 70.155757,61.0381 62.920022,57.762631 58.247081,54.296418 52.058718,49.706124 47.718083,43.372302 45.035428,35.018098 c -1.347729,-4.197044 -2.308333,-8.23969 -2.025179,-8.522845 0.396779,-0.39678 5.233713,-0.175072 7.238678,0.331791 4.689307,1.185468 10.446738,4.188764 15.240501,7.950034 3.613298,2.835054 8.408403,7.76476 10.33044,10.620427 3.608774,5.36173 5.870562,12.998175 4.569749,15.428769 -0.194016,0.362525 -0.939267,0.822022 -1.656114,1.021097 -1.447942,0.402131 -1.285992,0.403181 -3.861123,-0.025 z"
     id="path6489" />
  <path
     style="opacity:1;fill:#f8ad1d;stroke:#f8ad1d;stroke-width:3.00037493;stroke-linejoin:bevel;stroke-miterlimit:4;stroke-dasharray:none;stroke-opacity:1;paint-order:fill markers stroke"
     d="M 94.925175,54.162931 C 90.715208,51.374372 85.874083,42.513085 84.180185,34.495113 83.508382,31.315175 83.614083,23.231225 84.373934,19.677251 c 0.495761,-2.31877 1.476535,-5.332067 2.512255,-7.993869 1.340418,-3.444871 2.772857,-6.3010079 3.365081,-6.3010079 0.574022,0 4.090352,3.9907087 5.941803,6.7433829 2.259693,3.35964 4.034987,6.997905 5.355217,11.002455 1.27594,3.870234 2.12684,8.08261 2.57915,12.716269 0.55679,5.703903 -0.2718,11.218803 -1.91371,14.900223 -1.23309,2.764755 -2.9249,4.495412 -4.833128,4.495412 -0.456047,0 -1.560996,-0.484731 -2.455427,-1.077185 z"
     id="path6565"
     sodipodi:nodetypes="sssssssssss" />
  <path
     style="fill:#f8ad1d;stroke:#f8ad1d;stroke-width:3.00037493;stroke-linejoin:bevel;stroke-miterlimit:4;stroke-dasharray:none;paint-order:fill markers stroke;fill-rule:evenodd"
     d="m 127.7149,50.969092 c -4.22038,-6.385828 -6.19879,-13.143363 -6.20112,-21.180828 -0.002,-6.078949 0.99923,-10.842345 3.46623,-16.494601 1.53215,-3.5103889 8.04515,-12.61813721 9.0233,-12.61813721 1.14447,0 4.38162,7.74721831 5.90021,14.12055521 1.18921,4.990993 1.51066,14.052486 0.65909,18.579712 -1.27742,6.791129 -4.01513,12.333101 -8.24854,16.697607 -1.45434,1.499367 -2.81192,2.72613 -3.01684,2.72613 -0.20492,0 -0.91696,-0.823702 -1.58233,-1.830438 z"
     id="path6604" />
  <path
     style="fill:#f8ad1d;stroke:#f8ad1d;stroke-width:3.00037493;stroke-linejoin:bevel;stroke-miterlimit:4;stroke-dasharray:none;paint-order:fill markers stroke"
     d="m 162.8636,53.018388 c -1.19022,-1.190209 -1.62785,-2.993754 -1.82975,-7.540623 -0.46564,-10.48657 4.24703,-21.827228 12.46017,-29.984377 3.43895,-3.415507 5.78707,-5.043401 9.3514,-6.4830905 3.29982,-1.3328666 3.62275,-1.2877609 3.98026,0.5559495 0.51765,2.669384 0.39431,9.700152 -0.23241,13.248906 -2.35175,13.316744 -10.48459,26.104213 -19.20999,30.204355 -2.2285,1.047181 -3.47169,1.046881 -4.51968,-0.001 z"
     id="path6643" />
  <path
     style="fill:#f8ad1d;stroke:#f8ad1d;stroke-width:3.00037493;stroke-linejoin:bevel;stroke-miterlimit:4;stroke-dasharray:none;paint-order:fill markers stroke"
     d="m 191.44051,77.051732 c -0.19176,-0.07711 -1.07921,-0.23832 -1.97212,-0.358345 l -1.62346,-0.218217 0.35438,-1.290992 c 1.13545,-4.136357 4.94152,-10.275204 8.77713,-14.156719 4.41484,-4.467679 10.54671,-8.214757 16.53454,-10.103963 2.78748,-0.87948 3.20369,-0.913214 11.26763,-0.913214 h 8.37323 l -0.24228,0.784478 c -2.88215,9.332276 -11.1212,18.046705 -21.80481,23.062932 -5.37105,2.521846 -7.69226,3.056642 -13.91142,3.205131 -2.97229,0.07101 -5.56106,0.06601 -5.75282,-0.0111 z"
     id="path6682" />
  <path
     style="fill:#f8ad1d;stroke:#f8ad1d;stroke-width:3.00037493;stroke-linejoin:bevel;stroke-miterlimit:4;stroke-dasharray:none;paint-order:fill markers stroke"
     d="m 217.78272,109.09765 c -5.40396,-0.9779 -10.11147,-3.04327 -11.62777,-5.10158 -0.53079,-0.72051 -0.62887,-1.21734 -0.43955,-2.22654 0.68484,-3.650445 10.00707,-9.498776 18.3244,-11.495856 6.11541,-1.468373 13.97233,-0.938247 21.20812,1.430979 4.56915,1.496087 10.51954,4.279415 10.51954,4.920585 0,0.903653 -4.72941,5.144732 -7.48059,6.708182 -8.6566,4.91941 -21.62769,7.3705 -30.50415,5.76423 z"
     id="path6721" />
  <path
     style="fill:#f8ad1d;stroke:#f8ad1d;stroke-width:3.00037493;stroke-linejoin:bevel;stroke-miterlimit:4;stroke-dasharray:none;paint-order:fill markers stroke"
     d="m 231.78289,147.28439 c -7.09393,-0.99857 -12.81026,-3.4816 -16.69549,-7.25208 -1.54857,-1.50282 -3.94785,-4.85288 -3.94785,-5.51228 0,-0.63307 8.23779,-4.56518 11.67996,-5.57513 2.50719,-0.73562 4.11899,-0.95472 8.01908,-1.09005 7.54573,-0.26183 13.08584,0.92819 19.87337,4.26882 5.54956,2.73135 13.00775,9.09241 11.66727,9.95098 -2.02995,1.30017 -10.03902,3.79828 -14.9795,4.67225 -3.87242,0.68503 -12.46725,0.98085 -15.61684,0.53749 z"
     id="path6760" />
  <path
     style="fill:#f8ad1d;stroke:#f8ad1d;stroke-width:3.00037493;stroke-linejoin:bevel;stroke-miterlimit:4;stroke-dasharray:none;paint-order:fill markers stroke"
     d="m 237.23522,188.0422 c -15.19827,-1.17044 -27.86405,-7.72379 -34.81235,-18.01211 -0.94073,-1.39293 -1.97377,-3.36806 -2.29565,-4.38916 -0.50973,-1.61706 -0.52266,-1.98706 -0.10027,-2.86836 0.87721,-1.83023 1.90692,-2.06949 8.67201,-2.01501 7.29069,0.0587 9.82237,0.60266 15.16652,3.25858 9.1001,4.52255 17.0435,12.99862 19.44556,20.74951 1.166,3.76243 1.18438,3.6674 -0.69869,3.61175 -0.91451,-0.027 -3.33422,-0.17787 -5.37713,-0.3352 z"
     id="path6799" />
  <path
     style="fill:#f8ad1d;stroke:#f8ad1d;stroke-width:3.00037493;stroke-linejoin:bevel;stroke-miterlimit:4;stroke-dasharray:none;paint-order:fill markers stroke"
     d="m 210.61656,219.13306 c -6.79333,-2.97577 -11.78672,-6.19586 -16.4556,-10.61175 -3.5369,-3.34523 -5.88874,-6.41428 -7.93429,-10.35391 -2.42025,-4.66123 -3.37329,-8.34624 -3.58888,-13.87672 l -0.18162,-4.65884 1.87726,0.2542 c 11.40332,1.54417 21.13805,8.83795 26.59473,19.92621 2.76881,5.62636 3.95482,10.2272 4.2776,16.5939 0.18739,3.69627 0.14286,4.44211 -0.26431,4.42612 -0.26932,-0.0106 -2.21552,-0.77521 -4.32489,-1.69921 z"
     id="path6838" />
  <path
     style="fill:#f8ad1d;stroke:#f8ad1d;stroke-width:3.00037493;stroke-linejoin:bevel;stroke-miterlimit:4;stroke-dasharray:none;paint-order:fill markers stroke"
     d="m 175.0537,234.37497 c -9.31954,-4.00238 -17.34362,-14.54602 -20.94942,-27.52753 -0.72703,-2.61745 -0.94056,-4.31501 -1.09098,-8.67356 -0.17273,-5.00524 -0.1318,-5.5274 0.53581,-6.83603 1.37749,-2.7001 3.63328,-2.74432 7.64735,-0.1499 2.72387,1.76053 6.96622,5.79336 9.17222,8.71925 3.04432,4.03774 5.86968,10.19068 6.94735,15.12964 0.68143,3.12293 0.97065,9.11223 0.66878,13.84877 -0.31453,4.93514 -0.51354,6.26811 -0.93298,6.2494 -0.14017,-0.006 -1.03933,-0.34827 -1.99813,-0.76004 z"
     id="path6877" />
  <path
     style="fill:#f8ad1d;stroke:#f8ad1d;stroke-width:3.00037493;stroke-linejoin:bevel;stroke-miterlimit:4;stroke-dasharray:none;paint-order:fill markers stroke"
     d="m 127.01968,239.67989 c -1.05811,-0.83231 -3.72107,-6.11645 -4.92028,-9.76334 -2.80909,-8.54269 -3.31484,-19.62776 -1.26544,-27.73567 1.4177,-5.60875 5.13667,-11.31375 7.37519,-11.31375 2.81334,0 4.70911,2.19976 7.38674,8.57122 3.1785,7.5633 3.72421,17.55087 1.44934,26.5255 -1.63849,6.46403 -6.28773,14.41236 -8.43025,14.41236 -0.39054,0 -1.10842,-0.31334 -1.5953,-0.69632 z"
     id="path6916" />
  <path
     style="fill:#f8ad1d;stroke:#f8ad1d;stroke-width:3.00037493;stroke-linejoin:bevel;stroke-miterlimit:4;stroke-dasharray:none;paint-order:fill markers stroke"
     d="m 83.847996,232.60583 c -4.373187,-14.63529 -3.480246,-30.44657 2.217045,-39.25711 2.874075,-4.4446 6.5101,-7.71143 8.582919,-7.71143 2.020453,0 4.329391,3.86401 5.60398,9.37827 2.04899,8.86456 0.79744,18.32844 -3.625343,27.41381 -3.058602,6.28304 -7.183588,10.84992 -11.168571,12.36501 -0.829454,0.31536 -0.883985,0.24124 -1.61003,-2.18855 z"
     id="path6955" />
  <path
     style="fill:#f8ad1d;stroke:#f8ad1d;stroke-width:3.00037493;stroke-linejoin:bevel;stroke-miterlimit:4;stroke-dasharray:none;paint-order:fill markers stroke"
     d="m 37.857744,209.7086 c 0,-0.36618 0.236077,-1.78807 0.524615,-3.15973 2.544317,-12.09526 11.063905,-24.30326 21.039473,-30.14816 3.846219,-2.25357 7.409888,-3.36026 11.519665,-3.5774 l 3.622361,-0.19138 -0.243223,3.62627 c -0.133771,1.99445 -0.486746,4.64609 -0.784391,5.89254 -0.673522,2.8205 -2.695032,7.22645 -4.65808,10.15244 -1.974782,2.94347 -7.168523,8.0441 -10.550493,10.36133 -4.859096,3.32932 -11.287435,6.08462 -16.286061,6.98049 -4.377461,0.78456 -4.183866,0.78161 -4.183866,0.0636 z"
     id="path6994" />
  <path
     style="fill:#f8ad1d;stroke:#f8ad1d;stroke-width:3.00037493;stroke-linejoin:bevel;stroke-miterlimit:4;stroke-dasharray:none;paint-order:fill markers stroke"
     d="m 15.195134,179.69715 c -1.246444,-0.17662 -2.943224,-0.52052 -3.770624,-0.76421 l -1.5043616,-0.44309 1.9405116,-3.08888 c 2.70156,-4.30029 4.841842,-6.89946 8.820129,-10.71118 9.346757,-8.95542 19.647533,-12.94022 30.576865,-11.82849 4.403547,0.44793 4.733585,0.55435 4.718614,1.52146 -0.0219,1.41493 -2.28109,6.70667 -3.908116,9.15406 -1.87151,2.81516 -6.479913,7.36911 -9.426012,9.31464 -8.03476,5.30594 -19.004611,8.04198 -27.447006,6.84569 z"
     id="path7033" />
  <path
     style="fill:#f8ad1d;stroke:#f8ad1d;stroke-width:3.00037493;stroke-linejoin:bevel;stroke-miterlimit:4;stroke-dasharray:none;paint-order:fill markers stroke"
     d="M 16.938411,148.09385 C 11.871288,147.26641 6.5982022,145.7915 2.5662392,144.07389 l -1.64624473,-0.7013 1.02036353,-1.48304 c 4.6949698,-6.82391 16.680973,-12.81239 29.380094,-14.67897 3.430578,-0.50424 4.073263,-0.50321 7.587543,0.0122 6.25865,0.91784 10.77741,2.71744 11.848424,4.71865 0.917195,1.7138 -0.953621,4.69543 -5.085475,8.10504 -7.081856,5.84398 -14.098097,8.32002 -23.328372,8.23266 -2.492888,-0.0236 -4.92476,-0.10695 -5.404161,-0.18524 z"
     id="path7072" />
  <path
     style="fill:#f8ad1d;stroke:#f8ad1d;stroke-width:3.00037493;stroke-linejoin:bevel;stroke-miterlimit:4;stroke-dasharray:none;paint-order:fill markers stroke"
     d="m 34.371188,110.16902 c -0.287641,-0.0699 -1.699695,-0.31843 -3.1379,-0.55223 C 24.264076,108.48388 15.047795,103.77612 9.9203614,98.729961 7.8325594,96.675244 5.7475188,93.130101 6.3088,92.589314 c 0.5954764,-0.573742 12.225511,-2.820823 16.757455,-3.237765 8.37846,-0.770826 16.104267,0.965331 24.135719,5.423818 3.765132,2.090141 6.081452,4.313089 7.547217,7.242973 0.681252,1.36174 1.238641,2.74761 1.238641,3.07969 0,1.02817 -6.00562,3.38688 -11.505633,4.51886 -1.925698,0.39634 -9.132992,0.7899 -10.111011,0.55213 z"
     id="path7111" />
  <path
     style="fill:#f8ad1d;stroke:#f8ad1d;stroke-width:3.00037493;stroke-linejoin:bevel;stroke-miterlimit:4;stroke-dasharray:none;paint-order:fill markers stroke"
     d="M 53.629126,81.564506 C 38.638898,78.847236 25.735229,67.99799 22.514063,55.403356 c -1.037571,-4.056867 -1.252729,-3.791194 2.852491,-3.52216 17.105998,1.12102 31.335596,9.623222 37.223172,22.240879 1.350183,2.893582 2.664896,6.833024 2.3766,7.121321 -0.258849,0.258852 -5.229571,0.822712 -7.060888,0.80097 -0.958803,-0.0114 -2.883144,-0.227329 -4.276312,-0.47986 z"
     id="path7150" />
  <path
     style="fill:#f8ad1d;stroke:#f8ad1d;stroke-width:3.00037493;stroke-linejoin:bevel;stroke-miterlimit:4;stroke-dasharray:none;paint-order:fill markers stroke"
     d="m 118.23527,180.72689 c -12.34295,-1.6911 -24.351606,-6.7356 -33.134698,-13.91896 -3.605606,-2.94889 -9.090407,-8.81009 -11.756714,-12.56353 -4.628931,-6.51628 -8.434343,-15.14648 -9.919868,-22.49701 -0.918714,-4.5459 -0.928503,-22.60504 -0.01468,-27.09228 2.909468,-14.286764 11.65229,-27.353347 22.567407,-33.728114 5.381863,-3.143183 14.852473,-6.222898 23.006753,-7.481485 8.1196,-1.253237 25.54949,-1.000135 35.98467,0.522535 14.86576,2.169171 26.27168,7.51931 32.44845,15.220503 4.80192,5.987038 13.21047,21.507671 16.58679,30.616171 6.01305,16.22177 6.40431,29.83811 1.23406,42.94773 -3.3761,8.56043 -11.22989,18.99764 -16.5653,22.01428 -1.07802,0.60952 -2.05862,1.10821 -2.17909,1.10821 -0.12048,0 -0.21566,-1.29438 -0.21151,-2.87641 0.008,-3.00531 0.54441,-5.75011 2.60679,-13.33607 2.81224,-10.34415 3.04002,-24.83527 0.54404,-34.61106 -4.8654,-19.05588 -18.83019,-32.855976 -38.54691,-38.09231 -6.88013,-1.827218 -10.12273,-2.224738 -18.13009,-2.222608 -6.03233,0.002 -8.02938,0.134877 -11.33978,0.756805 -11.629217,2.184783 -19.697065,7.112319 -23.477364,14.339092 -2.947987,5.635641 -3.19247,11.405171 -0.884823,20.880871 1.707472,7.01125 4.960879,15.61277 8.072358,21.34211 6.512539,11.99188 15.584229,17.90109 26.583639,17.31631 4.24989,-0.22594 6.7648,-0.86494 10.60903,-2.69558 15.17074,-7.22439 18.67833,-21.6001 7.84986,-32.17233 -4.66057,-4.55029 -11.17355,-6.24403 -15.92619,-4.14172 -2.08902,0.92408 -4.41027,3.0617 -5.19445,4.78352 -2.48213,5.45003 2.70205,12.40664 8.58789,11.52401 1.9472,-0.292 5.13163,-1.86509 7.67104,-3.78944 2.5437,-1.9276 2.64753,-1.82875 2.88696,2.74866 0.13629,2.60568 0.0301,3.66678 -0.56228,5.61697 -1.78868,5.88883 -6.86547,9.83517 -14.09932,10.95984 -6.6508,1.03403 -13.8296,-1.21546 -18.77891,-5.88438 -1.35884,-1.28187 -3.16182,-3.29929 -4.00661,-4.48316 -2.146675,-3.0083 -4.533123,-8.21176 -5.612498,-12.2376 -0.814502,-3.03792 -0.914775,-4.05402 -0.921365,-9.33608 -0.006,-5.03922 0.106743,-6.33862 0.754474,-8.6739 1.99987,-7.21019 6.169599,-12.552991 11.445059,-14.664894 5.07804,-2.032885 13.42694,-3.090587 24.71102,-3.130592 8.59142,-0.0305 11.09694,0.250022 16.03815,1.795425 8.54906,2.673774 15.245,8.700621 19.85968,17.875181 3.83547,7.62543 5.41687,15.37485 5.41755,26.54804 7e-4,9.14592 -1.45397,17.24367 -4.03595,22.46921 -1.49726,3.0302 -4.805,6.77244 -8.00363,9.05492 -4.91405,3.5066 -13.24407,6.96304 -20.55942,8.53091 -2.83034,0.60661 -4.96304,0.77018 -11.3313,0.86908 -4.31462,0.067 -8.93743,-0.0279 -10.27292,-0.21087 z"
     id="path987" />
</svg>
