<?xml version="1.0" standalone="no"?><svg xmlns:xlink="http://www.w3.org/1999/xlink" xmlns="http://www.w3.org/2000/svg" viewBox="0 0 1000 500" preserveAspectRatio="xMaxYMax slice"><g transform="scale(0.7440476190476191)"><rect x="0" y="0" width="1344" height="672" fill="#ffffff"/><rect x="0" y="0" width="84" height="84" fill="#ffffff"/><circle cx="21" cy="21" r="21" fill="#fdebc7"/><g transform="translate(168,0) scale(4.2) rotate(0)"><path fill-rule="evenodd" clip-rule="evenodd" d="M10 20C15.5228 20 20 15.5228 20 10C20 4.47715 15.5228 0 10 0C4.47715 0 0 4.47715 0 10C0 15.5228 4.47715 20 10 20ZM10 17C13.866 17 17 13.866 17 10C17 6.13401 13.866 3 10 3C6.13401 3 3 6.13401 3 10C3 13.866 6.13401 17 10 17Z" fill="#fcdea5"/></g><g transform="translate(336,0) scale(4.2) rotate(0)"><path fill-rule="evenodd" clip-rule="evenodd" d="M10 20C15.5228 20 20 15.5228 20 10C20 4.47715 15.5228 0 10 0C4.47715 0 0 4.47715 0 10C0 15.5228 4.47715 20 10 20ZM10 17C13.866 17 17 13.866 17 10C17 6.13401 13.866 3 10 3C6.13401 3 3 6.13401 3 10C3 13.866 6.13401 17 10 17Z" fill="#f9b93f"/></g><rect x="840" y="0" width="84" height="84" fill="#ffffff"/><g transform="translate(882,0) scale(2.1) rotate(0)"><path fill-rule="evenodd" clip-rule="evenodd" d="M10 20C15.5228 20 20 15.5228 20 10C20 4.47715 15.5228 0 10 0C4.47715 0 0 4.47715 0 10C0 15.5228 4.47715 20 10 20ZM10 17C13.866 17 17 13.866 17 10C17 6.13401 13.866 3 10 3C6.13401 3 3 6.13401 3 10C3 13.866 6.13401 17 10 17Z" fill="#fef2da"/></g><circle cx="861" cy="63" r="21" fill="#8fee8f"/><rect x="882" y="42" width="42" height="42" fill="#aef3ae"/><circle cx="1134" cy="42" r="42" fill="#58e658"/><g transform="translate(1176,0) scale(4.2) rotate(0)"><path fill-rule="evenodd" clip-rule="evenodd" d="M10 20C15.5228 20 20 15.5228 20 10C20 4.47715 15.5228 0 10 0C4.47715 0 0 4.47715 0 10C0 15.5228 4.47715 20 10 20ZM10 17C13.866 17 17 13.866 17 10C17 6.13401 13.866 3 10 3C6.13401 3 3 6.13401 3 10C3 13.866 6.13401 17 10 17Z" fill="#fde6bb"/></g><circle cx="1302" cy="42" r="42" fill="#eefcee"/><rect x="168" y="84" width="84" height="84" fill="#ffffff"/><g transform="translate(210,84) scale(2.1) rotate(0)"><path fill-rule="evenodd" clip-rule="evenodd" d="M10 20C15.5228 20 20 15.5228 20 10C20 4.47715 15.5228 0 10 0C4.47715 0 0 4.47715 0 10C0 15.5228 4.47715 20 10 20ZM10 17C13.866 17 17 13.866 17 10C17 6.13401 13.866 3 10 3C6.13401 3 3 6.13401 3 10C3 13.866 6.13401 17 10 17Z" fill="#fdeac6"/></g><g transform="translate(168,126) scale(2.1) rotate(0)"><path fill-rule="evenodd" clip-rule="evenodd" d="M10 20C15.5228 20 20 15.5228 20 10C20 4.47715 15.5228 0 10 0C4.47715 0 0 4.47715 0 10C0 15.5228 4.47715 20 10 20ZM10 17C13.866 17 17 13.866 17 10C17 6.13401 13.866 3 10 3C6.13401 3 3 6.13401 3 10C3 13.866 6.13401 17 10 17Z" fill="#fbcf7b"/></g><g transform="translate(252,84) scale(4.2) rotate(0)"><path fill-rule="evenodd" clip-rule="evenodd" d="M10 20C15.5228 20 20 15.5228 20 10C20 4.47715 15.5228 0 10 0C4.47715 0 0 4.47715 0 10C0 15.5228 4.47715 20 10 20ZM10 17C13.866 17 17 13.866 17 10C17 6.13401 13.866 3 10 3C6.13401 3 3 6.13401 3 10C3 13.866 6.13401 17 10 17Z" fill="#fac45e"/></g><rect x="336" y="84" width="84" height="84" fill="#ffffff"/><rect x="336" y="84" width="42" height="42" fill="#fef8ec"/><rect x="420" y="84" width="84" height="84" fill="#ffffff"/><rect x="840" y="84" width="84" height="84" fill="#ffffff"/><circle cx="861" cy="105" r="21" fill="#98f098"/><rect x="882" y="84" width="42" height="42" fill="#f9b83b"/><circle cx="861" cy="147" r="21" fill="#4ee44e"/><rect x="0" y="168" width="84" height="84" fill="#ffffff"/><g transform="translate(0,168) scale(2.1) rotate(0)"><path fill-rule="evenodd" clip-rule="evenodd" d="M10 20C15.5228 20 20 15.5228 20 10C20 4.47715 15.5228 0 10 0C4.47715 0 0 4.47715 0 10C0 15.5228 4.47715 20 10 20ZM10 17C13.866 17 17 13.866 17 10C17 6.13401 13.866 3 10 3C6.13401 3 3 6.13401 3 10C3 13.866 6.13401 17 10 17Z" fill="#62e762"/></g><rect x="924" y="168" width="84" height="84" fill="#ffffff"/><circle cx="945" cy="189" r="21" fill="#fde3b2"/><circle cx="987" cy="189" r="21" fill="#fac662"/><circle cx="987" cy="231" r="21" fill="#fef7e9"/><g transform="translate(1008,168) scale(4.2) rotate(0)"><path fill-rule="evenodd" clip-rule="evenodd" d="M10 20C15.5228 20 20 15.5228 20 10C20 4.47715 15.5228 0 10 0C4.47715 0 0 4.47715 0 10C0 15.5228 4.47715 20 10 20ZM10 17C13.866 17 17 13.866 17 10C17 6.13401 13.866 3 10 3C6.13401 3 3 6.13401 3 10C3 13.866 6.13401 17 10 17Z" fill="#fac969"/></g><rect x="1260" y="168" width="84" height="84" fill="#ffffff"/><g transform="translate(1260,168) scale(2.1) rotate(0)"><path fill-rule="evenodd" clip-rule="evenodd" d="M10 20C15.5228 20 20 15.5228 20 10C20 4.47715 15.5228 0 10 0C4.47715 0 0 4.47715 0 10C0 15.5228 4.47715 20 10 20ZM10 17C13.866 17 17 13.866 17 10C17 6.13401 13.866 3 10 3C6.13401 3 3 6.13401 3 10C3 13.866 6.13401 17 10 17Z" fill="#c4f6c4"/></g><g transform="translate(1260,210) scale(2.1) rotate(0)"><path fill-rule="evenodd" clip-rule="evenodd" d="M10 20C15.5228 20 20 15.5228 20 10C20 4.47715 15.5228 0 10 0C4.47715 0 0 4.47715 0 10C0 15.5228 4.47715 20 10 20ZM10 17C13.866 17 17 13.866 17 10C17 6.13401 13.866 3 10 3C6.13401 3 3 6.13401 3 10C3 13.866 6.13401 17 10 17Z" fill="#d7f9d7"/></g><rect x="0" y="252" width="84" height="84" fill="#f8b32c"/><rect x="252" y="252" width="84" height="84" fill="#ffffff"/><rect x="252" y="252" width="42" height="42" fill="#fbcd75"/><rect x="294" y="252" width="42" height="42" fill="#f8b026"/><rect x="336" y="252" width="84" height="84" fill="#ffffff"/><g transform="translate(336,252) scale(2.1) rotate(0)"><path fill-rule="evenodd" clip-rule="evenodd" d="M10 20C15.5228 20 20 15.5228 20 10C20 4.47715 15.5228 0 10 0C4.47715 0 0 4.47715 0 10C0 15.5228 4.47715 20 10 20ZM10 17C13.866 17 17 13.866 17 10C17 6.13401 13.866 3 10 3C6.13401 3 3 6.13401 3 10C3 13.866 6.13401 17 10 17Z" fill="#62e762"/></g><rect x="378" y="294" width="42" height="42" fill="#e0fae0"/><circle cx="630" cy="294" r="42" fill="#fde5b7"/><circle cx="714" cy="294" r="42" fill="#5fe75f"/><rect x="840" y="252" width="84" height="84" fill="#ffffff"/><circle cx="861" cy="273" r="21" fill="#61e761"/><circle cx="903" cy="273" r="21" fill="#6ee96e"/><g transform="translate(840,294) scale(2.1) rotate(0)"><path fill-rule="evenodd" clip-rule="evenodd" d="M10 20C15.5228 20 20 15.5228 20 10C20 4.47715 15.5228 0 10 0C4.47715 0 0 4.47715 0 10C0 15.5228 4.47715 20 10 20ZM10 17C13.866 17 17 13.866 17 10C17 6.13401 13.866 3 10 3C6.13401 3 3 6.13401 3 10C3 13.866 6.13401 17 10 17Z" fill="#f9b73a"/></g><rect x="1092" y="252" width="84" height="84" fill="#ffffff"/><g transform="translate(1092,252) scale(2.1) rotate(0)"><path fill-rule="evenodd" clip-rule="evenodd" d="M10 20C15.5228 20 20 15.5228 20 10C20 4.47715 15.5228 0 10 0C4.47715 0 0 4.47715 0 10C0 15.5228 4.47715 20 10 20ZM10 17C13.866 17 17 13.866 17 10C17 6.13401 13.866 3 10 3C6.13401 3 3 6.13401 3 10C3 13.866 6.13401 17 10 17Z" fill="#fcd893"/></g><rect x="1134" y="252" width="42" height="42" fill="#f8fef8"/><rect x="1092" y="294" width="42" height="42" fill="#fef7e8"/><rect x="1260" y="252" width="84" height="84" fill="#ffffff"/><rect x="1302" y="252" width="42" height="42" fill="#5ee75e"/><rect x="84" y="336" width="84" height="84" fill="#ffffff"/><rect x="84" y="336" width="42" height="42" fill="#64e864"/><circle cx="147" cy="399" r="21" fill="#d7f9d7"/><rect x="168" y="336" width="84" height="84" fill="#ffffff"/><rect x="168" y="336" width="42" height="42" fill="#fac764"/><rect x="336" y="336" width="84" height="84" fill="#ffffff"/><g transform="translate(378,336) scale(2.1) rotate(0)"><path fill-rule="evenodd" clip-rule="evenodd" d="M10 20C15.5228 20 20 15.5228 20 10C20 4.47715 15.5228 0 10 0C4.47715 0 0 4.47715 0 10C0 15.5228 4.47715 20 10 20ZM10 17C13.866 17 17 13.866 17 10C17 6.13401 13.866 3 10 3C6.13401 3 3 6.13401 3 10C3 13.866 6.13401 17 10 17Z" fill="#c1f6c1"/></g><rect x="420" y="336" width="84" height="84" fill="#ffffff"/><circle cx="630" cy="378" r="42" fill="#5fe75f"/><circle cx="714" cy="378" r="42" fill="#fac55f"/><rect x="840" y="336" width="84" height="84" fill="#ffffff"/><circle cx="861" cy="399" r="21" fill="#f9bc46"/><rect x="1260" y="336" width="84" height="84" fill="#ffffff"/><circle cx="1281" cy="357" r="21" fill="#fcdea4"/><rect x="1302" y="336" width="42" height="42" fill="#d1f8d1"/><rect x="588" y="420" width="84" height="84" fill="#ffffff"/><circle cx="651" cy="441" r="21" fill="#fcdc9e"/><g transform="translate(756,420) scale(4.2) rotate(0)"><path fill-rule="evenodd" clip-rule="evenodd" d="M10 20C15.5228 20 20 15.5228 20 10C20 4.47715 15.5228 0 10 0C4.47715 0 0 4.47715 0 10C0 15.5228 4.47715 20 10 20ZM10 17C13.866 17 17 13.866 17 10C17 6.13401 13.866 3 10 3C6.13401 3 3 6.13401 3 10C3 13.866 6.13401 17 10 17Z" fill="#f9b739"/></g><rect x="840" y="420" width="84" height="84" fill="#ffffff"/><rect x="840" y="420" width="42" height="42" fill="#95ef95"/><rect x="840" y="462" width="42" height="42" fill="#fac868"/><rect x="84" y="504" width="84" height="84" fill="#ffffff"/><rect x="126" y="504" width="42" height="42" fill="#fcdfa6"/><rect x="168" y="504" width="84" height="84" fill="#ffffff"/><circle cx="231" cy="525" r="21" fill="#fffbf3"/><g transform="translate(168,546) scale(2.1) rotate(0)"><path fill-rule="evenodd" clip-rule="evenodd" d="M10 20C15.5228 20 20 15.5228 20 10C20 4.47715 15.5228 0 10 0C4.47715 0 0 4.47715 0 10C0 15.5228 4.47715 20 10 20ZM10 17C13.866 17 17 13.866 17 10C17 6.13401 13.866 3 10 3C6.13401 3 3 6.13401 3 10C3 13.866 6.13401 17 10 17Z" fill="#fef7ea"/></g><rect x="336" y="504" width="84" height="84" fill="#ffffff"/><circle cx="357" cy="525" r="21" fill="#ebfceb"/><rect x="420" y="504" width="84" height="84" fill="#ffffff"/><rect x="588" y="504" width="84" height="84" fill="#ffffff"/><g transform="translate(630,504) scale(2.1) rotate(0)"><path fill-rule="evenodd" clip-rule="evenodd" d="M10 20C15.5228 20 20 15.5228 20 10C20 4.47715 15.5228 0 10 0C4.47715 0 0 4.47715 0 10C0 15.5228 4.47715 20 10 20ZM10 17C13.866 17 17 13.866 17 10C17 6.13401 13.866 3 10 3C6.13401 3 3 6.13401 3 10C3 13.866 6.13401 17 10 17Z" fill="#69e969"/></g><g transform="translate(630,546) scale(2.1) rotate(0)"><path fill-rule="evenodd" clip-rule="evenodd" d="M10 20C15.5228 20 20 15.5228 20 10C20 4.47715 15.5228 0 10 0C4.47715 0 0 4.47715 0 10C0 15.5228 4.47715 20 10 20ZM10 17C13.866 17 17 13.866 17 10C17 6.13401 13.866 3 10 3C6.13401 3 3 6.13401 3 10C3 13.866 6.13401 17 10 17Z" fill="#effdef"/></g><rect x="1008" y="504" width="84" height="84" fill="#fbd488"/><rect x="84" y="588" width="84" height="84" fill="#ffffff"/><circle cx="147" cy="609" r="21" fill="#6fe96f"/><rect x="336" y="588" width="84" height="84" fill="#46e346"/><rect x="756" y="588" width="84" height="84" fill="#ffffff"/><rect x="756" y="588" width="42" height="42" fill="#fef7e9"/></g></svg>