<?xml version="1.0" encoding="UTF-8" standalone="no"?>
<!DOCTYPE svg PUBLIC "-//W3C//DTD SVG 20010904//EN"
              "http://www.w3.org/TR/2001/REC-SVG-20010904/DTD/svg10.dtd">

<svg xmlns="http://www.w3.org/2000/svg"
     viewBox="0 0 374 355">
  <path id="Selection"
        fill="#fff" stroke="#fff" stroke-width="1"
        d="M 191.36,26.06
           C 194.27,27.74 197.84,39.52 198.55,43.00
             200.93,54.61 200.90,68.91 196.37,80.00
             194.64,84.24 191.12,90.50 186.96,92.68
             177.29,97.76 173.13,81.59 172.13,75.00
             169.69,58.79 173.20,35.77 187.96,26.06
             188.41,25.98 189.69,25.08 191.36,26.06 Z
           M 145.22,48.00
           C 153.99,66.53 154.19,84.02 144.00,102.00
             136.28,99.37 130.73,92.12 127.26,85.00
             118.75,67.54 120.57,46.64 130.00,30.00
             138.49,34.39 141.25,39.62 145.22,48.00 Z
           M 223.08,83.00
           C 223.08,61.75 237.74,36.49 260.00,33.00
             260.00,33.00 260.00,48.00 260.00,48.00
             259.97,68.42 248.32,94.50 226.00,98.00
             224.58,93.62 223.08,87.60 223.08,83.00 Z
           M 116.63,88.00
           C 120.42,95.60 120.16,100.51 122.00,108.00
             115.14,108.00 110.72,108.45 104.00,106.25
             83.14,99.42 68.48,78.71 68.00,57.00
             87.09,57.42 108.12,71.00 116.63,88.00 Z
           M 286.00,125.91
           C 281.12,127.66 278.11,127.98 273.00,128.00
             270.22,128.01 262.61,128.46 260.52,126.83
             258.30,125.00 259.62,121.24 260.52,119.00
             263.01,112.27 267.47,106.05 273.00,101.46
             282.01,93.99 295.22,88.50 307.00,88.04
             307.00,88.04 321.00,89.00 321.00,89.00
             319.57,104.71 300.10,120.85 286.00,125.91 Z
           M 49.00,92.00
           C 62.70,92.07 77.94,99.13 87.96,108.29
             92.89,112.80 97.12,119.52 98.63,126.00
             99.39,128.06 100.37,131.22 98.63,132.83
             96.55,134.35 90.47,134.03 88.00,134.00
             69.51,133.78 52.34,122.11 43.78,106.00
             41.03,100.83 39.54,97.90 39.00,92.00
             39.00,92.00 49.00,92.00 49.00,92.00 Z
           M 196.08,206.00
           C 195.85,208.95 196.01,211.15 194.72,213.99
             190.90,222.40 177.79,227.45 169.00,226.91
             145.52,225.47 134.76,201.65 135.00,181.00
             135.06,176.16 135.54,173.62 137.03,169.00
             145.30,143.27 171.47,146.97 193.00,147.00
             205.71,147.02 214.83,149.86 223.99,159.01
             236.11,171.14 239.53,186.62 241.17,203.00
             241.52,206.53 242.12,208.17 241.91,212.00
             241.07,226.81 237.22,242.28 224.99,251.76
             202.55,269.16 160.04,267.38 136.00,254.14
             98.45,233.45 83.49,187.29 99.40,148.00
             102.34,140.74 108.58,129.66 114.17,124.30
             128.05,110.99 151.35,106.22 170.00,106.00
             170.00,106.00 182.00,105.18 182.00,105.18
             201.61,106.58 222.12,108.87 239.00,120.10
             248.86,126.67 254.12,136.75 259.25,147.00
             270.16,168.83 276.29,181.10 276.00,206.00
             275.82,220.98 267.83,235.67 258.54,247.00
             256.02,250.07 248.92,258.64 244.30,255.93
             240.44,253.66 243.34,246.30 244.30,243.00
             247.68,231.20 248.03,226.92 249.17,215.00
             249.47,211.84 250.06,210.42 249.82,207.00
             249.11,197.00 247.19,187.12 242.88,178.00
             231.49,153.91 209.33,142.09 184.00,138.43
             161.44,135.16 125.38,142.60 127.09,172.00
             127.43,177.87 129.80,185.40 131.67,191.00
             136.11,204.34 140.49,216.59 152.00,225.61
             165.73,236.38 183.90,233.81 195.98,221.96
             198.70,219.30 201.11,216.53 202.64,213.00
             209.22,197.74 189.33,179.31 177.03,184.98
             169.32,188.53 169.12,199.22 177.71,201.83
             182.22,203.19 190.65,197.53 196.08,196.00
             197.19,201.07 196.68,201.09 196.08,206.00 Z
           M 72.00,145.89
           C 80.05,149.62 87.21,155.24 90.00,164.00
             73.44,173.17 56.20,173.21 39.00,165.56
             30.45,161.76 21.92,155.16 19.00,145.89
             33.81,138.82 57.14,138.71 72.00,145.89 Z
           M 336.00,143.44
           C 336.00,143.44 351.00,150.00 351.00,150.00
             349.19,158.53 341.41,161.95 334.00,165.13
             315.47,173.07 297.10,173.13 280.00,162.00
             286.56,141.43 318.25,138.15 336.00,143.44 Z
           M 50.00,220.86
           C 50.00,220.86 38.00,220.86 38.00,220.86
             30.41,220.99 27.14,220.29 20.00,217.58
             18.19,216.89 14.29,215.64 13.72,213.59
             12.37,208.75 24.28,200.74 28.00,198.78
             39.58,192.72 57.04,188.73 70.00,191.52
             74.34,192.45 80.05,194.95 84.00,197.00
             78.72,210.79 64.15,218.87 50.00,220.86 Z
           M 305.00,216.91
           C 300.26,215.20 286.40,206.92 290.04,200.53
             293.42,194.59 308.60,192.01 315.00,192.15
             315.00,192.15 328.00,192.15 328.00,192.15
             339.73,193.98 355.94,201.08 360.00,213.00
             341.96,220.91 323.89,223.72 305.00,216.91 Z
           M 74.00,224.00
           C 79.97,223.94 83.25,224.10 89.00,226.00
             84.39,248.57 62.26,262.90 40.00,263.00
             40.00,263.00 25.00,262.00 25.00,262.00
             28.68,242.39 54.53,224.23 74.00,224.00 Z
           M 288.00,260.67
           C 281.73,255.50 264.11,237.16 282.00,234.20
             283.60,234.05 285.39,234.00 287.00,234.20
             308.19,235.29 333.63,250.10 336.00,273.00
             318.67,273.00 302.16,272.37 288.00,260.67 Z
           M 91.00,254.78
           C 97.54,251.36 98.96,251.42 106.00,250.58
             107.94,250.35 110.57,249.78 111.96,251.60
             114.19,254.50 109.91,267.63 108.55,271.00
             100.71,290.40 81.55,301.94 61.00,302.00
             62.50,283.69 74.60,263.38 91.00,254.78 Z
           M 254.45,282.00
           C 252.64,277.50 248.59,264.65 253.48,261.17
             258.60,257.55 270.65,263.98 275.00,267.04
             288.62,276.62 295.93,290.56 297.01,307.00
             297.33,311.56 297.93,312.28 297.01,317.00
             279.35,312.97 261.28,298.91 254.45,282.00 Z
           M 139.78,266.99
           C 145.18,269.68 146.99,285.58 147.00,291.00
             147.02,304.01 145.78,313.98 137.96,325.00
             135.52,328.43 131.23,333.11 127.04,334.25
             122.99,335.36 122.06,332.14 121.03,329.00
             119.41,324.07 117.55,314.18 117.18,309.00
             116.23,295.69 123.69,272.09 136.98,266.99
             137.58,266.86 138.31,266.43 139.78,266.99 Z
           M 212.04,284.00
           C 212.15,281.13 212.94,273.68 215.51,272.06
             217.72,270.67 220.94,272.26 223.00,273.28
             229.21,276.34 233.94,280.51 238.10,286.00
             248.46,299.66 252.02,320.60 247.00,337.00
             226.85,329.83 211.20,305.36 212.04,284.00 Z
           M 193.97,289.00
           C 198.07,301.76 198.00,315.44 193.19,328.00
             191.55,332.27 188.49,338.91 183.99,340.72
             176.53,343.71 172.21,329.01 170.72,324.00
             166.61,310.14 166.94,293.67 174.45,281.00
             176.52,277.52 177.63,275.49 181.09,273.34
             188.04,273.66 192.09,283.13 193.97,289.00 Z" />
</svg>
